<?xml version="1.0" encoding="UTF-8"?>
<svg version="1.1" xmlns="http://www.w3.org/2000/svg" width="1024" height="1024">
<path d="M0 0 C21.67657979 19.50031668 38.99901934 43.39954163 49.328125 70.79296875 C49.61429688 71.54642578 49.90046875 72.29988281 50.1953125 73.07617188 C56.88352006 91.01142932 60.77086611 109.62810882 61.328125 128.79296875 C61.36808594 129.78167969 61.40804687 130.77039063 61.44921875 131.7890625 C62.10985369 162.29485233 55.11870384 193.0986827 40.328125 219.79296875 C39.72871094 220.88222656 39.12929688 221.97148437 38.51171875 223.09375 C30.75662572 236.74757151 21.41567134 249.13079319 10.078125 260.015625 C8.25256546 261.68670087 8.25256546 261.68670087 7.328125 263.79296875 C6.668125 263.79296875 6.008125 263.79296875 5.328125 263.79296875 C5.10125 264.34984375 4.874375 264.90671875 4.640625 265.48046875 C2.95435233 268.4515206 0.797771 270.43819 -1.671875 272.79296875 C-2.55875 273.72109375 -3.445625 274.64921875 -4.359375 275.60546875 C-6.671875 277.79296875 -6.671875 277.79296875 -8.671875 277.79296875 C-8.91049759 278.35723572 -9.14912018 278.92150269 -9.39497375 279.50286865 C-10.9515227 282.29451201 -12.83057927 284.18378529 -15.10229492 286.43457031 C-16.47964058 287.80684784 -16.47964058 287.80684784 -17.8848114 289.20684814 C-18.89063018 290.19912237 -19.89647496 291.19137023 -20.90234375 292.18359375 C-21.93697808 293.21194992 -22.97109379 294.24082812 -24.00471497 295.27020264 C-26.72845956 297.98065227 -29.45770441 300.68548901 -32.18859863 303.38873291 C-36.54227843 307.69931169 -40.88940288 312.01647159 -45.23305702 316.33715057 C-46.74101352 317.83500686 -48.25240583 319.32932781 -49.76420593 320.82330322 C-54.36230787 325.38925303 -58.80741664 329.99629851 -63.02241516 334.91741943 C-65.96916613 338.26807802 -69.15449101 341.37776241 -72.328125 344.51171875 C-73.3870697 345.56498352 -73.3870697 345.56498352 -74.46740723 346.63952637 C-77.45084875 349.60680641 -80.4402821 352.56802238 -83.42919922 355.52978516 C-85.62678079 357.7091534 -87.82125438 359.89161822 -90.015625 362.07421875 C-90.67937134 362.72966675 -91.34311768 363.38511475 -92.02697754 364.0604248 C-95.97200022 367.98500825 -99.66356332 372.02793081 -103.21447754 376.31433105 C-103.93588928 377.04625671 -103.93588928 377.04625671 -104.671875 377.79296875 C-105.331875 377.79296875 -105.991875 377.79296875 -106.671875 377.79296875 C-107.08131348 378.68810181 -107.08131348 378.68810181 -107.49902344 379.60131836 C-109.36662283 383.09121007 -112.12790585 385.58714619 -114.921875 388.35546875 C-115.54449219 388.97389648 -116.16710937 389.59232422 -116.80859375 390.22949219 C-123.03219581 396.30595677 -129.690098 401.62352435 -136.671875 406.79296875 C-137.24405762 407.22593262 -137.81624023 407.65889648 -138.40576172 408.10498047 C-147.04417394 414.63800816 -155.99412582 419.94053989 -165.671875 424.79296875 C-165.64867187 425.9325 -165.62546875 427.07203125 -165.6015625 428.24609375 C-165.12878606 461.50396107 -171.69828388 493.45771761 -187.671875 522.79296875 C-188.22488281 523.83710937 -188.77789063 524.88125 -189.34765625 525.95703125 C-195.60795946 537.28235304 -204.25613209 548.87279126 -213.671875 557.79296875 C-214.331875 557.79296875 -214.991875 557.79296875 -215.671875 557.79296875 C-215.90226974 558.34868057 -216.13266449 558.9043924 -216.37004089 559.47694397 C-218.0291978 562.42866301 -220.09959338 564.45976985 -222.5012207 566.84936523 C-222.99091339 567.33934998 -223.48060608 567.82933472 -223.98513794 568.33416748 C-225.60128079 569.94891998 -227.224391 571.55647275 -228.84765625 573.1640625 C-229.97668935 574.28936162 -231.10527885 575.41510597 -232.23344421 576.54127502 C-235.2043736 579.50457505 -238.18125317 582.46182671 -241.15942383 585.41784668 C-244.1769139 588.41495103 -247.18882669 591.41764808 -250.20117188 594.41992188 C-255.51229883 599.71192024 -260.82831223 604.99896603 -266.14790344 610.28245544 C-268.66036502 612.78152014 -271.16717029 615.28613181 -273.671875 617.79296875 C-283.671875 627.79296875 -283.671875 627.79296875 -286.078125 630.16796875 C-289.18335879 633.310615 -292.1744407 636.54798975 -295.171875 639.79296875 C-300.01996043 645.00705743 -304.91574574 650.16764494 -309.921875 655.23046875 C-310.47037109 655.79185547 -311.01886719 656.35324219 -311.58398438 656.93164062 C-312.90771337 658.25872508 -314.28521291 659.53178682 -315.671875 660.79296875 C-316.331875 660.79296875 -316.991875 660.79296875 -317.671875 660.79296875 C-317.91808594 661.36144531 -318.16429687 661.92992187 -318.41796875 662.515625 C-331.98385859 687.15398568 -370.64288883 703.64628664 -396.375 711.203125 C-397.99320666 711.65544883 -399.61298921 712.10217656 -401.234375 712.54296875 C-401.95278564 712.74172607 -402.67119629 712.9404834 -403.41137695 713.14526367 C-416.24589915 716.46524818 -429.04106397 717.09989383 -442.21484375 716.9987793 C-444.66937717 716.98048736 -447.12353025 716.97827095 -449.578125 716.97851562 C-459.31551728 716.95618551 -468.96524114 716.58099798 -478.671875 715.79296875 C-478.671875 715.13296875 -478.671875 714.47296875 -478.671875 713.79296875 C-479.82171875 713.674375 -480.9715625 713.55578125 -482.15625 713.43359375 C-486.55808817 712.87997646 -490.6815197 711.82410364 -494.921875 710.54296875 C-496.02233154 710.21679565 -496.02233154 710.21679565 -497.14501953 709.8840332 C-502.714852 708.1892631 -508.04449166 706.11316316 -513.3515625 703.7109375 C-515.72092863 702.60902911 -515.72092863 702.60902911 -518.671875 702.79296875 C-519.001875 702.13296875 -519.331875 701.47296875 -519.671875 700.79296875 C-520.95908329 700.11741263 -522.27927309 699.5045778 -523.609375 698.91796875 C-538.73692455 691.58273969 -553.08364275 680.92158489 -564.671875 668.79296875 C-565.47625 667.98859375 -566.280625 667.18421875 -567.109375 666.35546875 C-567.955 665.50984375 -568.800625 664.66421875 -569.671875 663.79296875 C-570.23261719 663.27863281 -570.79335938 662.76429688 -571.37109375 662.234375 C-603.28912346 632.129134 -616.20157667 586.10217583 -617.859375 543.62109375 C-618.41405601 509.6468819 -610.56204892 477.24435276 -593.671875 447.79296875 C-593.09824219 446.77976562 -592.52460937 445.7665625 -591.93359375 444.72265625 C-581.90440968 428.04882666 -567.66563352 413.60394981 -553.8671875 400.02734375 C-551.85565884 397.98002277 -550.00134205 395.87747001 -548.171875 393.66796875 C-547.346875 392.71921875 -546.521875 391.77046875 -545.671875 390.79296875 C-545.011875 390.79296875 -544.351875 390.79296875 -543.671875 390.79296875 C-543.42764297 390.22309235 -543.18341095 389.65321594 -542.93177795 389.06607056 C-541.44433314 386.38244046 -539.69435123 384.58276232 -537.51342773 382.42333984 C-536.65591415 381.56920502 -535.79840057 380.71507019 -534.91490173 379.83505249 C-533.98778885 378.92139923 -533.06067596 378.00774597 -532.10546875 377.06640625 C-531.14614395 376.11335518 -530.18733469 375.15978491 -529.22901917 374.20571899 C-526.71012426 371.70010318 -524.18571696 369.20012218 -521.65966797 366.70172119 C-517.61177749 362.69701884 -513.57064916 358.68552038 -509.53270149 354.67079544 C-508.1208074 353.26913374 -506.70537245 351.87104169 -505.28990173 350.47299194 C-504.43554031 349.62516144 -503.58117889 348.77733093 -502.70092773 347.90380859 C-501.94529037 347.15642426 -501.18965302 346.40903992 -500.41111755 345.63900757 C-498.60535962 343.89980572 -498.60535962 343.89980572 -497.671875 341.79296875 C-497.011875 341.79296875 -496.351875 341.79296875 -495.671875 341.79296875 C-495.671875 341.13296875 -495.671875 340.47296875 -495.671875 339.79296875 C-495.011875 339.79296875 -494.351875 339.79296875 -493.671875 339.79296875 C-493.40870987 339.20415924 -493.14554474 338.61534973 -492.87440491 338.00869751 C-491.61669845 335.69130287 -490.30280575 334.18860541 -488.43139648 332.34130859 C-487.77409042 331.68738129 -487.11678436 331.03345398 -486.43955994 330.35971069 C-485.73118484 329.66479523 -485.02280975 328.96987976 -484.29296875 328.25390625 C-483.20206688 327.17080673 -483.20206688 327.17080673 -482.08912659 326.06582642 C-479.76723918 323.76174181 -477.43877361 321.46445743 -475.109375 319.16796875 C-472.77728928 316.86347742 -470.44666555 314.55755483 -468.11891174 312.24868774 C-466.67041962 310.81247719 -465.21926324 309.37894789 -463.76524353 307.94833374 C-463.11108963 307.30071075 -462.45693573 306.65308777 -461.78295898 305.98583984 C-461.20497055 305.41610443 -460.62698212 304.84636902 -460.03147888 304.2593689 C-458.56754122 302.81778161 -458.56754122 302.81778161 -457.671875 300.79296875 C-457.011875 300.79296875 -456.351875 300.79296875 -455.671875 300.79296875 C-455.341875 299.80296875 -455.011875 298.81296875 -454.671875 297.79296875 C-453.56068289 296.61992526 -452.43924404 295.45518743 -451.27294922 294.33691406 C-449.384778 292.51611584 -447.56410702 290.63720772 -445.73828125 288.75390625 C-425.91421433 268.50462873 -425.91421433 268.50462873 -415.53857422 262.57348633 C-412.80672942 259.96776515 -413.10110347 257.95799502 -412.984375 254.23828125 C-412.95680618 253.58917282 -412.92923737 252.94006439 -412.90083313 252.27128601 C-412.8417341 250.87830259 -412.79020942 249.48498112 -412.74551392 248.09146118 C-412.62156898 244.43315939 -412.42105507 240.77946504 -412.21484375 237.125 C-412.15383736 236.03903786 -412.15383736 236.03903786 -412.09159851 234.93113708 C-410.64166246 210.87473388 -402.31709491 188.91100253 -391.47875977 167.61450195 C-390.53687083 165.82023946 -390.53687083 165.82023946 -390.671875 163.79296875 C-390.27226562 163.40109375 -389.87265625 163.00921875 -389.4609375 162.60546875 C-386.86976623 159.980352 -385.03488567 156.88009222 -383.046875 153.79296875 C-378.65562178 147.09180489 -373.89919685 140.87215046 -368.671875 134.79296875 C-367.65867187 133.57867187 -367.65867187 133.57867187 -366.625 132.33984375 C-363.09854362 128.17221348 -363.09854362 128.17221348 -361.671875 126.79296875 C-361.011875 126.79296875 -360.351875 126.79296875 -359.671875 126.79296875 C-359.341875 125.80296875 -359.011875 124.81296875 -358.671875 123.79296875 C-358.011875 123.79296875 -357.351875 123.79296875 -356.671875 123.79296875 C-356.671875 123.13296875 -356.671875 122.47296875 -356.671875 121.79296875 C-356.011875 121.79296875 -355.351875 121.79296875 -354.671875 121.79296875 C-354.671875 121.13296875 -354.671875 120.47296875 -354.671875 119.79296875 C-352.796875 117.66796875 -352.796875 117.66796875 -350.671875 115.79296875 C-350.011875 115.79296875 -349.351875 115.79296875 -348.671875 115.79296875 C-348.40375 115.15359375 -348.135625 114.51421875 -347.859375 113.85546875 C-346.671875 111.79296875 -346.671875 111.79296875 -343.671875 110.79296875 C-342.9849043 109.46998218 -342.32179834 108.13454315 -341.671875 106.79296875 C-340.3380353 105.27817548 -338.94565803 103.81420322 -337.5191803 102.38630676 C-336.64884155 101.51032837 -335.77850281 100.63434998 -334.88179016 99.73182678 C-333.91486455 98.76878982 -332.9478353 97.80585691 -331.98071289 96.84301758 C-330.96338079 95.82297454 -329.94647448 94.80250671 -328.92996216 93.78164673 C-326.1675765 91.01013902 -323.39889523 88.24500148 -320.62877965 85.48122239 C-317.72278295 82.58029623 -314.82167758 79.67448504 -311.91978455 76.76945496 C-307.0382525 71.88428228 -302.15251606 67.00334423 -297.2644043 62.12475586 C-291.63497058 56.50616422 -286.01272012 50.88046207 -280.39422995 45.2509287 C-275.55784637 40.40542387 -270.71751908 35.56388447 -265.87396806 30.72554415 C-262.9870268 27.84170164 -260.1014072 24.95657144 -257.219347 22.06785011 C-254.50130817 19.34396936 -251.77830013 16.62514988 -249.0516243 13.90991592 C-248.05956894 12.92047283 -247.06915113 11.92938426 -246.08063698 10.93640327 C-239.60617872 4.43542703 -232.8720372 -1.52121013 -225.671875 -7.20703125 C-225.0981569 -7.66649737 -224.5244388 -8.1259635 -223.9333353 -8.59935284 C-156.96466577 -61.81266608 -63.43056763 -55.8895246 0 0 Z M-149.671875 96.79296875 C-150.62320313 97.53740234 -150.62320313 97.53740234 -151.59375 98.296875 C-154.66828372 100.79323313 -157.32125093 103.46993829 -159.88668823 106.48506165 C-163.60142145 110.76696921 -167.52995141 114.785313 -171.54736328 118.78198242 C-172.30113251 119.53589767 -173.05490173 120.28981293 -173.83151245 121.0665741 C-176.29937198 123.53374254 -178.77074542 125.99735828 -181.2421875 128.4609375 C-182.96920322 130.18608527 -184.69599616 131.91145608 -186.4225769 133.63703918 C-190.95247954 138.16313876 -195.48537574 142.68622853 -200.0189209 147.2086792 C-204.63030873 151.80983391 -209.2388674 156.41382038 -213.84765625 161.01757812 C-221.28905769 168.45020497 -228.73219008 175.88109307 -236.17755127 183.30975342 C-236.83061249 183.96136948 -237.48367371 184.61298553 -238.15652466 185.28434753 C-239.06718878 186.19200646 -239.06718878 186.19200646 -239.99625015 187.11800194 C-241.49019449 188.61135959 -242.97588938 190.11295953 -244.4604187 191.61567688 C-246.671875 193.79296875 -246.671875 193.79296875 -249.671875 196.23046875 C-252.75091381 198.86048107 -255.12265901 201.65547215 -257.671875 204.79296875 C-260.18603992 207.4360652 -262.67401127 209.7946487 -265.54296875 212.05078125 C-268.7318559 214.69621361 -270.96687812 217.66810585 -273.296875 221.10546875 C-274.39902344 222.70841797 -274.39902344 222.70841797 -275.5234375 224.34375 C-277.90017981 228.00635973 -279.77743485 231.86264834 -281.671875 235.79296875 C-280.4859375 236.19386719 -279.3 236.59476563 -278.078125 237.0078125 C-247.8341823 247.50721678 -225.93410907 265.65175155 -207.99951172 292.00634766 C-206.68326346 293.77764313 -205.27077632 295.27609241 -203.671875 296.79296875 C-203.15625 296.09171875 -202.640625 295.39046875 -202.109375 294.66796875 C-199.70722835 291.83466758 -197.21035928 289.57523865 -194.35546875 287.22265625 C-192.69177835 285.80987043 -191.12297544 284.42490542 -189.671875 282.79296875 C-189.671875 282.13296875 -189.671875 281.47296875 -189.671875 280.79296875 C-189.06859375 280.52871094 -188.4653125 280.26445312 -187.84375 279.9921875 C-185.5676463 278.73541801 -184.50369067 277.63856713 -182.921875 275.60546875 C-180.78972081 273.01187821 -178.6269529 270.8144651 -176.046875 268.66796875 C-172.56993251 265.70540539 -169.47946802 262.48996763 -166.421875 259.10546875 C-158.56296789 250.42157905 -150.20032046 242.23357075 -141.88500977 233.99023438 C-140.38457281 232.50055621 -138.88796655 231.00701158 -137.39485168 229.50999451 C-134.57642443 226.69772678 -131.73673548 223.90795473 -128.89111328 221.12329102 C-123.22439746 215.57134035 -117.57582488 210.00129278 -111.93712044 204.42089939 C-108.53578384 201.05600315 -105.12824652 197.69793105 -101.70556641 194.35473633 C-98.3772695 191.10320228 -95.06700727 187.83423068 -91.76787949 184.55311394 C-90.51831296 183.31633638 -89.26267118 182.0856615 -88.00052261 180.86172676 C-75.90039937 169.11358254 -67.09260041 155.86142786 -66.296875 138.35546875 C-66.86823305 124.64287564 -72.18205322 111.69916297 -81.671875 101.79296875 C-93.58385725 91.38063519 -106.69567005 85.09994119 -122.68359375 85.484375 C-133.18986708 86.56933656 -141.56769699 90.13180086 -149.671875 96.79296875 Z M-281.671875 272.79296875 C-278.10687878 283.60522702 -272.00952131 293.10853031 -262.671875 299.79296875 C-262.04539062 300.24285156 -261.41890625 300.69273437 -260.7734375 301.15625 C-254.84283875 305.12951675 -247.98487193 308.50067813 -240.671875 307.79296875 C-246.28122275 291.79066703 -262.76964254 280.98311699 -277.203125 273.859375 C-279.52967505 272.66078631 -279.52967505 272.66078631 -281.671875 272.79296875 Z M-361.22265625 385.11328125 C-364.09024775 388.05081401 -366.88859369 390.98504643 -369.484375 394.16796875 C-371.671875 396.79296875 -371.671875 396.79296875 -373.671875 397.79296875 C-373.671875 398.45296875 -373.671875 399.11296875 -373.671875 399.79296875 C-375.156875 400.28796875 -375.156875 400.28796875 -376.671875 400.79296875 C-378.35071178 402.48702565 -378.35071178 402.48702565 -379.984375 404.54296875 C-382.95430096 408.05457932 -386.13526801 410.84579626 -389.671875 413.79296875 C-391.45098434 415.73306479 -393.15791731 417.72481719 -394.8671875 419.7265625 C-402.0980495 428.006056 -402.0980495 428.006056 -405.671875 429.79296875 C-405.671875 430.45296875 -405.671875 431.11296875 -405.671875 431.79296875 C-406.331875 431.79296875 -406.991875 431.79296875 -407.671875 431.79296875 C-409.23836358 433.38034274 -409.23836358 433.38034274 -410.859375 435.41796875 C-413.7819413 438.88084142 -416.83018402 441.76807783 -420.38671875 444.56640625 C-420.81082031 444.97117187 -421.23492187 445.3759375 -421.671875 445.79296875 C-421.671875 446.45296875 -421.671875 447.11296875 -421.671875 447.79296875 C-422.331875 447.79296875 -422.991875 447.79296875 -423.671875 447.79296875 C-425.03364422 449.43648332 -426.36149566 451.10819531 -427.671875 452.79296875 C-430.16716955 455.41622713 -432.62510645 457.75659321 -435.484375 459.98046875 C-436.20625 460.57859375 -436.928125 461.17671875 -437.671875 461.79296875 C-437.671875 462.45296875 -437.671875 463.11296875 -437.671875 463.79296875 C-438.331875 463.79296875 -438.991875 463.79296875 -439.671875 463.79296875 C-441.11713279 465.21972987 -441.11713279 465.21972987 -442.6328125 467.125 C-447.23379455 472.53490665 -452.25497304 477.48446646 -457.296875 482.48046875 C-458.6890625 483.86588867 -458.6890625 483.86588867 -460.109375 485.27929688 C-461.83428402 486.99555663 -463.56022667 488.71077872 -465.28759766 490.42456055 C-466.97900878 492.10471407 -468.66589133 493.78943206 -470.34960938 495.47729492 C-471.76544522 496.88911188 -473.19948909 498.28333949 -474.6640625 499.64453125 C-484.78842004 509.18075184 -492.06679142 521.71485534 -492.91015625 535.76171875 C-493.32776398 552.71883987 -489.20561968 565.78278873 -477.609375 578.54296875 C-467.83905416 587.86157955 -455.0360384 592.20468201 -441.734375 592.10546875 C-440.94023193 592.0998291 -440.14608887 592.09418945 -439.32788086 592.08837891 C-433.60177056 591.96946513 -428.85238983 591.35855705 -423.671875 588.79296875 C-422.84042969 588.4371875 -422.00898438 588.08140625 -421.15234375 587.71484375 C-412.95241895 583.82017274 -407.24888696 577.83288814 -401.11669922 571.32055664 C-398.3100715 568.35315724 -395.54617716 565.46019934 -392.296875 562.98046875 C-390.16943173 561.20759936 -388.65141255 559.65230286 -386.90087891 557.55541992 C-381.07947683 550.84051657 -374.67560575 544.67406983 -368.3828125 538.40625 C-366.9921 537.01740649 -365.60161101 535.62833913 -364.21133423 534.23905945 C-360.56919016 530.60071211 -356.9240548 526.96537639 -353.27825928 523.33068848 C-349.57171451 519.63438363 -345.86800373 515.93524156 -342.1640625 512.23632812 C-336.18270397 506.26373166 -330.19964637 500.29284383 -324.21427917 494.32426453 C-323.17996893 493.29279142 -322.14583281 492.26114369 -321.11190414 491.2292881 C-319.71075588 489.83174946 -318.30775078 488.43607323 -316.9046936 487.04045105 C-314.75661792 484.87826821 -312.7412554 482.64847864 -310.734375 480.35546875 C-307.99273933 477.26481413 -305.20709594 474.31011531 -302.22265625 471.453125 C-289.91431656 459.6646243 -283.68348958 448.32008135 -279.671875 431.79296875 C-279.671875 431.13296875 -279.671875 430.47296875 -279.671875 429.79296875 C-280.61804688 429.45265625 -281.56421875 429.11234375 -282.5390625 428.76171875 C-298.74340237 422.85810152 -314.18441245 416.21693107 -328.671875 406.79296875 C-329.23213379 406.43090332 -329.79239258 406.06883789 -330.36962891 405.69580078 C-339.56604578 399.69696538 -348.79519747 392.93317442 -356.4140625 384.97265625 C-358.35461987 383.15263039 -359.25777139 383.44040699 -361.22265625 385.11328125 Z " fill="#00C4E8" transform="translate(790.671875,171.20703125)"/>
<path d="M0 0 C1.03912537 -0.0121907 1.03912537 -0.0121907 2.09924316 -0.02462769 C12.53716176 -0.11623987 22.25598551 1.10121618 32.4375 3.375 C33.68067993 3.64908691 33.68067993 3.64908691 34.94897461 3.92871094 C51.91532768 7.94957961 68.51754763 15.9136861 82.4375 26.375 C83.25734375 26.98601562 84.0771875 27.59703125 84.921875 28.2265625 C87.4882559 30.21264708 89.96994927 32.26730041 92.4375 34.375 C92.93894531 34.80264648 93.44039062 35.23029297 93.95703125 35.67089844 C102.07319582 42.66640038 108.92614163 50.16063584 115.27099609 58.79101562 C116.29465995 60.18103888 117.34270841 61.55303569 118.39453125 62.921875 C133.34810746 83.04000462 141.88960089 109.44559057 142.4375 134.375 C142.46328125 135.23867188 142.4890625 136.10234375 142.515625 136.9921875 C143.42274936 170.4650762 136.19877414 202.43920094 117.1875 230.4375 C116.78249268 231.03747803 116.37748535 231.63745605 115.96020508 232.25561523 C107.59938649 244.20982715 97.45530368 254.6528088 87.15429688 264.91699219 C85.8597825 266.21422481 84.56569216 267.51188071 83.27198792 268.80992126 C79.79523601 272.29569855 76.31229945 275.77523113 72.82784462 279.25330639 C69.16114293 282.91489872 65.49937537 286.58142048 61.83679199 290.24713135 C55.69084365 296.39670416 49.54072274 302.54208027 43.38818359 308.68505859 C36.29811636 315.76423454 29.21529524 322.85059907 22.13617468 329.94072032 C16.0299735 336.05602626 9.91984761 342.16739027 3.80648279 348.27553487 C0.16737792 351.91153878 -3.47040291 355.54883977 -7.10462952 359.18972015 C-10.52127549 362.61218593 -13.94285822 366.02964143 -17.36815071 369.44345284 C-18.6166151 370.68929568 -19.86342358 371.93680074 -21.10835075 373.18617821 C-30.69647405 382.80538551 -40.61925542 392.68153325 -52.5625 399.375 C-53.2225 399.375 -53.8825 399.375 -54.5625 399.375 C-54.70236328 398.71306641 -54.84222656 398.05113281 -54.98632812 397.36914062 C-57.66997258 384.83108468 -60.60455124 372.47676543 -64.6875 360.3125 C-65.01169922 359.34570312 -65.33589844 358.37890625 -65.66992188 357.3828125 C-67.46629875 352.17222644 -69.47115415 347.2417772 -72.01904297 342.34985352 C-72.5625 340.375 -72.5625 340.375 -71.91295528 338.58183098 C-70.12481792 335.65976686 -67.92982086 333.50707674 -65.49867249 331.09085083 C-64.97794661 330.5705328 -64.45722072 330.05021477 -63.92071527 329.51412952 C-62.17457873 327.77172332 -60.42140419 326.03657496 -58.66821289 324.30126953 C-57.41439497 323.05292761 -56.16103917 321.80412138 -54.90811157 320.55488586 C-52.20718854 317.86367932 -49.50323887 315.17556381 -46.79698372 312.48971939 C-42.50746101 308.23204913 -38.2261399 303.9661959 -33.94615173 299.69894409 C-23.30547508 289.09234425 -12.65567886 278.49491342 -2.00073242 267.90264893 C6.26477277 259.68576268 14.52696443 251.46561035 22.77861601 243.2348088 C27.02089158 239.00397455 31.26998234 234.78015028 35.52452171 230.56165051 C38.18923898 227.91632431 40.84749394 225.26457368 43.50411606 222.61112022 C44.72398543 221.3952215 45.94639541 220.18186459 47.17172813 218.97147179 C53.2952413 212.91984873 59.13231031 206.7748549 64.47633362 200.01608276 C64.91371571 199.46376547 65.35109781 198.91144818 65.80173391 198.34239399 C79.50994089 180.53945646 85.74766092 158.37155421 83.16503906 136.01660156 C81.44173314 123.63125561 77.863919 113.08674022 71.4375 102.375 C70.6021875 100.97701172 70.6021875 100.97701172 69.75 99.55078125 C58.00392407 81.56460248 39.28864787 69.55876863 18.5625 64.5625 C13.87478544 63.60352109 9.21907991 62.66582955 4.4375 62.375 C2.96990234 62.27832031 2.96990234 62.27832031 1.47265625 62.1796875 C-24.14263634 61.2994369 -44.26632595 72.41888686 -62.5625 89.375 C-66.5477914 93.2192689 -70.46976804 97.12488192 -74.38696289 101.03833008 C-75.53619559 102.18292141 -76.68562042 103.32731986 -77.83522034 104.47154236 C-80.92853732 107.55186683 -84.0186274 110.63540739 -87.10768819 113.71999955 C-89.044118 115.65347934 -90.98112541 117.5863787 -92.91830254 119.51910973 C-98.99836413 125.5855358 -105.07644859 131.65393239 -111.15163523 137.72524053 C-118.13003969 144.69916312 -125.1149396 151.66649235 -132.10556227 158.62816697 C-137.53455472 164.03546695 -142.95769478 169.4485919 -148.37651819 174.86608237 C-151.60190349 178.09042577 -154.82960992 181.31235551 -158.06346321 184.52820778 C-161.10636147 187.55449196 -164.14185133 190.58802369 -167.17209435 193.62697792 C-168.27675207 194.73239872 -169.38391461 195.83532386 -170.49393463 196.93535995 C-179.96061928 206.32195713 -188.3898211 216.14418158 -194.4375 228.125 C-194.80101562 228.81464844 -195.16453125 229.50429688 -195.5390625 230.21484375 C-197.34383915 233.70015519 -198.75391818 236.98513003 -199.85546875 240.75390625 C-200.57910156 242.74560547 -200.57910156 242.74560547 -201.5625 244.375 C-204.32539296 245.58836782 -206.11179149 246.12499463 -209 246.5625 C-210.45586851 246.85622499 -211.91031553 247.15708067 -213.36328125 247.46484375 C-214.43763428 247.68503174 -214.43763428 247.68503174 -215.53369141 247.90966797 C-230.83773164 251.41983652 -244.28223835 261.60594633 -256.45703125 271.03125 C-259.5625 273.375 -259.5625 273.375 -260.5625 273.375 C-260.89383751 258.11308439 -261.13320277 243.28543211 -257.5625 228.375 C-257.40152832 227.68325684 -257.24055664 226.99151367 -257.07470703 226.27880859 C-250.7553222 200.03606062 -236.13945535 178.65462374 -218 159.125 C-217.38688965 158.46322754 -216.7737793 157.80145508 -216.14208984 157.11962891 C-212.40638357 153.15112496 -208.50838823 149.50624983 -204.37573242 145.95483398 C-201.98410322 143.87105418 -199.78052361 141.64268085 -197.5625 139.375 C-196.02491384 137.84617002 -194.48565547 136.31902113 -192.9453125 134.79296875 C-191.1926396 133.04954827 -189.44003744 131.30605665 -187.6875 129.5625 C-186.37845703 128.26602539 -186.37845703 128.26602539 -185.04296875 126.94335938 C-180.52273015 122.44011416 -176.17864591 117.87191843 -172.02392578 113.0300293 C-170.29426678 111.07123237 -168.4468381 109.35634357 -166.4375 107.6875 C-163.32661752 105.04235424 -160.41566778 102.30132593 -157.5625 99.375 C-156.39718599 98.20698224 -155.23042182 97.04041016 -154.0625 95.875 C-153.464375 95.276875 -152.86625 94.67875 -152.25 94.0625 C-145.5625 87.375 -145.5625 87.375 -143.875 85.72265625 C-141.08481677 82.9745663 -138.39115193 80.24299108 -135.9375 77.1875 C-133.5625 74.375 -133.5625 74.375 -131.125 72.4375 C-128.97102083 70.70380945 -127.48383944 69.17122365 -125.75 67.0625 C-123.68349841 64.57396155 -121.56921438 62.44785993 -119.0859375 60.37890625 C-115.57691281 57.35059186 -112.29208423 54.14542291 -109.05859375 50.828125 C-108.57360413 50.33094971 -108.0886145 49.83377441 -107.58892822 49.3215332 C-107.09398865 48.81412598 -106.59904907 48.30671875 -106.08911133 47.78393555 C-85.08787936 26.25837538 -62.9232769 11.40709778 -33.5625 3.375 C-32.88960937 3.18437988 -32.21671875 2.99375977 -31.5234375 2.79736328 C-21.19999601 0.01205204 -10.61546092 0.07340131 0 0 Z " fill="#81EBFD" transform="translate(673.5625,161.625)"/>
<path d="M0 0 C1.40087464 2.74426681 2.50908042 5.3678698 3.41015625 8.31640625 C8.87808042 25.73064711 15.94457724 41.73877255 26 57 C20.80420058 63.2464508 15.15768936 68.90622511 9.36523438 74.59570312 C8.64787109 75.30533203 7.93050781 76.01496094 7.19140625 76.74609375 C6.23536499 77.68473267 6.23536499 77.68473267 5.26000977 78.64233398 C3.39857636 80.58420093 1.64992142 82.55876638 -0.09938049 84.59938049 C-4.10227731 89.18355715 -8.35366837 93.48001073 -12.66992188 97.76757812 C-13.50826065 98.60445663 -14.34659943 99.44133514 -15.21034241 100.30357361 C-17.01851099 102.10795689 -18.82783323 103.9111847 -20.63819885 105.71336365 C-23.50790236 108.57022718 -26.37447574 111.43019655 -29.2401123 114.2911377 C-35.83979862 120.87884083 -42.44451479 127.46149346 -49.04929352 134.04409027 C-55.10834954 140.08290197 -61.16630547 146.12280678 -67.22020578 152.16678762 C-70.51796057 155.45880348 -73.8196027 158.74688979 -77.12194824 162.03430176 C-78.85814041 163.76685929 -80.59419115 165.49955856 -82.33007812 167.23242188 C-83.49610313 168.3906974 -83.49610313 168.3906974 -84.6856842 169.57237244 C-89.33118484 174.21742541 -93.73122034 179.00755697 -98 184 C-98.71027344 184.80566406 -99.42054688 185.61132812 -100.15234375 186.44140625 C-116.84504278 206.27540094 -120.41793935 228.71090083 -119 254 C-118.33120542 259.5670956 -116.8766432 264.71350837 -115 270 C-114.62617188 271.06992187 -114.25234375 272.13984375 -113.8671875 273.2421875 C-105.35740335 295.39016877 -89.1237255 309.47271454 -67.98974609 319.14257812 C-47.21045888 328.09679367 -22.72061848 326.9633838 -1.88183594 318.79785156 C7.26134528 314.92137048 15.00127311 309.65438132 22.109375 302.6875 C24 301 24 301 26 301 C26.33 300.01 26.66 299.02 27 298 C27.66 298 28.32 298 29 298 C29.3403125 297.13375 29.3403125 297.13375 29.6875 296.25 C31.34761639 293.40408619 33.39187957 292.00158079 36 290 C37.68073061 288.34751697 39.34545407 286.67869989 41 285 C52 274 52 274 54.65625 271.37890625 C56.55092002 269.45581618 58.29507938 267.52505906 60 265.4375 C62.43195146 262.55772117 65.00554608 260.30342609 68 258 C71.51322955 254.58660814 74.82683668 251.02758265 78.10888672 247.39282227 C83.17497647 241.82660961 88.42259438 236.46827453 93.77734756 231.1780529 C95.31268937 229.66060651 96.84402919 228.13921379 98.3744812 226.61683655 C102.71675042 222.29859618 107.06490356 217.9863166 111.41748047 213.6784668 C114.10594735 211.01708697 116.7892683 208.35060264 119.46969223 205.68112373 C120.47626011 204.68066827 121.48470674 203.68209864 122.49524307 202.68565178 C142.77782536 182.68371957 154.36236192 162.54913504 161 135 C161.9065332 135.00523682 162.81306641 135.01047363 163.74707031 135.01586914 C167.16895202 135.0330963 170.59078643 135.04553905 174.01269531 135.05493164 C175.48275488 135.05990456 176.95280965 135.06668527 178.42285156 135.07543945 C187.32906499 135.12707848 196.13171416 134.9431858 205 134 C205.39358465 147.01744778 204.5101277 159.22033524 202 172 C201.80664062 173.05316406 201.61328125 174.10632813 201.4140625 175.19140625 C193.12739405 213.8804622 163.50411301 240.6538964 136.7634635 267.43672514 C134.97486014 269.22829359 133.18683075 271.02043305 131.39896011 272.8127327 C125.77783446 278.44745525 120.15476888 284.08023086 114.52878845 289.71010625 C108.081854 296.1615324 101.64154259 302.61947621 95.20681655 309.08307874 C90.19431963 314.11727361 85.17599335 319.14560959 80.15330231 324.16963351 C77.16936369 327.15461236 74.18782595 330.14189195 71.21239853 333.1353569 C68.41669072 335.94769201 65.61372565 338.75259583 62.80534363 341.5522728 C61.78538447 342.57146994 60.76791213 343.5931639 59.75334549 344.61772919 C50.54472664 353.91165451 40.74163986 362.09508698 29.0625 368.125 C28.26674561 368.5382251 27.47099121 368.9514502 26.65112305 369.37719727 C20.69279656 372.36650062 14.62375271 374.79980825 8.3125 376.9375 C7.5191626 377.20771973 6.7258252 377.47793945 5.90844727 377.75634766 C-7.15578312 381.91824007 -20.00180661 383.50508901 -33.65405273 383.39111328 C-35.9333904 383.375029 -38.21094965 383.39107455 -40.49023438 383.41015625 C-55.24374473 383.43383908 -69.15765252 381.13368006 -83.125 376.3125 C-84.14706543 375.96364746 -85.16913086 375.61479492 -86.22216797 375.25537109 C-119.18959493 363.65504563 -145.90642743 338.32479702 -161.23364258 307.12255859 C-169.24152125 290.15577599 -175.09831245 271.215542 -175.203125 252.3828125 C-175.20882507 251.56738983 -175.21452515 250.75196716 -175.22039795 249.91183472 C-175.22980349 248.18895748 -175.23636414 246.46606262 -175.24023438 244.74316406 C-175.24984343 242.16697683 -175.28086841 239.59162227 -175.3125 237.015625 C-175.40825722 222.30040136 -173.68564974 208.40455999 -168.8125 194.4375 C-168.51061768 193.55747314 -168.20873535 192.67744629 -167.89770508 191.77075195 C-164.95853403 183.46105766 -161.34625461 175.66149188 -157 168 C-156.63036133 167.34725098 -156.26072266 166.69450195 -155.87988281 166.02197266 C-145.67523275 148.3042462 -132.36033946 134.01151011 -117.84545898 119.77954102 C-117.31604202 119.25940933 -116.78662506 118.73927765 -116.24116516 118.2033844 C-114.7917421 116.78206019 -113.33768336 115.36546767 -111.88330078 113.94921875 C-109.81422797 111.88394273 -107.8992585 109.73617662 -106.00537109 107.50976562 C-101.02214089 101.7582638 -95.57244524 96.46200555 -90.17689514 91.10173035 C-88.18088476 89.11862966 -86.18814294 87.13229426 -84.19616699 85.1451416 C-79.25100049 80.21325572 -74.30037531 75.28686113 -69.34991455 70.36029053 C-65.15585394 66.18604645 -60.96390637 62.00970144 -56.77467346 57.83061218 C-54.82315749 55.88551955 -52.86862615 53.94349334 -50.91394043 52.00158691 C-45.62822721 46.73747589 -40.41432631 41.48947618 -35.57699585 35.80407715 C-32.51426322 32.30032288 -29.18009973 29.05836364 -25.87890625 25.78125 C-25.13414536 25.03790405 -24.38938446 24.29455811 -23.62205505 23.52868652 C-21.27123255 21.18340699 -18.91693569 18.84165164 -16.5625 16.5 C-14.95614801 14.89867039 -13.35002603 13.29711002 -11.74414062 11.6953125 C-7.83208015 7.79420527 -3.91717048 3.8959758 0 0 Z " fill="#7EEAFD" transform="translate(384,471)"/>
<path d="M0 0 C-0.23589844 1.95292969 -0.23589844 1.95292969 -0.4765625 3.9453125 C-3.57259226 32.16215311 4.75479034 56.88622294 22.33984375 78.93359375 C33.64689758 92.14653672 50.71027195 102.87631535 68 106 C73.07175813 106.33160437 78.10787831 106.28640427 83.1875 106.1875 C84.53449006 106.17240904 85.88149668 106.15872852 87.22851562 106.14648438 C90.48611152 106.11145646 93.74283173 106.06233662 97 106 C100.5084363 112.61093051 103.33029256 119.1708696 105.5625 126.3125 C105.85914551 127.2516626 106.15579102 128.1908252 106.46142578 129.15844727 C109.45262706 138.95295695 111.39015708 148.89677015 113 159 C113.11762695 159.69754395 113.23525391 160.39508789 113.35644531 161.11376953 C113.6161544 162.73592076 113.8150417 164.3676355 114 166 C110.0429559 169.9570441 95.78369018 169.20204153 90.4375 169.3125 C51.1461116 169.05470802 15.48046928 153.53656423 -13 127 C-14.09441406 126.00419922 -14.09441406 126.00419922 -15.2109375 124.98828125 C-26.9659969 113.84855889 -35.53992428 100.25139659 -43 86 C-43.55300781 84.97390625 -44.10601562 83.9478125 -44.67578125 82.890625 C-52.91283628 67.14018385 -60.58200741 47.11464636 -59 29 C-56.96714436 26.96104884 -55.11253206 25.36922774 -52.8125 23.6875 C-52.17900635 23.20966064 -51.5455127 22.73182129 -50.89282227 22.23950195 C-36.80843387 11.77736393 -18.19909128 -0.70518088 0 0 Z " fill="#3ADBF7" transform="translate(472,406)"/>
<path d="M0 0 C-0.16371094 1.26714844 -0.32742188 2.53429687 -0.49609375 3.83984375 C-1.07978908 9.09310173 -1.11285949 14.28250085 -1.0625 19.5625 C-1.05798828 20.47580078 -1.05347656 21.38910156 -1.04882812 22.33007812 C-1.0371874 24.55345738 -1.02083851 26.77669121 -1 29 C-2.15048828 29.15082031 -2.15048828 29.15082031 -3.32421875 29.3046875 C-21.51041977 32.38852647 -43.99038079 42.57996265 -55 58 C-55.67336904 54.10529437 -56.33751584 50.20907067 -57 46.3125 C-57.19078125 45.20970703 -57.3815625 44.10691406 -57.578125 42.97070312 C-57.75859375 41.90400391 -57.9390625 40.83730469 -58.125 39.73828125 C-58.29257812 38.75899658 -58.46015625 37.77971191 -58.6328125 36.77075195 C-58.98775517 34.09239801 -59.25408858 31.69202716 -59 29 C-56.96714436 26.96104884 -55.11253206 25.36922774 -52.8125 23.6875 C-52.17900635 23.20966064 -51.5455127 22.73182129 -50.89282227 22.23950195 C-36.80843387 11.77736393 -18.19909128 -0.70518088 0 0 Z " fill="#24D6F4" transform="translate(472,406)"/>
<path d="M0 0 C0.66 0.33 1.32 0.66 2 1 C1.55269531 1.58265625 1.10539062 2.1653125 0.64453125 2.765625 C-9.32654382 16.28716817 -12.28248375 29.46742313 -11 46 C-8.82090568 58.378831 -2.08271985 70.32871716 8 78 C18.88496891 84.44186464 28.40815439 87.35078482 41 87.125 C41.96550781 87.11597656 42.93101562 87.10695313 43.92578125 87.09765625 C46.28412099 87.07430635 48.64192286 87.04156047 51 87 C51.33 86.34 51.66 85.68 52 85 C53.75 84.359375 53.75 84.359375 56 83.75 C66.53985587 80.35862682 73.56211165 72.81325842 81 65 C81.66 65.33 82.32 65.66 83 66 C82.67 66.66 82.34 67.32 82 68 C81.34 68 80.68 68 80 68 C79.773125 68.55816406 79.54625 69.11632812 79.3125 69.69140625 C73.56333405 79.8037785 61.93813548 85.73685888 51.1875 88.8125 C37.31411925 91.89154114 22.27958503 90.02980916 10.046875 82.46484375 C-2.88725045 73.20855168 -9.83313211 61.95167764 -13.609375 46.5078125 C-15.80190266 32.43178494 -12.2780682 20.8745402 -7 8 C-6.34 8 -5.68 8 -5 8 C-4.9175 7.4225 -4.835 6.845 -4.75 6.25 C-3.79468987 3.3840696 -2.21530827 2.0009236 0 0 Z " fill="#03B7D7" transform="translate(310,675)"/>
<path d="M0 0 C1.0958882 3.33396973 0.86492252 5.5943292 0.125 9 C-9.06568838 51.4583914 0.2658218 101.39094191 23 138 C23.73863281 139.07894531 24.47726563 140.15789062 25.23828125 141.26953125 C27 144 27 144 27 146 C27.66 146 28.32 146 29 146 C29.88476944 147.30945878 30.76050276 148.62544818 31.60546875 149.9609375 C36.45743072 157.05540291 42.3751745 163.50981673 48 170 C45 170 45 170 43.08984375 168.26953125 C9.53669898 129.96657651 -7.92178544 83.66911755 -4.84326172 32.38916016 C-4.09363753 21.36719222 -3.01734322 10.66127939 0 0 Z " fill="#05B2D1" transform="translate(178,668)"/>
<path d="M0 0 C2.08793238 1.86462672 4.15632691 3.74802748 6.21533203 5.64453125 C6.86405273 6.23991699 7.51277344 6.83530273 8.18115234 7.44873047 C9.08559082 8.29975342 9.08559082 8.29975342 10.00830078 9.16796875 C10.54350342 9.66989746 11.07870605 10.17182617 11.63012695 10.68896484 C13.16947782 12.42970852 14.07903917 14.15723225 15.02783203 16.26953125 C11.3364169 14.37108918 9.20606879 12.29502545 6.65673828 9.06640625 C2.93567118 4.96163199 -1.64691407 1.70740289 -5.97216797 -1.73046875 C-6.75591797 -2.39175781 -7.53966797 -3.05304688 -8.34716797 -3.734375 C-15.70590648 -9.88737426 -23.7593043 -14.81707662 -31.97216797 -19.73046875 C-33.29667969 -20.52517578 -33.29667969 -20.52517578 -34.64794922 -21.3359375 C-39.8951518 -24.36496208 -45.31386442 -26.58948903 -50.97216797 -28.73046875 C-52.11169922 -29.19453125 -53.25123047 -29.65859375 -54.42529297 -30.13671875 C-83.30347553 -41.73361646 -116.6990044 -45.59681478 -147.29248047 -39.38671875 C-150.62133868 -38.79303703 -153.60294542 -38.60451651 -156.97216797 -38.73046875 C-153.05318283 -41.1510184 -148.81704791 -41.5977152 -144.34716797 -42.29296875 C-143.13275024 -42.48693237 -143.13275024 -42.48693237 -141.89379883 -42.68481445 C-91.03417687 -50.6604931 -38.49166974 -33.77431977 0 0 Z " fill="#02B3D2" transform="translate(788.97216796875,169.73046875)"/>
<path d="M0 0 C3.70021964 1.55888883 6.1212228 3.85760407 9 6.625 C15.1276758 12.29968902 21.98555318 18.32851773 30 21 C31.01285208 21.98698058 32.01222572 22.98792196 33 24 C43.1218012 30.58434645 54.55693101 35.28616446 66 39 C66.69673828 39.22671387 67.39347656 39.45342773 68.11132812 39.68701172 C98.41073498 49.30837822 133.3513299 50.95508362 164.01171875 41.875 C167.14895017 40.95638583 169.74928947 40.84142875 173 41 C169.67721472 43.21519019 166.56446333 44.06105518 162.75 45 C161.81414062 45.2475 161.81414062 45.2475 160.859375 45.5 C148.14956493 48.67745252 135.48051716 49.30577151 122.45703125 49.20581055 C120.00249783 49.18751861 117.54834475 49.1853022 115.09375 49.18554688 C105.35635772 49.16321676 95.70663386 48.78802923 86 48 C86 47.34 86 46.68 86 46 C84.85015625 45.88140625 83.7003125 45.7628125 82.515625 45.640625 C78.11378683 45.08700771 73.9903553 44.03113489 69.75 42.75 C69.0163623 42.53255127 68.28272461 42.31510254 67.52685547 42.09106445 C61.957023 40.39629435 56.62738334 38.32019441 51.3203125 35.91796875 C48.95094637 34.81606036 48.95094637 34.81606036 46 35 C45.67 34.34 45.34 33.68 45 33 C43.71279171 32.32444388 42.39260191 31.71160905 41.0625 31.125 C26.30348687 23.96847133 10.83656042 13.37951439 0 1 C0 0.67 0 0.34 0 0 Z " fill="#03B1D1" transform="translate(226,839)"/>
<path d="M0 0 C11.02108551 11.02108551 11.43175714 40.31447356 12 55 C12.04125 55.99386719 12.0825 56.98773438 12.125 58.01171875 C12.83739064 92.78528706 3.6099322 126.67525835 -15 156 C-15.33 155.34 -15.66 154.68 -16 154 C-15.12304688 151.99487305 -15.12304688 151.99487305 -13.71875 149.51171875 C-13.20957031 148.58842773 -12.70039062 147.66513672 -12.17578125 146.71386719 C-11.62277344 145.71516602 -11.06976562 144.71646484 -10.5 143.6875 C-1.50346828 126.9159936 3.75265587 109.70080706 7 91 C7.22558594 89.77152344 7.45117188 88.54304688 7.68359375 87.27734375 C11.21720159 64.4916656 11.17654246 37.61308646 3.5 15.625 C1.72212726 10.52602488 0.84548266 5.32156736 0 0 Z " fill="#05B1D0" transform="translate(840,245)"/>
<path d="M0 0 C0.495 0.99 0.495 0.99 1 2 C0.53204073 2.39745706 0.06408146 2.79491411 -0.4180584 3.20441532 C-5.99809793 8.00766809 -11.23865172 13.09058347 -16.44189453 18.29663086 C-17.35026062 19.20163834 -18.25862671 20.10664581 -19.19451904 21.03907776 C-21.66372246 23.49952437 -24.1297476 25.96313186 -26.59489679 28.42763972 C-28.13953844 29.97156658 -29.68489167 31.51477752 -31.23049545 33.05774117 C-36.63453802 38.4525607 -42.0360206 43.84992795 -47.43505859 49.24975586 C-52.44970309 54.26500162 -57.46990601 59.27463526 -62.49273217 64.28168577 C-66.82265581 68.59849888 -71.14867958 72.91919436 -75.47173393 77.2428866 C-78.04608404 79.81749049 -80.6219296 82.39055104 -83.20172501 84.95969963 C-86.07909479 87.82551499 -88.94830678 90.69936873 -91.81689453 93.57397461 C-93.08413864 94.83278946 -93.08413864 94.83278946 -94.37698364 96.11703491 C-98.53670203 100.29890606 -102.30204891 104.45994974 -105.63192558 109.33724308 C-107.94755378 112.15165636 -110.74567443 113.43792373 -114 115 C-113.1875 113.0625 -113.1875 113.0625 -112 111 C-110.515 110.505 -110.515 110.505 -109 110 C-108.31422074 108.67639544 -107.65097935 107.34106231 -107 106 C-105.64616545 104.46696608 -104.2334674 102.98520552 -102.78674316 101.539505 C-101.46172539 100.2081955 -101.46172539 100.2081955 -100.10993958 98.84999084 C-99.12872791 97.87426226 -98.14741658 96.8986339 -97.16601562 95.9230957 C-96.13407357 94.89008048 -95.10256467 93.8566324 -94.07145691 92.82278442 C-91.27237797 90.01886036 -88.46709245 87.22122258 -85.66052055 84.42480111 C-82.72600283 81.49906666 -79.79675811 78.56806168 -76.86682129 75.63774109 C-71.94733235 70.7191885 -67.02398648 65.8045237 -62.09814453 60.89233398 C-56.39850563 55.20843336 -50.70412308 49.51931016 -45.01271486 43.82716876 C-39.5412404 38.35508458 -34.06691687 32.8858605 -28.59098816 27.41823387 C-26.25850664 25.08928797 -23.92688087 22.75949022 -21.59590149 20.42904091 C-18.85354789 17.68768971 -16.10866562 14.94889568 -13.36178017 12.21208572 C-12.35229016 11.20552335 -11.34365123 10.19810662 -10.3359127 9.18979073 C-8.96400507 7.81739444 -7.58872533 6.4483715 -6.21325684 5.07954407 C-5.05845951 3.92726051 -5.05845951 3.92726051 -3.88033295 2.75169849 C-2 1 -2 1 0 0 Z " fill="#02B3D3" transform="translate(556,172)"/>
<path d="M0 0 C-1.66666667 1.66666667 -3.33333333 3.33333333 -5 5 C-5.09674162 7.65434816 -5.08345658 10.22532323 -5 12.875 C-4.58963651 44.04069741 -12.00623726 74.66676568 -27 102 C-27.62261719 103.13695312 -28.24523437 104.27390625 -28.88671875 105.4453125 C-31.87226093 110.71696398 -34.9025026 115.53000284 -39 120 C-39 116.15179691 -37.68509044 114.67747945 -35.5625 111.5 C-33.64328739 108.61536528 -32.09699554 106.29098663 -31 103 C-30.34 103 -29.68 103 -29 103 C-28.75765625 102.3709375 -28.5153125 101.741875 -28.265625 101.09375 C-27.23969577 98.585923 -26.16342809 96.12397897 -25.046875 93.65625 C-13.31135403 67.48055721 -8.42304021 41.81450964 -7.4375 13.25 C-7.37272461 11.47109375 -7.37272461 11.47109375 -7.30664062 9.65625 C-7.20193082 6.77091324 -7.09975479 3.88551158 -7 1 C-4.53721199 -0.231394 -2.7204945 -0.07159196 0 0 Z " fill="#04B3D2" transform="translate(630,592)"/>
<path d="M0 0 C0.495 0.99 0.495 0.99 1 2 C-3.99440517 9.26979321 -9.34812579 15.7701537 -15.38671875 22.17578125 C-17.26035342 24.20065101 -18.98927264 26.20874222 -20.70703125 28.35546875 C-21.46371094 29.22816406 -22.22039063 30.10085938 -23 31 C-23.66 31 -24.32 31 -25 31 C-25.226875 31.556875 -25.45375 32.11375 -25.6875 32.6875 C-27.37377267 35.65855185 -29.530354 37.64522125 -32 40 C-32.886875 40.928125 -33.77375 41.85625 -34.6875 42.8125 C-37 45 -37 45 -39 45 C-39.36585709 45.8538327 -39.36585709 45.8538327 -39.73910522 46.72491455 C-41.23097261 49.41675359 -42.99108734 51.23090554 -45.17431641 53.40136719 C-46.03505768 54.2619574 -46.89579895 55.12254761 -47.78262329 56.00921631 C-49.1779982 57.38910736 -49.1779982 57.38910736 -50.6015625 58.796875 C-51.56321086 59.75479097 -52.52441694 60.71315114 -53.48519897 61.67193604 C-56.00923282 64.18835125 -58.53921591 66.69870107 -61.07049561 69.20782471 C-63.6547919 71.77162441 -66.23340199 74.34112918 -68.8125 76.91015625 C-73.86945697 81.94569457 -78.93272256 86.9748456 -84 92 C-84 89 -84 89 -82.43916321 87.07839966 C-81.70811874 86.35401703 -80.97707428 85.6296344 -80.22387695 84.88330078 C-79.39914383 84.05879425 -78.57441071 83.23428772 -77.72468567 82.38479614 C-76.82167221 81.49726654 -75.91865875 80.60973694 -74.98828125 79.6953125 C-74.06790573 78.77918182 -73.14753021 77.86305115 -72.19926453 76.91915894 C-69.74667961 74.47803981 -67.28523304 72.0460486 -64.82183838 69.61584473 C-62.33229004 67.15680037 -59.85102819 64.68942812 -57.36914062 62.22265625 C-53.72497416 58.60235694 -50.07633223 54.98663698 -46.4230957 51.37548828 C-39.54085708 44.60066104 -39.54085708 44.60066104 -33 37.5 C-29.30575516 33.26949381 -25.37504406 29.33853846 -21.3515625 25.421875 C-11.55858206 16.79545069 -11.55858206 16.79545069 -5.5078125 5.80859375 C-5.34023438 5.21175781 -5.17265625 4.61492187 -5 4 C-4.01 3.67 -3.02 3.34 -2 3 C-1.34 2.01 -0.68 1.02 0 0 Z " fill="#03B2D0" transform="translate(821,404)"/>
<path d="M0 0 C0.99 0.495 0.99 0.495 2 1 C1.04882866 2.1725131 0.08882991 3.33787015 -0.875 4.5 C-1.40867187 5.1496875 -1.94234375 5.799375 -2.4921875 6.46875 C-2.98976563 6.9740625 -3.48734375 7.479375 -4 8 C-4.66 8 -5.32 8 -6 8 C-6.33 8.99 -6.66 9.98 -7 11 C-8.6222454 12.70993434 -10.29413425 14.37347684 -12 16 C-12.721875 16.763125 -13.44375 17.52625 -14.1875 18.3125 C-16 20 -16 20 -18 20 C-18.2475 20.5775 -18.495 21.155 -18.75 21.75 C-20.18299988 24.32939979 -21.78424676 26.06121592 -24 28 C-24.66 28 -25.32 28 -26 28 C-26.21269531 28.54140625 -26.42539062 29.0828125 -26.64453125 29.640625 C-28.49019433 32.85324891 -31.03964611 35.20549275 -33.6875 37.75 C-37.10339104 41.09311573 -40.46653253 44.4152993 -43.5625 48.0625 C-46.43403689 51.41966445 -49.46051163 54.60638118 -52.5625 57.75 C-53.45066406 58.65234375 -54.33882812 59.5546875 -55.25390625 60.484375 C-58.05304537 63.04859349 -60.79624605 64.98648063 -64 67 C-62.56438314 63.81293058 -60.79733671 61.37830895 -58.5 58.75 C-57.8915625 58.04359375 -57.283125 57.3371875 -56.65625 56.609375 C-55 55 -55 55 -53 55 C-52.67 54.01 -52.34 53.02 -52 52 C-51.34 52 -50.68 52 -50 52 C-50 51.34 -50 50.68 -50 50 C-47.18653533 46.87392815 -44.71997361 44.8599868 -41 43 C-40.67 42.01 -40.34 41.02 -40 40 C-38.5390625 38.59765625 -38.5390625 38.59765625 -36.625 37.0625 C-32.74959349 33.77077993 -29.39335004 30.20180052 -26.00708008 26.4152832 C-20.80332421 20.66978091 -15.30326054 15.21862547 -9.8125 9.75 C-9.32899078 9.26835388 -8.84548157 8.78670776 -8.34732056 8.29046631 C-5.56823473 5.52358989 -2.78556569 2.76035169 0 0 Z " fill="#03BBDB" transform="translate(651,402)"/>
<path d="M0 0 C0 3.72410741 -1.25208918 4.60072128 -3.78546143 7.14761353 C-4.34336365 7.69315887 -4.90126587 8.23870422 -5.47607422 8.80078125 C-6.05807587 9.38161469 -6.64007751 9.96244812 -7.23971558 10.56088257 C-9.1711728 12.48513428 -11.11292418 14.39865341 -13.0546875 16.3125 C-14.39583418 17.64551312 -15.73624861 18.97926334 -17.07595825 20.3137207 C-20.60996427 23.83057902 -24.15243371 27.338783 -27.69714355 30.84484863 C-33.36642888 36.45502925 -39.02318348 42.07783718 -44.6793251 47.70126343 C-46.65866698 49.66662792 -48.6417689 51.62813556 -50.62545776 53.58911133 C-51.8387671 54.79239676 -53.05199768 55.99576162 -54.26513672 57.19921875 C-54.81899048 57.7447641 -55.37284424 58.29030945 -55.94348145 58.85238647 C-58.24933682 61.14479182 -60.18886124 63.28329186 -62 66 C-62.66 66 -63.32 66 -64 66 C-64.66 67.32 -65.32 68.64 -66 70 C-66.66 70 -67.32 70 -68 70 C-68.226875 70.53625 -68.45375 71.0725 -68.6875 71.625 C-72.08897221 77.78004495 -75.8527476 80.86610662 -82 84 C-80.55922954 80.63820226 -78.75249979 78.40843732 -76 76 C-75.34 76 -74.68 76 -74 76 C-73.72672788 75.40168838 -73.45345575 74.80337675 -73.17190266 74.18693447 C-72.03482304 72.06498467 -70.94411662 70.69717607 -69.2495575 69.00904846 C-68.69028564 68.44702728 -68.13101379 67.8850061 -67.55479431 67.30595398 C-66.94334061 66.70169083 -66.3318869 66.09742767 -65.7019043 65.47485352 C-65.05615448 64.82881165 -64.41040466 64.18276978 -63.74508667 63.51715088 C-61.6095039 61.38296107 -59.46692123 59.25594589 -57.32421875 57.12890625 C-55.83646234 55.64488221 -54.34914855 54.16041433 -52.86225891 52.67552185 C-48.94439148 48.7652908 -45.02056057 44.86109744 -41.09545898 40.95812988 C-37.11279498 36.9958577 -33.13571839 33.0279864 -29.15820312 29.06054688 C-22.72650528 22.64642787 -16.29139586 16.23575578 -9.85179138 9.82957458 C-6.56317783 6.55770336 -3.27869149 3.28181513 0 0 Z " fill="#03B5D5" transform="translate(475,656)"/>
<path d="M0 0 C0.92562744 -0.00604248 1.85125488 -0.01208496 2.80493164 -0.01831055 C11.60013386 0.1397617 19.19867937 2.42757868 27.125 6.1875 C28.05570313 6.62449219 28.98640625 7.06148438 29.9453125 7.51171875 C30.62335938 7.83785156 31.30140625 8.16398437 32 8.5 C32 9.16 32 9.82 32 10.5 C32.58652344 10.77070313 33.17304687 11.04140625 33.77734375 11.3203125 C38.55917808 13.85829838 43.17919112 17.85396184 46 22.5 C46 23.16 46 23.82 46 24.5 C46.66 24.5 47.32 24.5 48 24.5 C48.86366822 26.28710586 49.71568594 28.0798465 50.5625 29.875 C51.03816406 30.87273437 51.51382813 31.87046875 52.00390625 32.8984375 C52.33261719 33.75695312 52.66132812 34.61546875 53 35.5 C52.505 36.49 52.505 36.49 52 37.5 C51.63648438 36.78714844 51.27296875 36.07429688 50.8984375 35.33984375 C47.76567991 29.37153891 44.48051139 24.5139056 40 19.5 C40 18.84 40 18.18 40 17.5 C39.41347656 17.22800781 38.82695313 16.95601563 38.22265625 16.67578125 C36.04311667 15.52280864 34.34090291 14.24557711 32.4375 12.6875 C21.90443523 4.69487756 9.14249211 1.14280147 -4 2.5 C-13.42393957 4.27830272 -20.59849892 7.44299178 -28 13.5 C-28.63035156 13.99242187 -29.26070312 14.48484375 -29.91015625 14.9921875 C-32.90351302 17.36380279 -32.90351302 17.36380279 -35 20.5 C-35.66 20.5 -36.32 20.5 -37 20.5 C-35.49359964 16.66552636 -33.16324414 15.03059531 -30 12.5 C-29.71125 11.819375 -29.4225 11.13875 -29.125 10.4375 C-27.63001669 7.86280653 -25.78879275 7.34933373 -23.06640625 6.359375 C-20.95329343 5.56175358 -20.95329343 5.56175358 -19.08984375 4.203125 C-12.9416556 0.23079291 -7.1223274 0.02075789 0 0 Z " fill="#04B7D8" transform="translate(669,255.5)"/>
<path d="M0 0 C0.99 0.495 0.99 0.495 2 1 C1.51120361 1.4532666 1.02240723 1.9065332 0.51879883 2.37353516 C-1.72011589 4.45364468 -3.95382645 6.53926395 -6.1875 8.625 C-6.95642578 9.33785156 -7.72535156 10.05070312 -8.51757812 10.78515625 C-12.66520929 14.66577254 -16.4710178 18.55041375 -20 23 C-25.73232268 29.77573423 -31.71635473 36.20136849 -38.47265625 41.96875 C-44.437525 47.15833118 -49.93456316 52.82822128 -55.5 58.4375 C-56.61955632 59.5620833 -57.73934629 60.68643405 -58.859375 61.81054688 C-61.57561534 64.53769344 -64.28868292 67.26795907 -67 70 C-67 67 -67 67 -65.71595764 65.36192322 C-65.1149675 64.77061111 -64.51397736 64.17929901 -63.89477539 63.57006836 C-63.21729752 62.89604477 -62.53981964 62.22202118 -61.84181213 61.52757263 C-61.10124069 60.8056221 -60.36066925 60.08367157 -59.59765625 59.33984375 C-58.8453624 58.59416641 -58.09306854 57.84848907 -57.31797791 57.08021545 C-54.90644208 54.69214766 -52.48500393 52.31443658 -50.0625 49.9375 C-47.64529963 47.55531414 -45.23022158 45.17103106 -42.81773376 42.78407288 C-41.31399961 41.29736733 -39.80720202 39.81375296 -38.2971344 38.33348083 C-37.27618935 37.32717369 -37.27618935 37.32717369 -36.23461914 36.30053711 C-35.33194054 35.41476234 -35.33194054 35.41476234 -34.411026 34.51109314 C-32.89974971 33.03581121 -32.89974971 33.03581121 -32 31 C-31.34 31 -30.68 31 -30 31 C-29.505 29.515 -29.505 29.515 -29 28 C-27.90138455 26.83499649 -26.79172575 25.67892413 -25.63623047 24.5703125 C-23.65028024 22.66436922 -21.71974886 20.70804481 -19.78515625 18.75 C-18.21099862 17.1666059 -16.63677827 15.58327415 -15.0625 14 C-14.27681641 13.2059375 -13.49113281 12.411875 -12.68164062 11.59375 C-8.60645551 7.5015139 -4.51923843 3.59798116 0 0 Z " fill="#03B5D4" transform="translate(365,441)"/>
<path d="M0 0 C0.99 0 1.98 0 3 0 C3 0.66 3 1.32 3 2 C3.7425 2.0825 4.485 2.165 5.25 2.25 C8.5442086 3.14842053 9.66070899 4.58524799 12 7 C14.1381966 7.7872678 14.1381966 7.7872678 16 8 C16 8.66 16 9.32 16 10 C18.88019276 11.46652017 21.79308515 12.82047874 24.75 14.125 C25.54921875 14.47820313 26.3484375 14.83140625 27.171875 15.1953125 C27.77515625 15.46085938 28.3784375 15.72640625 29 16 C29 16.66 29 17.32 29 18 C29.66 18.0825 30.32 18.165 31 18.25 C34.33536435 19.08384109 36.99207296 20.44623137 40.02734375 22.0234375 C42.60901379 23.30149197 45.25271208 24.14147253 48 25 C49.27335737 25.4724183 50.54402424 25.95212663 51.8125 26.4375 C56.16614189 28.08801027 60.57439121 29.55553046 65 31 C65 31.33 65 31.66 65 32 C47.10236723 31.36079883 29.32292859 20.36828799 14.375 11.3125 C13.62879395 10.86108643 12.88258789 10.40967285 12.11376953 9.94458008 C7.76614961 7.25603716 3.80177866 4.42399939 0 1 C0 0.67 0 0.34 0 0 Z " fill="#04B4D5" transform="translate(448,568)"/>
<path d="M0 0 C17.55978572 7.37511 32.29735861 23.47232227 43.3125 38.5625 C44.14890015 39.70537476 44.14890015 39.70537476 45.00219727 40.87133789 C49.66933394 47.48685513 49.66933394 47.48685513 50 52 C49.34 52 48.68 52 48 52 C47.74347656 51.48953125 47.48695313 50.9790625 47.22265625 50.453125 C42.40994025 41.31382594 36.3173883 33.26860572 29 26 C28.34 25.01 27.68 24.02 27 23 C26.401875 22.731875 25.80375 22.46375 25.1875 22.1875 C22.9243694 20.95894339 21.97056306 19.91430379 20.375 17.9375 C18.32880603 14.99175287 18.32880603 14.99175287 16 14 C16 13.34 16 12.68 16 12 C15.46890625 11.7525 14.9378125 11.505 14.390625 11.25 C11.38158143 9.67664388 8.58769167 7.86437713 5.75 6 C4.67234375 5.29875 3.5946875 4.5975 2.484375 3.875 C1.66453125 3.25625 0.8446875 2.6375 0 2 C0 1.34 0 0.68 0 0 Z " fill="#02B3D5" transform="translate(536,418)"/>
<path d="M0 0 C0.66 0.33 1.32 0.66 2 1 C0.5836449 4.33646536 -1.08171998 6.15544293 -3.875 8.4375 C-7.04488618 11.03487822 -9.49171103 13.75867231 -12 17 C-12.57878906 17.67417969 -13.15757812 18.34835937 -13.75390625 19.04296875 C-18.36579782 24.51149677 -22.19800627 30.2846888 -25.9375 36.375 C-26.42226807 37.16028076 -26.90703613 37.94556152 -27.40649414 38.75463867 C-27.85887451 39.50334229 -28.31125488 40.2520459 -28.77734375 41.0234375 C-29.18202881 41.69294434 -29.58671387 42.36245117 -30.00366211 43.05224609 C-31.01390232 45.02717783 -31.55342517 46.83385544 -32 49 C-32.66 49 -33.32 49 -34 49 C-34.25523437 49.80695313 -34.51046875 50.61390625 -34.7734375 51.4453125 C-36.22866973 55.66270526 -37.90864932 59.75854917 -39.625 63.875 C-40.11226563 65.050625 -40.11226563 65.050625 -40.609375 66.25 C-41.40440762 68.16743162 -42.20194851 70.0838229 -43 72 C-44.11521305 68.71847987 -43.94298451 67.11018088 -42.48828125 63.98828125 C-42.14216797 63.22966797 -41.79605469 62.47105469 -41.43945312 61.68945312 C-40.88161133 60.51286133 -40.88161133 60.51286133 -40.3125 59.3125 C-39.95994141 58.54744141 -39.60738281 57.78238281 -39.24414062 56.99414062 C-38.52962228 55.44362276 -37.81018307 53.89536345 -37.0859375 52.34936523 C-35.9877211 49.97343529 -34.93878693 47.57975155 -33.89453125 45.1796875 C-32.58250731 42.21901673 -31.22901278 39.47977606 -29.375 36.8125 C-28.86195313 36.07386719 -28.34890625 35.33523438 -27.8203125 34.57421875 C-27.21960938 33.72472656 -26.61890625 32.87523437 -26 32 C-24.88238281 30.36998047 -24.88238281 30.36998047 -23.7421875 28.70703125 C-18.94839411 21.7803292 -13.92885269 15.43047363 -8.12890625 9.3046875 C-5.98441934 7.07655559 -5.98441934 7.07655559 -4.33984375 4.6953125 C-3.89769531 4.13585937 -3.45554687 3.57640625 -3 3 C-2.34 3 -1.68 3 -1 3 C-0.67 2.01 -0.34 1.02 0 0 Z " fill="#03B2D2" transform="translate(432,295)"/>
<path d="M0 0 C0.33 0 0.66 0 1 0 C1.46206227 7.27748078 0.3667304 11.61256426 -3 18 C-3.5053125 19.11761719 -4.010625 20.23523438 -4.53125 21.38671875 C-11.07622125 35.03296614 -22.11477705 44.79221878 -33 55 C-33.66 54.67 -34.32 54.34 -35 54 C-31.6449386 49.99029248 -28.21462198 46.17010897 -24.44140625 42.55078125 C-11.07875552 29.71975204 -5.05176686 17.69043634 0 0 Z " fill="#04B7D8" transform="translate(511,601)"/>
<path d="M0 0 C0.0271045 3.04172719 0.04688964 6.08320997 0.0625 9.125 C0.07087891 9.9809375 0.07925781 10.836875 0.08789062 11.71875 C0.10538306 16.26678411 -0.06807642 20.52383164 -1 25 C-1.33 25 -1.66 25 -2 25 C-2 17.41 -2 9.82 -2 2 C-4.43375 2.33 -6.8675 2.66 -9.375 3 C-15.82223826 3.8037671 -22.19043605 4.19290634 -28.6875 4.1875 C-29.79907471 4.1884668 -29.79907471 4.1884668 -30.93310547 4.18945312 C-35.05111565 4.14813216 -38.95985929 3.79530329 -43 3 C-43.33 3.99 -43.66 4.98 -44 6 C-44 4.35 -44 2.7 -44 1 C-43.07251953 1.00523682 -42.14503906 1.01047363 -41.18945312 1.01586914 C-37.71548834 1.03301327 -34.24156918 1.04549965 -30.76757812 1.05493164 C-29.27017503 1.05992943 -27.77277673 1.0667299 -26.27539062 1.07543945 C-24.11066495 1.08770623 -21.94600435 1.09327397 -19.78125 1.09765625 C-18.48251953 1.10289307 -17.18378906 1.10812988 -15.84570312 1.11352539 C-10.52028139 0.95631862 -5.326039 0 0 0 Z " fill="#A1F5FD" transform="translate(589,605)"/>
<path d="M0 0 C0.495 0.99 0.495 0.99 1 2 C-3.07789615 6.85728926 -7.35900185 11.48787426 -11.8125 16 C-12.29243408 16.49282471 -12.77236816 16.98564941 -13.2668457 17.4934082 C-14.47235051 18.70233107 -15.73236351 19.85639427 -17 21 C-17.66 21 -18.32 21 -19 21 C-19.25974609 21.58426758 -19.51949219 22.16853516 -19.78710938 22.77050781 C-21.084656 25.15561164 -22.49341122 26.75190637 -24.40625 28.671875 C-25.39818359 29.66767578 -25.39818359 29.66767578 -26.41015625 30.68359375 C-27.09980469 31.36550781 -27.78945313 32.04742187 -28.5 32.75 C-29.18964844 33.44738281 -29.87929688 34.14476562 -30.58984375 34.86328125 C-31.25113281 35.52199219 -31.91242187 36.18070312 -32.59375 36.859375 C-33.19896484 37.46233398 -33.80417969 38.06529297 -34.42773438 38.68652344 C-36 40 -36 40 -38 40 C-36.59490901 36.81740149 -34.93078658 34.68651534 -32.46826172 32.24121094 C-31.74766571 31.52076599 -31.0270697 30.80032104 -30.28463745 30.05804443 C-29.11893723 28.90782806 -29.11893723 28.90782806 -27.9296875 27.734375 C-27.13345978 26.94097717 -26.33723206 26.14757935 -25.51687622 25.33013916 C-22.97424052 22.79869297 -20.42473652 20.27429197 -17.875 17.75 C-16.14928247 16.03431383 -14.42401645 14.31817338 -12.69921875 12.6015625 C-8.47136968 8.39575752 -4.23786131 4.19571493 0 0 Z " fill="#03BBDB" transform="translate(713,340)"/>
<path d="M0 0 C0 3 0 3 -1.89819336 5.25895691 C-2.78643799 6.1405397 -3.67468262 7.0221225 -4.58984375 7.93041992 C-5.07752228 8.41853653 -5.56520081 8.90665314 -6.06765747 9.40956116 C-7.68393004 11.02374105 -9.31057485 12.62703192 -10.9375 14.23046875 C-12.05916419 15.3465387 -13.18016855 16.46327215 -14.30053711 17.5806427 C-17.25315553 20.52179888 -20.2146718 23.45383593 -23.17810059 26.38409424 C-26.19965665 29.37497923 -29.21275304 32.37435962 -32.2265625 35.37304688 C-38.14277266 41.25706855 -44.06840515 47.13148794 -50 53 C-50 50 -50 50 -48.51879883 48.17822266 C-47.83841553 47.5135498 -47.15803223 46.84887695 -46.45703125 46.1640625 C-45.71259766 45.42929687 -44.96816406 44.69453125 -44.20117188 43.9375 C-43.41291016 43.174375 -42.62464844 42.41125 -41.8125 41.625 C-41.04357422 40.86960937 -40.27464844 40.11421875 -39.48242188 39.3359375 C-37.98082268 37.86140576 -36.47648021 36.38966179 -34.96923828 34.92089844 C-32.62519651 32.63439699 -30.31011915 30.32076486 -28 28 C-26.51067905 26.51015433 -25.0210616 25.02060503 -23.53125 23.53125 C-22.71269531 22.71269531 -21.89414062 21.89414062 -21.05078125 21.05078125 C-14.03385417 14.03385417 -7.01692708 7.01692708 0 0 Z " fill="#02B1CF" transform="translate(574,729)"/>
<path d="M0 0 C0.495 0.99 0.495 0.99 1 2 C0.26121661 3.1323975 -0.49158645 4.2556547 -1.25 5.375 C-1.87648438 6.31472656 -1.87648438 6.31472656 -2.515625 7.2734375 C-4 9 -4 9 -5.85409546 9.88441467 C-8.30123773 11.15660361 -9.87223662 12.62499849 -11.81884766 14.57592773 C-12.91986313 15.67232826 -12.91986313 15.67232826 -14.04312134 16.7908783 C-15.21673721 17.97527245 -15.21673721 17.97527245 -16.4140625 19.18359375 C-17.22491302 19.9949025 -18.03576355 20.80621124 -18.8711853 21.6421051 C-20.58316258 23.35710162 -22.2927106 25.07452606 -24 26.79418945 C-26.61667155 29.42911346 -29.24125253 32.05595162 -31.8671875 34.68164062 C-33.52911852 36.34848718 -35.19059247 38.0157896 -36.8515625 39.68359375 C-37.63802155 40.47116562 -38.42448059 41.25873749 -39.23477173 42.07017517 C-39.96247772 42.80426102 -40.69018372 43.53834686 -41.43994141 44.29467773 C-42.08073639 44.93928452 -42.72153137 45.5838913 -43.38174438 46.24803162 C-45.18724722 48.11069188 -45.18724722 48.11069188 -47 51 C-47.66 50.67 -48.32 50.34 -49 50 C-43.6715161 43.70268212 -37.97685843 37.84500324 -32.12890625 32.03125 C-31.206577 31.11033569 -30.28424774 30.18942139 -29.33396912 29.24060059 C-26.90811523 26.81852446 -24.47927148 24.39946921 -22.04974365 21.9810791 C-19.56060884 19.50226163 -17.07438105 17.02053203 -14.58789062 14.5390625 C-9.72806542 9.68989076 -4.86506822 4.84391137 0 0 Z " fill="#A5F5FC" transform="translate(324,532)"/>
<path d="M0 0 C0 3 0 3 -1.39120483 4.76542664 C-2.04247345 5.41606583 -2.69374207 6.06670502 -3.36474609 6.73706055 C-4.09905853 7.47760178 -4.83337097 8.21814301 -5.5899353 8.98112488 C-6.79451889 10.17189384 -6.79451889 10.17189384 -8.0234375 11.38671875 C-8.83994781 12.20372757 -9.65645813 13.02073639 -10.49771118 13.86250305 C-12.22763102 15.5900795 -13.96125194 17.31395648 -15.69824219 19.03442383 C-18.36567707 21.67825955 -21.01954295 24.33516298 -23.671875 26.99414062 C-25.35077133 28.66746085 -27.03043326 30.34001334 -28.7109375 32.01171875 C-29.50994476 32.81163742 -30.30895203 33.61155609 -31.13217163 34.43571472 C-31.87278839 35.16679947 -32.61340515 35.89788422 -33.37646484 36.65112305 C-34.02932465 37.29937546 -34.68218445 37.94762787 -35.35482788 38.61552429 C-37 40 -37 40 -39 40 C-37.67962823 36.43499621 -35.51440239 34.61821066 -32.58203125 32.28515625 C-29.36177522 29.66919518 -26.58733016 26.7341627 -24 23.5 C-21.8319948 20.7899935 -19.48335462 18.42278499 -17 16 C-16.195625 15.175 -15.39125 14.35 -14.5625 13.5 C-12.66365524 11.64746853 -10.81292181 10.01942932 -8.75 8.375 C-5.79262734 6.23003634 -5.79262734 6.23003634 -5 3 C-2.4375 1.3125 -2.4375 1.3125 0 0 Z " fill="#05B9D9" transform="translate(630,277)"/>
<path d="M0 0 C0.66 0.33 1.32 0.66 2 1 C-11.96712361 13.95311697 -32.88107825 26.94832595 -52 30 C-52 29.34 -52 28.68 -52 28 C-51.34515625 27.76925781 -50.6903125 27.53851562 -50.015625 27.30078125 C-31.33133833 20.62405169 -15.71904339 11.97641401 0 0 Z " fill="#04B1D0" transform="translate(452,850)"/>
<path d="M0 0 C1.28679288 3.86037864 0.37681915 5.17652612 -0.9375 9 C-5.43278519 23.7613148 -3.62176329 40.85337879 -2 56 C-2.33 54.68 -2.66 53.36 -3 52 C-3.66 52 -4.32 52 -5 52 C-8.00029424 34.60313258 -6.8546756 16.32065619 0 0 Z " fill="#A3F2FB" transform="translate(268,680)"/>
<path d="M0 0 C-0.86238281 0.268125 -1.72476563 0.53625 -2.61328125 0.8125 C-10.27865282 3.2731895 -17.75822475 6.01950135 -25.1875 9.125 C-26.00065674 9.46144531 -26.81381348 9.79789063 -27.65161133 10.14453125 C-31.48803661 11.77256873 -34.73432098 13.37436497 -38 16 C-39.60766651 16.84627989 -41.23397024 17.65788306 -42.875 18.4375 C-46.83026682 20.36832552 -50.41537004 22.45302608 -54 25 C-54.66 24.67 -55.32 24.34 -56 24 C-12.8372093 -5.13488372 -12.8372093 -5.13488372 0 0 Z " fill="#03B4D3" transform="translate(632,132)"/>
<path d="M0 0 C0 3.53164414 -0.40518651 3.78866691 -2.7890625 6.1875 C-3.39443848 6.79875732 -3.99981445 7.41001465 -4.62353516 8.03979492 C-5.28401855 8.6866626 -5.94450195 9.33353027 -6.625 10 C-7.63312744 10.99833862 -7.63312744 10.99833862 -8.66162109 12.0168457 C-15.04268214 18.23155456 -21.8866233 23.66037227 -29 29 C-30.67171015 30.32700442 -32.3402782 31.65803163 -34 33 C-34.66 32.67 -35.32 32.34 -36 32 C-34.44555348 30.53308542 -32.88107825 29.07679359 -31.3125 27.625 C-30.44238281 26.81289063 -29.57226562 26.00078125 -28.67578125 25.1640625 C-26.13628893 23.11022491 -24.07974134 22.0099332 -21 21 C-21 20.34 -21 19.68 -21 19 C-19.29651481 17.7641382 -17.58881388 16.53346465 -15.85546875 15.33984375 C-13.27515471 13.4765854 -11.1973067 11.30194035 -9 9 C-7.39854536 7.39312588 -5.79417122 5.7891582 -4.1875 4.1875 C-3.39730469 3.39730469 -2.60710938 2.60710938 -1.79296875 1.79296875 C-1.20128906 1.20128906 -0.60960937 0.60960937 0 0 Z " fill="#03B4D3" transform="translate(683,549)"/>
<path d="M0 0 C2.82625905 2.82625905 2.74476592 5.88135976 3.1875 9.6875 C3.28224609 10.38294922 3.37699219 11.07839844 3.47460938 11.79492188 C4.80237789 22.65018967 1.57209936 34.46202654 -4.8125 43.375 C-5.534375 44.24125 -6.25625 45.1075 -7 46 C-7 42.58702037 -6.19599725 41.09284403 -4.6875 38.0625 C1.34486468 25.08948845 1.45604134 13.91039493 0 0 Z " fill="#03B8D8" transform="translate(722,294)"/>
<path d="M0 0 C0.66 0.33 1.32 0.66 2 1 C-8 11 -8 11 -10.67578125 13.640625 C-13.11333482 16.04179038 -13.11333482 16.04179038 -15.5 19.0625 C-17.84038392 21.81245111 -20.15908348 23.7982897 -23 26 C-23.86625 26.9075 -24.7325 27.815 -25.625 28.75 C-28 31 -28 31 -31 31 C-20.77 20.77 -10.54 10.54 0 0 Z " fill="#ABF6FD" transform="translate(583,194)"/>
<path d="M0 0 C0.66 0.33 1.32 0.66 2 1 C-5.5922377 9.74444721 -13.76297253 17.86888881 -22 26 C-22.66 25.67 -23.32 25.34 -24 25 C-21.79776179 22.59850306 -19.58712559 20.20488935 -17.375 17.8125 C-16.75753906 17.13896484 -16.14007813 16.46542969 -15.50390625 15.77148438 C-11.86752916 11.84802489 -8.14596792 8.37462505 -4 5 C-2.62294236 3.36927384 -1.27277889 1.7133562 0 0 Z " fill="#02B2D1" transform="translate(497,806)"/>
<path d="M0 0 C0.66 0 1.32 0 2 0 C0.4608199 3.66752005 -1.75485452 5.98580573 -4.5703125 8.765625 C-5.46621094 9.65507813 -6.36210937 10.54453125 -7.28515625 11.4609375 C-8.22230469 12.38132812 -9.15945313 13.30171875 -10.125 14.25 C-11.07988637 15.19484856 -12.03431859 16.14015633 -12.98828125 17.0859375 C-15.32109087 19.39518338 -17.65844086 21.69963203 -20 24 C-20.66 23.67 -21.32 23.34 -22 23 C-21.21753906 22.22914063 -20.43507813 21.45828125 -19.62890625 20.6640625 C-18.60663943 19.65117427 -17.58451119 18.63814616 -16.5625 17.625 C-16.04623047 17.11710938 -15.52996094 16.60921875 -14.99804688 16.0859375 C-12.142867 13.31431064 -12.142867 13.31431064 -10 10 C-9.34 10 -8.68 10 -8 10 C-7.731875 9.236875 -7.46375 8.47375 -7.1875 7.6875 C-6.04204753 5.09516021 -5.23584819 3.69924463 -3 2 C-2.01 2 -1.02 2 0 2 C0 1.34 0 0.68 0 0 Z " fill="#05BCDC" transform="translate(344,640)"/>
<path d="M0 0 C0.66 0.33 1.32 0.66 2 1 C0.88200014 2.33920838 -0.24461897 3.67122556 -1.375 5 C-2.31472656 6.11375 -2.31472656 6.11375 -3.2734375 7.25 C-4.12808594 8.11625 -4.12808594 8.11625 -5 9 C-5.66 9 -6.32 9 -7 9 C-7.20625 9.556875 -7.4125 10.11375 -7.625 10.6875 C-9.51040088 13.85840149 -12.15359359 15.68729479 -15 18 C-15.66 18.99 -16.32 19.98 -17 21 C-17.66 21 -18.32 21 -19 21 C-17.54254576 17.63664406 -15.68882146 15.45465995 -13.0859375 12.890625 C-12.32539062 12.13652344 -11.56484375 11.38242187 -10.78125 10.60546875 C-9.9871875 9.82816406 -9.193125 9.05085938 -8.375 8.25 C-7.57320312 7.45722656 -6.77140625 6.66445313 -5.9453125 5.84765625 C-3.96797154 3.89385507 -1.98611091 1.94487897 0 0 Z " fill="#04BADA" transform="translate(672,381)"/>
<path d="M0 0 C0.66 0 1.32 0 2 0 C0.9601736 3.1194792 -0.17167763 4.14786318 -2.47265625 6.35546875 C-7.55275257 11.82534228 -11.44926604 18.46664952 -15 25 C-16 22 -16 22 -15.22265625 19.95703125 C-14.83980469 19.24933594 -14.45695312 18.54164063 -14.0625 17.8125 C-13.68222656 17.09707031 -13.30195313 16.38164062 -12.91015625 15.64453125 C-12.45962891 14.83048828 -12.45962891 14.83048828 -12 14 C-11.34 14 -10.68 14 -10 14 C-9.5978125 12.6696875 -9.5978125 12.6696875 -9.1875 11.3125 C-8.0530258 8.14791407 -7.05239744 5.6605152 -5 3 C-2.3125 2.1875 -2.3125 2.1875 0 2 C0 1.34 0 0.68 0 0 Z " fill="#03B8D9" transform="translate(525,381)"/>
<path d="M0 0 C3.08695396 2.71690901 5.04863308 6.10089449 7.1875 9.5625 C11.06042895 15.72481739 15.29558851 21.43674499 20 27 C19.67 27.66 19.34 28.32 19 29 C0 8.278125 0 8.278125 0 0 Z " fill="#04B4DC" transform="translate(430,495)"/>
<path d="M0 0 C0.66 0.33 1.32 0.66 2 1 C1.01 2.485 1.01 2.485 0 4 C-0.66 4 -1.32 4 -2 4 C-2.23847656 4.56332031 -2.47695313 5.12664063 -2.72265625 5.70703125 C-4.27791771 8.49889204 -6.17204424 10.43692408 -8.4375 12.6875 C-9.21996094 13.47511719 -10.00242187 14.26273438 -10.80859375 15.07421875 C-13 17 -13 17 -16 18 C-15.42655063 15.13275314 -15.1385485 14.1385485 -13 12 C-12.01 12 -11.02 12 -10 12 C-9.79375 11.46375 -9.5875 10.9275 -9.375 10.375 C-7.46749574 7.08021991 -4.95180616 4.40636372 -2 2 C-1.34 2 -0.68 2 0 2 C0 1.34 0 0.68 0 0 Z " fill="#04BBDB" transform="translate(400,584)"/>
<path d="M0 0 C0.5703125 1.90234375 0.5703125 1.90234375 1 4 C-0.50671781 6.09266362 -2.08350446 7.04707634 -4.328125 8.3125 C-7.16052277 10.1013828 -9.28153732 12.04974507 -11.625 14.4375 C-12.38039062 15.19933594 -13.13578125 15.96117187 -13.9140625 16.74609375 C-15.7687206 18.75009697 -17.41308468 20.78135087 -19 23 C-19.66 22.67 -20.32 22.34 -21 22 C-14.18743405 14.46214186 -7.25703551 7.11535803 0 0 Z " fill="#02B2D2" transform="translate(239,569)"/>
<path d="M0 0 C0.66 0 1.32 0 2 0 C0.81825732 4.13609939 -0.9760804 6.01542658 -4.35546875 8.60546875 C-6.17732878 10.15037143 -7.57020058 11.82501777 -9.0625 13.6875 C-11.42467478 16.55451953 -13.31793478 18.02533568 -17 19 C-13.09151881 14.30982258 -9.02043854 9.94933947 -4.63671875 5.69921875 C-2.91730963 4.08328716 -2.91730963 4.08328716 -2 2 C-1.34 2 -0.68 2 0 2 C0 1.34 0 0.68 0 0 Z " fill="#01B5D6" transform="translate(295,511)"/>
<path d="M0 0 C0 4.95901887 -4.04343722 7.99173113 -7.3125 11.4375 C-10.77682106 14.74068985 -14.37320568 17.8771771 -18 21 C-18.66 20.67 -19.32 20.34 -20 20 C-13.33333333 13.33333333 -6.66666667 6.66666667 0 0 Z " fill="#9AF3FD" transform="translate(490,287)"/>
<path d="M0 0 C0.66 0.33 1.32 0.66 2 1 C1.49210937 1.49628906 0.98421875 1.99257813 0.4609375 2.50390625 C-2.97312894 5.89295684 -6.30037808 9.2784898 -9.375 13 C-10.24125 13.99 -11.1075 14.98 -12 16 C-12.66 16 -13.32 16 -14 16 C-14 16.66 -14 17.32 -14 18 C-15.65 18.66 -17.3 19.32 -19 20 C-17.7260411 17.96166576 -16.38938077 15.96147874 -15 14 C-14.34 14 -13.68 14 -13 14 C-13 13.34 -13 12.68 -13 12 C-11.42578125 10.44921875 -11.42578125 10.44921875 -9.3125 8.6875 C-6.04699036 5.91500692 -2.98084015 3.07399141 0 0 Z " fill="#03B8D8" transform="translate(431,553)"/>
<path d="M0 0 C4.39825313 1.63212285 7.01114958 4.97545867 10.0625 8.375 C10.59166016 8.9525 11.12082031 9.53 11.66601562 10.125 C14.26621548 12.9829361 16.75595785 15.8474702 19 19 C18.67 19.66 18.34 20.32 18 21 C16.24797712 19.10600285 14.49835022 17.20988262 12.75 15.3125 C12.25886719 14.78205078 11.76773438 14.25160156 11.26171875 13.70507812 C9.01895587 11.26794246 6.87413006 8.83949319 4.828125 6.23046875 C3.01900132 3.8018552 3.01900132 3.8018552 0 2 C0 1.34 0 0.68 0 0 Z " fill="#9EF3FD" transform="translate(769,200)"/>
<path d="M0 0 C-1.65863505 4.32504836 -4.871041 7.09418825 -8.125 10.25 C-8.68832031 10.80429687 -9.25164063 11.35859375 -9.83203125 11.9296875 C-11.21686028 13.29104485 -12.60783204 14.64614859 -14 16 C-14.66 15.67 -15.32 15.34 -16 15 C-13.39568462 10.65947437 -11.30092766 8.53644452 -7 6 C-5.94895617 4.36504293 -4.94011682 2.70116376 -4 1 C-2 0 -2 0 0 0 Z " fill="#05B9D9" transform="translate(589,319)"/>
<path d="M0 0 C-1.55603771 3.81936528 -3.95604931 6.26044438 -7 9 C-7.66 9 -8.32 9 -9 9 C-9 9.66 -9 10.32 -9 11 C-9.66 11 -10.32 11 -11 11 C-11.33 11.99 -11.66 12.98 -12 14 C-12.66 14 -13.32 14 -14 14 C-14 13.34 -14 12.68 -14 12 C-13.34 12 -12.68 12 -12 12 C-11.34 10.35 -10.68 8.7 -10 7 C-9.01 7 -8.02 7 -7 7 C-7 6.01 -7 5.02 -7 4 C-3.68571429 0 -3.68571429 0 0 0 Z " fill="#04BCDC" transform="translate(378,608)"/>
<path d="M0 0 C5.53359156 0.5056435 9.56030575 1.95616868 14.4375 4.5625 C15.39172852 5.0565332 15.39172852 5.0565332 16.36523438 5.56054688 C17.91494576 6.36453248 19.45818322 7.18097666 21 8 C20.01 8.495 20.01 8.495 19 9 C16.42578125 8.109375 16.42578125 8.109375 13.3125 6.75 C12.24128906 6.28722656 11.17007813 5.82445312 10.06640625 5.34765625 C9.05449219 4.90292969 8.04257812 4.45820313 7 4 C5.58392165 3.39445568 4.16739153 2.78996416 2.75 2.1875 C1.8425 1.795625 0.935 1.40375 0 1 C0 0.67 0 0.34 0 0 Z " fill="#02B3D5" transform="translate(514,409)"/>
<path d="M0 0 C0 3 0 3 -1.828125 4.8671875 C-2.62734375 5.52976562 -3.4265625 6.19234375 -4.25 6.875 C-7.56528371 9.70473822 -10.44150871 12.44035994 -13 16 C-13.66 15.67 -14.32 15.34 -15 15 C-13.25420935 13.0585604 -11.50362507 11.12184216 -9.75 9.1875 C-9.25886719 8.64029297 -8.76773437 8.09308594 -8.26171875 7.52929688 C-5.68270045 4.69237675 -3.19370806 2.16715904 0 0 Z " fill="#9CF3FC" transform="translate(509,268)"/>
<path d="M0 0 C2.93835036 1.03706483 5.27825628 2.18752054 7.875 3.9375 C11.19271766 6.12719366 14.32127622 7.52851049 18 9 C15.36960461 9.99857603 14.24897447 10.09097144 11.5625 9.109375 C10.716875 8.66078125 9.87125 8.2121875 9 7.75 C8.154375 7.31171875 7.30875 6.8734375 6.4375 6.421875 C4.13039064 5.07606121 2.02456477 3.74337522 0 2 C0 1.34 0 0.68 0 0 Z " fill="#01B3D5" transform="translate(525,469)"/>
<path d="M0 0 C0 3 0 3 -2.3359375 5.69921875 C-3.34119508 6.70314662 -4.35458968 7.6989775 -5.375 8.6875 C-5.88289063 9.19861328 -6.39078125 9.70972656 -6.9140625 10.23632812 C-10.73300859 14 -10.73300859 14 -13 14 C-13 13.34 -13 12.68 -13 12 C-12.34 12 -11.68 12 -11 12 C-10.67 11.01 -10.34 10.02 -10 9 C-8.22265625 7.24609375 -8.22265625 7.24609375 -6.0625 5.4375 C-3.96656037 3.66869432 -1.94005112 1.94005112 0 0 Z " fill="#02B1D0" transform="translate(472,832)"/>
<path d="M0 0 C0 4.17691418 -2.22986516 6.13681153 -5 9 C-6.94771005 10.75157063 -8.94324501 12.37372861 -11 14 C-11.66 13.67 -12.32 13.34 -13 13 C-8.71 8.71 -4.42 4.42 0 0 Z " fill="#A6F5FD" transform="translate(274,583)"/>
<path d="M0 0 C0.99 0.33 1.98 0.66 3 1 C0.71439353 2.5306999 -1.57762667 4.04965044 -3.875 5.5625 C-4.52597656 6.00013672 -5.17695312 6.43777344 -5.84765625 6.88867188 C-7.52625497 7.98754836 -9.26023387 9.0007818 -11 10 C-11.66 9.67 -12.32 9.34 -13 9 C-12.01 8.67 -11.02 8.34 -10 8 C-10 7.34 -10 6.68 -10 6 C-7.8125 4.5625 -7.8125 4.5625 -5 3 C-4.13375 2.4225 -3.2675 1.845 -2.375 1.25 C-1.59125 0.8375 -0.8075 0.425 0 0 Z " fill="#04B6D6" transform="translate(644,582)"/>
<path d="M0 0 C4.95532767 3.86757281 8.96476648 8.18876004 13 13 C10 13 10 13 8.28125 11.609375 C0 2.96491228 0 2.96491228 0 0 Z " fill="#47E5FB" transform="translate(489,480)"/>
<path d="M0 0 C0.33 0.99 0.66 1.98 1 3 C-1.31 4.98 -3.62 6.96 -6 9 C-6.66 8.67 -7.32 8.34 -8 8 C-3.375 2.25 -3.375 2.25 0 0 Z " fill="#97F1FC" transform="translate(458,723)"/>
<path d="M0 0 C0.66 0.33 1.32 0.66 2 1 C-0.97 3.97 -3.94 6.94 -7 10 C-7.33 8.68 -7.66 7.36 -8 6 C-5.36 4.02 -2.72 2.04 0 0 Z " fill="#16D1F2" transform="translate(423,427)"/>
<path d="M0 0 C0 4.1592308 -2.24683568 6.14544435 -5 9 C-7.3125 10.875 -7.3125 10.875 -9 12 C-9.66 11.67 -10.32 11.34 -11 11 C-7.37 7.37 -3.74 3.74 0 0 Z " fill="#AAF6FE" transform="translate(490,287)"/>
<path d="M0 0 C0.99 0 1.98 0 3 0 C3.33 3.63 3.66 7.26 4 11 C3.67 9.68 3.34 8.36 3 7 C2.34 7 1.68 7 1 7 C0.67 4.69 0.34 2.38 0 0 Z " fill="#90EFFC" transform="translate(262,725)"/>
<path d="M0 0 C0.99 0 1.98 0 3 0 C1.49776416 4.20626034 -1.28550034 5.73900021 -5 8 C-3.63029745 5.04987143 -2.17390875 2.4347778 0 0 Z " fill="#97F0FB" transform="translate(248,609)"/>
<path d="M0 0 C0 2 0 2 -2.25 4.5 C-4.5264965 6.56954228 -6.19566446 7.85749293 -9 9 C-4 0 -4 0 0 0 Z " fill="#04BADA" transform="translate(412,574)"/>
<path d="M0 0 C1.0625 1.875 1.0625 1.875 2 4 C1.67 4.66 1.34 5.32 1 6 C-2.3 6 -5.6 6 -9 6 C-9 5.67 -9 5.34 -9 5 C-4.545 4.505 -4.545 4.505 0 4 C0 2.68 0 1.36 0 0 Z " fill="#4DE7FC" transform="translate(584,567)"/>
<path d="M0 0 C0 3 0 3 -2.5 5.6875 C-3.325 6.450625 -4.15 7.21375 -5 8 C-5.66 7.67 -6.32 7.34 -7 7 C-2.25 1.125 -2.25 1.125 0 0 Z " fill="#9AF1FB" transform="translate(449,732)"/>
<path d="M0 0 C0.33 0.99 0.66 1.98 1 3 C-1.68841859 5.25245881 -3.64641875 6.88213958 -7 8 C-7 7.34 -7 6.68 -7 6 C-5.46875 4.4921875 -5.46875 4.4921875 -3.5 2.875 C-2.8503125 2.33617187 -2.200625 1.79734375 -1.53125 1.2421875 C-1.0259375 0.83226562 -0.520625 0.42234375 0 0 Z " fill="#A0F4FD" transform="translate(519,258)"/>
<path d="M0 0 C0.66 0.33 1.32 0.66 2 1 C0.1875 4 0.1875 4 -2 7 C-2.99 7 -3.98 7 -5 7 C-5 5 -5 5 -2.5 2.375 C-1.675 1.59125 -0.85 0.8075 0 0 Z " fill="#02B4D3" transform="translate(245,562)"/>
<path d="M0 0 C4.51720311 -0.36625971 4.51720311 -0.36625971 6.8125 1.375 C8 3 8 3 8 5 C4.62496331 3.8141763 2.35277269 2.72426311 0 0 Z " fill="#02B5D6" transform="translate(520,448)"/>
<path d="M0 0 C-1.28519565 2.86697492 -2.57129254 4.97607712 -5 7 C-5.66 7 -6.32 7 -7 7 C-3.86206897 0 -3.86206897 0 0 0 Z " fill="#03B5D6" transform="translate(535,373)"/>
<path d="M0 0 C0.66 0.33 1.32 0.66 2 1 C0.37660195 2.70884005 -1.29319053 4.37446717 -3 6 C-3.66 6 -4.32 6 -5 6 C-4.75 4.125 -4.75 4.125 -4 2 C-2.0625 0.6875 -2.0625 0.6875 0 0 Z " fill="#05B9D9" transform="translate(565,342)"/>
<path d="M0 0 C0 3 0 3 -1.875 5.1875 C-4 7 -4 7 -6 7 C-4.60667426 3.63279613 -3.0210714 2.0140476 0 0 Z " fill="#9AF2FC" transform="translate(466,311)"/>
<path d="M0 0 C2 1 2 1 2 1 Z " fill="#06BAD7" transform="translate(376,887)"/>
<path d="M0 0 C2 1 2 1 2 1 Z " fill="#0ABBD7" transform="translate(297,883)"/>
<path d="" fill="#09B9D4" transform="translate(0,0)"/>
<path d="M0 0 C2 1 2 1 2 1 Z " fill="#05BAD6" transform="translate(609,136)"/>
<path d="M0 0 C2 1 2 1 2 1 Z " fill="#05BCDA" transform="translate(633,128)"/>
<path d="" fill="#09BADA" transform="translate(0,0)"/>
<path d="" fill="#08BAD7" transform="translate(0,0)"/>
<path d="" fill="#07BAD7" transform="translate(0,0)"/>
<path d="" fill="#0ABAD8" transform="translate(0,0)"/>
<path d="" fill="#0BBAD9" transform="translate(0,0)"/>
<path d="" fill="#0CB8D3" transform="translate(0,0)"/>
<path d="" fill="#0BB8D3" transform="translate(0,0)"/>
<path d="" fill="#09B8D4" transform="translate(0,0)"/>
<path d="" fill="#09B9D3" transform="translate(0,0)"/>
<path d="" fill="#09B8D7" transform="translate(0,0)"/>
<path d="" fill="#08B8D3" transform="translate(0,0)"/>
<path d="" fill="#08B6D2" transform="translate(0,0)"/>
<path d="" fill="#0AB9D6" transform="translate(0,0)"/>
<path d="" fill="#0BB9D3" transform="translate(0,0)"/>
<path d="" fill="#0BBAD4" transform="translate(0,0)"/>
<path d="" fill="#07CCEA" transform="translate(0,0)"/>
<path d="" fill="#08CDEA" transform="translate(0,0)"/>
<path d="" fill="#07CCE9" transform="translate(0,0)"/>
<path d="" fill="#06CBE9" transform="translate(0,0)"/>
<path d="" fill="#0AB7D4" transform="translate(0,0)"/>
<path d="" fill="#07C7E7" transform="translate(0,0)"/>
<path d="" fill="#09C9E6" transform="translate(0,0)"/>
<path d="" fill="#0BBAD8" transform="translate(0,0)"/>
<path d="" fill="#0CB9D6" transform="translate(0,0)"/>
<path d="" fill="#09CAE7" transform="translate(0,0)"/>
<path d="" fill="#0EBBD6" transform="translate(0,0)"/>
<path d="" fill="#0AB9DA" transform="translate(0,0)"/>
<path d="" fill="#0ABAD5" transform="translate(0,0)"/>
<path d="" fill="#0DCCE7" transform="translate(0,0)"/>
<path d="" fill="#09BCD8" transform="translate(0,0)"/>
<path d="" fill="#07C9E7" transform="translate(0,0)"/>
<path d="" fill="#0BC6E4" transform="translate(0,0)"/>
<path d="" fill="#08C6E3" transform="translate(0,0)"/>
<path d="" fill="#08CAE7" transform="translate(0,0)"/>
<path d="" fill="#07BAD6" transform="translate(0,0)"/>
<path d="" fill="#06BAD6" transform="translate(0,0)"/>
<path d="" fill="#08B8D7" transform="translate(0,0)"/>
<path d="" fill="#03C3E3" transform="translate(0,0)"/>
<path d="" fill="#08BFDB" transform="translate(0,0)"/>
<path d="" fill="#05BFE2" transform="translate(0,0)"/>
<path d="" fill="#0BC1DD" transform="translate(0,0)"/>
<path d="" fill="#06C5E4" transform="translate(0,0)"/>
<path d="" fill="#0ABDDB" transform="translate(0,0)"/>
<path d="" fill="#09CBE9" transform="translate(0,0)"/>
<path d="" fill="#0AC9E6" transform="translate(0,0)"/>
<path d="" fill="#0DCBE6" transform="translate(0,0)"/>
<path d="" fill="#08B8D4" transform="translate(0,0)"/>
<path d="" fill="#0BB4D1" transform="translate(0,0)"/>
<path d="" fill="#06B9D5" transform="translate(0,0)"/>
<path d="" fill="#0ACDE8" transform="translate(0,0)"/>
<path d="" fill="#08BAD5" transform="translate(0,0)"/>
<path d="" fill="#09CBE9" transform="translate(0,0)"/>
<path d="" fill="#0DBBD6" transform="translate(0,0)"/>
<path d="" fill="#0AB9D5" transform="translate(0,0)"/>
<path d="" fill="#08BAD9" transform="translate(0,0)"/>
<path d="" fill="#08C9E9" transform="translate(0,0)"/>
<path d="" fill="#08CAEB" transform="translate(0,0)"/>
<path d="" fill="#0BCAEA" transform="translate(0,0)"/>
<path d="" fill="#07BAD6" transform="translate(0,0)"/>
<path d="" fill="#08B7D4" transform="translate(0,0)"/>
<path d="" fill="#08B6D4" transform="translate(0,0)"/>
<path d="" fill="#07B7D4" transform="translate(0,0)"/>
<path d="" fill="#07B8D6" transform="translate(0,0)"/>
<path d="" fill="#06BAD8" transform="translate(0,0)"/>
<path d="" fill="#06B8D7" transform="translate(0,0)"/>
<path d="" fill="#09B9D5" transform="translate(0,0)"/>
<path d="" fill="#07B9D7" transform="translate(0,0)"/>
<path d="" fill="#04B9D7" transform="translate(0,0)"/>
<path d="" fill="#06B5D4" transform="translate(0,0)"/>
<path d="" fill="#05B9D5" transform="translate(0,0)"/>
</svg>
