<svg xmlns="http://www.w3.org/2000/svg" width="1024" height="1024"><path fill="#F8F9F9" d="m512 248 2 2c1.529.539 3.074 1.031 4.625 1.5 6.28 2.169 11.546 5.525 17.067 9.146 3.37 2.477 3.37 2.477 7.308 3.354a469.515 469.515 0 0 1 4 4 81.243 81.243 0 0 0 4.508 2.89l2.702 1.628 2.915 1.732c2.07 1.244 4.138 2.489 6.207 3.734l3.288 1.975c5.755 3.475 11.472 7.01 17.192 10.541 2.11 1.303 4.221 2.605 6.333 3.906l2.967 1.832c3.647 2.225 7.332 4.38 11.031 6.518C606 304 606 304 607 306c1.656.692 3.325 1.355 5 2 1.509.871 2.994 1.784 4.457 2.73l2.586 1.662 2.77 1.796c1.972 1.266 3.944 2.532 5.917 3.796l3.107 1.995a1949.492 1949.492 0 0 0 15.788 9.959l2.902 1.822a456.944 456.944 0 0 0 18.15 10.762C670 344 670 344 671 346c1.664.674 3.331 1.339 5 2a189.47 189.47 0 0 1 6.125 3.875l3.766 2.453 2.021 1.318c6.068 3.934 12.204 7.761 18.325 11.61 3.075 1.94 6.141 3.893 9.208 5.846L722 377.25l3.167 2.026 2.958 1.865 2.633 1.672c2.261 1.42 2.261 1.42 5.242 1.187v3l2.183.81c2.839 1.2 5.283 2.601 7.887 4.245l2.94 1.846 3.115 1.974 3.217 2.023c5.07 3.191 10.13 6.4 15.181 9.622l2.559 1.627c1.56.995 3.12 1.993 4.676 2.995l2.148 1.37 1.823 1.17L784 416l1.581 1.031c6.27 3.695 12.22 3.485 19.345 3.36l3.71-.018c3.893-.022 7.784-.072 11.677-.123 2.636-.02 5.272-.038 7.908-.055 5.782-.039 11.564-.096 17.346-.168 9.622-.107 19.25.064 28.871.18 2.607.029 5.213.05 7.82.064 3.777.022 7.552.068 11.328.12l3.48.003c13.9.247 26.06 4.429 36.407 13.86 11.231 11.681 14.963 24.655 14.89 40.43-.312 14.311-5.367 26.146-15.176 36.628-10.282 9.67-22.282 13.973-36.218 14.512-3.025.05-3.025.05-5.969 1.176-1.379.078-2.76.1-4.141.087-1.264-.01-1.264-.01-2.553-.018l-2.791-.035-2.948-.024c-2.115-.017-4.23-.036-6.344-.057-4.5-.042-8.998-.066-13.497-.09a5162.22 5162.22 0 0 1-25.135-.185 2502.44 2502.44 0 0 0-17.478-.113 802.452 802.452 0 0 1-6.654-.063c-3.11-.041-6.217-.051-9.327-.054l-2.76-.059c-6.25.04-10.588 1.495-15.372 5.611l-2 3h-3a145.55 145.55 0 0 0-7.188 4.688c-1.348.921-2.697 1.842-4.046 2.761l-1.963 1.342c-2.204 1.478-4.46 2.852-6.74 4.209L754 550v2l-2.125.25c-4.398 1.147-7.684 3.559-10.875 6.75a108.59 108.59 0 0 1-4.082 2.285c-4.657 2.543-9.136 5.298-13.606 8.153L720.85 571c-2.618 1.663-5.234 3.33-7.85 4.999l-10.688 6.813c-1.363.87-1.363.87-2.755 1.756a2529.034 2529.034 0 0 1-20.87 13.119c-7.48 4.662-14.926 9.37-22.315 14.178a2122.907 2122.907 0 0 1-36.184 23.009c-7.968 4.956-15.862 10.025-23.76 15.09a2976.19 2976.19 0 0 1-21.76 13.815 837.29 837.29 0 0 0-12.762 8.203c-7.908 5.177-15.939 10.134-24.031 15.017l-3.235 1.962c-13.42 8.048-26.742 11.91-42.394 8.132-22.873-8.426-36.38-28.802-46.246-50.094-8-18.277-8-18.277-8-23l-4-1c-.669-2.758-.997-5.07-.855-7.918.036-5.6-1.587-10.942-2.957-16.332l-.792-3.297-.79-3.156-.715-2.864c-.714-2.478-.714-2.478-2.473-4.013C424 584 424 584 423.659 582.099l.048-2.11.023-2.07.082-2.606c.035-1.483.068-2.966.1-4.449L424 567l-3.53.228c-12.508.748-24.94.857-37.467.585-3.122-.064-6.243-.105-9.364-.145-1.996-.039-3.991-.08-5.987-.121l-2.812-.029-2.594-.07c-1.125-.02-1.125-.02-2.273-.043-2.513-.516-3.414-1.4-4.973-3.405-.5-2.5-.5-2.5 0-5 4.454-3.753 8.915-3.406 14.438-3.328l2.777.006c1.94.006 3.88.02 5.82.04 2.927.032 5.854.042 8.781.048 9.77.04 19.456.247 29.184 1.234l1-2 4 1-2-12h-1l-2-8-3.54.035a889.279 889.279 0 0 1-31.503-.353c-2-.056-4-.104-6-.15-1.235-.04-2.47-.078-3.742-.118l-3.34-.095c-2.83-.314-4.554-.683-6.875-2.319-.75-3.125-.75-3.125-1-6 3.094-2.715 5.042-3.382 9.136-3.432l3.093-.06 3.318-.02 3.413-.054c3.597-.054 7.193-.088 10.79-.121 2.439-.034 4.878-.068 7.316-.104 5.978-.085 11.956-.153 17.934-.209l.438-2.875C416 517 416 517 417 515l-.431-1.993c-.827-4.373-.691-8.68-.667-13.12l.005-2.938c.005-3.087.018-6.174.03-9.262.006-2.097.01-4.194.014-6.29.011-5.133.028-10.265.049-15.397l-3.608.063c-4.42.073-8.841.119-13.262.157-1.913.02-3.826.047-5.738.082-2.75.048-5.5.071-8.251.089l-2.59.062c-5.93.002-5.93.002-9.13-2.345C372 462 372 462 372.125 459.875 373 458 373 458 375 456c8.436-1.46 17.029-1.112 25.563-1.063A4077.507 4077.507 0 0 1 416 455l-.071-2.414-.055-3.211-.07-3.164c.206-3.384.992-6.056 2.195-9.211l-3.593.048a2243.7 2243.7 0 0 1-13.222.117c-1.906.015-3.812.035-5.718.061a970.52 970.52 0 0 1-8.229.067c-.849.015-1.698.03-2.573.047-4.681.001-7.921-.192-11.665-3.34-1-3-1-3-.113-5.137 3.25-2.866 6.784-2.587 10.925-2.675l2.634-.096c10.198-.284 20.379.264 30.554.908l-1-6 2-1c2.971-9.215 3.264-19.568 4.412-29.15l.49-3.955.422-3.505c1.001-6.502 2.386-12.94 3.676-19.39l-45 1v-2l-2.242-.309c-3.043-.763-4.521-1.72-6.883-3.753l-2.008-1.66c-5.772-7.04-5.321-15.246-5.3-23.903l-.016-3.944c-.01-2.743-.007-5.486.003-8.23.011-3.497-.009-6.993-.038-10.49-.023-3.362-.016-6.724-.012-10.086l-.034-3.776c.056-7.088.624-11.864 4.53-17.849 1.912-1.82 3.906-3.382 6-5v-2c7.266-.146 14.532-.287 21.799-.426 3.81-.074 7.62-.152 11.429-.23 21.619-.424 21.619-.424 31.963-.2l2.163.04c3.142.06 6.277.149 9.416.293 2.865.066 5.426.113 8.23-.477 2.585-2.76 2.585-2.76 4-6 1.992-1.168 1.992-1.168 4-2a145.581 145.581 0 0 0 4.125-3.313C483.985 251.18 498.031 246.041 512 248Zm-134 37c-2.04 3.508-2.256 6.622-2.275 10.629l-.029 3.347.003 3.587-.013 3.709c-.006 2.585-.006 5.17-.002 7.756.003 3.957-.02 7.914-.045 11.87-.003 2.513-.003 5.026-.002 7.54l-.028 3.586.019 3.347-.002 2.935c.576 4.146 2.456 6.776 5.374 9.694 3.755 1.41 7.733 1.148 11.688 1.125l2.087.012c3.399.293 3.399.293 6.225-1.137l3 1c2.167-.875 2.167-.875 4-2v2l2.763-.02c3.436-.006 6.869.018 10.305.063 1.476.013 2.953.014 4.43.002 10.305-.074 17.183 1.416 25.502 7.955 4.297 3.278 4.297 3.278 9 5l.332-1.863.48-2.45.458-2.425c1.56-4.832 5.653-6.44 9.89-8.688 2.687-2.299 2.979-4.11 3.84-7.574.3-3.905.304-7.8.3-11.715l.014-3.421c.005-2.383.006-4.766.002-7.149-.003-3.636.02-7.272.045-10.908.003-2.32.003-4.64.002-6.96l.028-3.28c-.036-5.927-.278-10.44-3.391-15.567-4.156-3.276-7.992-3.43-13.092-3.388l-2.426-.016a895.705 895.705 0 0 0-7.916.006 2413.773 2413.773 0 0 0-17.075.007c-4.93.017-9.861.007-14.792-.01-3.798-.012-7.595-.008-11.393 0-1.818.002-3.636 0-5.453-.008a798.51 798.51 0 0 0-7.632.02l-2.263-.018c-4.706.057-8.052.732-11.958 3.407Zm47 294 1 4Zm9 36 1 2Zm1 3 1 2Zm1 3 1 2Z"/><path fill="#F8F9F9" d="M547 279c5.106 1.757 9.534 4.587 14.125 7.375l2.676 1.615c6.713 4.069 13.363 8.231 19.987 12.442 5.814 3.694 11.66 7.33 17.524 10.943a1533.2 1533.2 0 0 1 21.375 13.438c9.257 5.92 18.604 11.686 27.974 17.425a845.767 845.767 0 0 1 20.367 12.9c5.52 3.598 11.123 7.04 16.753 10.46 14.44 8.775 28.721 17.812 43 26.845 14.255 9.012 28.57 17.928 42.907 26.807l2.626 1.627c3.34 2.066 3.34 2.066 6.686 4.123l1.946 1.559c4.614 2.177 8.992 1.839 14.032 1.794l3.358.007c2.405.003 4.811 0 7.217-.01 3.819-.014 7.637-.008 11.456.004 10.176.03 20.353.03 30.529.01 7.327-.013 14.653-.004 21.98.026 2.522.006 5.044.002 7.566-.012 32.51-.177 32.51-.177 45.057 10.743 10.427 10.537 13.163 21.435 13.174 35.812-.184 12.674-4.66 21.694-13.124 31.07-7.016 6.754-17.123 11.175-26.917 11.081l-2.87-.018-3.13-.035-6.8-.047-3.644-.03c-7.063-.046-14.125-.044-21.188-.05-7.457-.005-14.914-.028-22.37-.106-6.574-.069-13.146-.079-19.719-.055-2.492 0-4.983-.02-7.475-.06-15.778-.243-26.644 1.245-39.345 11.006-2.44 1.846-5.025 3.432-7.635 5.026-1.68 1.072-3.358 2.147-5.035 3.222l-5.61 3.583-2.767 1.768a3051.906 3051.906 0 0 1-12.374 7.837l-2.352 1.485c-3.828 2.416-7.657 4.83-11.487 7.242a4686.96 4686.96 0 0 0-29.985 19.074 7172.474 7172.474 0 0 1-23.746 15.138 1816.68 1816.68 0 0 0-16.117 10.374c-6.76 4.397-13.59 8.676-20.438 12.937a1333.667 1333.667 0 0 0-24.958 15.92c-7.898 5.157-15.87 10.192-23.857 15.212-3.22 2.027-6.436 4.061-9.651 6.096a4713.848 4713.848 0 0 1-7.104 4.479c-3.11 1.96-6.207 3.938-9.297 5.93l-4.383 2.8-2.04 1.331c-1.594 1.014-3.242 1.945-4.897 2.857l-2-1 1.469-2.21C564.757 641.416 573.056 611.297 579 582l.667-3.17c5.933-28.405 9.47-58.017 9.501-87.049l.013-3.663c.01-3.873.01-7.745.006-11.618v-2.002C589.135 410.077 581.402 344.82 551 287c-1.344-2.661-2.672-5.33-4-8Z"/><path fill="#D9DADB" d="m512 248 2 2c1.529.539 3.074 1.031 4.625 1.5 6.28 2.169 11.546 5.525 17.067 9.146 3.37 2.477 3.37 2.477 7.308 3.354a469.515 469.515 0 0 1 4 4 81.243 81.243 0 0 0 4.508 2.89l2.702 1.628 2.915 1.732c2.07 1.244 4.138 2.489 6.207 3.734l3.288 1.975c5.755 3.475 11.472 7.01 17.192 10.541 2.11 1.303 4.221 2.605 6.333 3.906l2.967 1.832c3.647 2.225 7.332 4.38 11.031 6.518C606 304 606 304 607 306c1.656.692 3.325 1.355 5 2 1.509.871 2.994 1.784 4.457 2.73l2.586 1.662 2.77 1.796c1.972 1.266 3.944 2.532 5.917 3.796l3.107 1.995a1949.492 1949.492 0 0 0 15.788 9.959l2.902 1.822a456.944 456.944 0 0 0 18.15 10.762C670 344 670 344 671 346c1.664.674 3.331 1.339 5 2a189.47 189.47 0 0 1 6.125 3.875l3.766 2.453 2.021 1.318c6.068 3.934 12.204 7.761 18.325 11.61 3.075 1.94 6.141 3.893 9.208 5.846L722 377.25l3.167 2.026 2.958 1.865 2.633 1.672c2.261 1.42 2.261 1.42 5.242 1.187v3l2.183.81c2.839 1.2 5.283 2.601 7.887 4.245l2.94 1.846 3.115 1.974 3.217 2.023c5.07 3.191 10.13 6.4 15.181 9.622l2.559 1.627c1.56.995 3.12 1.993 4.676 2.995l2.148 1.37 1.823 1.17L784 416l1.581 1.031c6.27 3.695 12.22 3.485 19.345 3.36l3.71-.018c3.893-.022 7.784-.072 11.677-.123 2.636-.02 5.272-.038 7.908-.055 5.782-.039 11.564-.096 17.346-.168 9.622-.107 19.25.064 28.871.18 2.607.029 5.213.05 7.82.064 3.777.022 7.552.068 11.328.12l3.48.003c13.9.247 26.06 4.429 36.407 13.86 11.231 11.681 14.963 24.655 14.89 40.43-.312 14.311-5.367 26.146-15.176 36.628-10.282 9.67-22.282 13.973-36.218 14.512-3.025.05-3.025.05-5.969 1.176-1.379.078-2.76.1-4.141.087-1.264-.01-1.264-.01-2.553-.018l-2.791-.035-2.948-.024c-2.115-.017-4.23-.036-6.344-.057-4.5-.042-8.998-.066-13.497-.09a5162.22 5162.22 0 0 1-25.135-.185 2502.44 2502.44 0 0 0-17.478-.113 802.452 802.452 0 0 1-6.654-.063c-3.11-.041-6.217-.051-9.327-.054l-2.76-.059c-6.25.04-10.588 1.495-15.372 5.611l-2 3h-3a145.55 145.55 0 0 0-7.188 4.688c-1.348.921-2.697 1.842-4.046 2.761l-1.963 1.342c-2.204 1.478-4.46 2.852-6.74 4.209L754 550v2l-2.125.25c-4.398 1.147-7.684 3.559-10.875 6.75a108.59 108.59 0 0 1-4.082 2.285c-4.657 2.543-9.136 5.298-13.606 8.153L720.85 571c-2.618 1.663-5.234 3.33-7.85 4.999l-10.688 6.813c-1.363.87-1.363.87-2.755 1.756a2529.034 2529.034 0 0 1-20.87 13.119c-7.48 4.662-14.926 9.37-22.315 14.178a2122.907 2122.907 0 0 1-36.184 23.009c-7.968 4.956-15.862 10.025-23.76 15.09a2976.19 2976.19 0 0 1-21.76 13.815 837.29 837.29 0 0 0-12.762 8.203c-7.908 5.177-15.939 10.134-24.031 15.017l-3.235 1.962c-13.42 8.048-26.742 11.91-42.394 8.132-22.873-8.426-36.38-28.802-46.246-50.094-8-18.277-8-18.277-8-23l-4-1c-.669-2.758-.997-5.07-.855-7.918.036-5.6-1.587-10.942-2.957-16.332l-.792-3.297-.79-3.156-.715-2.864c-.714-2.478-.714-2.478-2.473-4.013C424 584 424 584 423.659 582.099l.048-2.11.023-2.07.082-2.606c.035-1.483.068-2.966.1-4.449L424 567l-3.53.228c-12.508.748-24.94.857-37.467.585-3.122-.064-6.243-.105-9.364-.145-1.996-.039-3.991-.08-5.987-.121l-2.812-.029-2.594-.07c-1.125-.02-1.125-.02-2.273-.043-2.513-.516-3.414-1.4-4.973-3.405-.5-2.5-.5-2.5 0-5 4.454-3.753 8.915-3.406 14.438-3.328l2.777.006c1.94.006 3.88.02 5.82.04 2.927.032 5.854.042 8.781.048 9.77.04 19.456.247 29.184 1.234l1-2 4 1-2-12h-1l-2-8-3.54.035a889.279 889.279 0 0 1-31.503-.353c-2-.056-4-.104-6-.15-1.235-.04-2.47-.078-3.742-.118l-3.34-.095c-2.83-.314-4.554-.683-6.875-2.319-.75-3.125-.75-3.125-1-6 3.094-2.715 5.042-3.382 9.136-3.432l3.093-.06 3.318-.02 3.413-.054c3.597-.054 7.193-.088 10.79-.121 2.439-.034 4.878-.068 7.316-.104 5.978-.085 11.956-.153 17.934-.209l.438-2.875C416 517 416 517 417 515l-.431-1.993c-.827-4.373-.691-8.68-.667-13.12l.005-2.938c.005-3.087.018-6.174.03-9.262.006-2.097.01-4.194.014-6.29.011-5.133.028-10.265.049-15.397l-3.608.063c-4.42.073-8.841.119-13.262.157-1.913.02-3.826.047-5.738.082-2.75.048-5.5.071-8.251.089l-2.59.062c-5.93.002-5.93.002-9.13-2.345C372 462 372 462 372.125 459.875 373 458 373 458 375 456c8.436-1.46 17.029-1.112 25.563-1.063A4077.507 4077.507 0 0 1 416 455l-.071-2.414-.055-3.211-.07-3.164c.206-3.384.992-6.056 2.195-9.211l-3.593.048a2243.7 2243.7 0 0 1-13.222.117c-1.906.015-3.812.035-5.718.061a970.52 970.52 0 0 1-8.229.067c-.849.015-1.698.03-2.573.047-4.681.001-7.921-.192-11.665-3.34-1-3-1-3-.113-5.137 3.25-2.866 6.784-2.587 10.925-2.675l2.634-.096c10.198-.284 20.379.264 30.554.908l-1-6 2-1c2.971-9.215 3.264-19.568 4.412-29.15l.49-3.955.422-3.505c1.001-6.502 2.386-12.94 3.676-19.39l-45 1v-2l-2.242-.309c-3.043-.763-4.521-1.72-6.883-3.753l-2.008-1.66c-5.772-7.04-5.321-15.246-5.3-23.903l-.016-3.944c-.01-2.743-.007-5.486.003-8.23.011-3.497-.009-6.993-.038-10.49-.023-3.362-.016-6.724-.012-10.086l-.034-3.776c.056-7.088.624-11.864 4.53-17.849 1.912-1.82 3.906-3.382 6-5v-2c7.266-.146 14.532-.287 21.799-.426 3.81-.074 7.62-.152 11.429-.23 21.619-.424 21.619-.424 31.963-.2l2.163.04c3.142.06 6.277.149 9.416.293 2.865.066 5.426.113 8.23-.477 2.585-2.76 2.585-2.76 4-6 1.992-1.168 1.992-1.168 4-2a145.581 145.581 0 0 0 4.125-3.313C483.985 251.18 498.031 246.041 512 248Zm-40 25v2c2.21 1.55 4.513 2.894 6.836 4.27 2.642 2.112 3.145 3.524 4.164 6.73.26 2.908.26 2.908.275 6.148l.029 3.692-.003 3.965.013 4.098c.007 2.86.007 5.72.002 8.579-.006 3.65.01 7.3.034 10.95.015 2.822.016 5.642.013 8.463 0 1.996.014 3.992.028 5.987-.033 6.437-.095 11.501-3.391 17.118-2.871 2.791-4.92 3.973-8.75 5.25-1.933.852-1.933.852-3.25 2.75-.938 5.35-1.044 10.577-1 16-6.92.86-10.363-1.767-15.75-5.875l-2.285-1.684a451.757 451.757 0 0 1-4.175-3.112c-3.9-2.91-3.9-2.91-8.79-3.329-2.628 9.222-4.072 18.46-5.308 27.944-.316 2.421-.644 4.84-.973 7.26a5317.72 5317.72 0 0 0-.633 4.757l-.287 2.12c-.9 6.98-1.295 13.857-1.799 20.919l84 1 1 4c-2.928 2.928-6.013 2.308-9.938 2.319l-2.484.03c-2.716.031-5.432.048-8.148.065-1.88.019-3.761.038-5.642.059-4.955.051-9.91.09-14.865.128-5.054.04-10.107.091-15.161.141-9.92.097-19.841.18-29.762.258v21c4.422.09 4.422.09 8.934.184 2.842.061 5.685.125 8.528.188 1.982.044 3.964.085 5.945.125 2.843.058 5.685.122 8.527.187l2.702.05c6.25.152 6.25.152 7.364 1.266.04 1.666.043 3.334 0 5-3.434 1.717-7.381 1.245-11.164 1.316l-2.75.063c-2.903.066-5.807.125-8.711.183l-5.898.131c-4.826.108-9.651.209-14.477.307-.05 4.867-.086 9.733-.11 14.6-.01 1.644-.023 3.288-.04 4.932-.14 13.262.745 26.282 2.15 39.468l1.74.031c5.953.108 11.906.223 17.858.341 2.225.044 4.449.085 6.673.125 3.19.058 6.38.122 9.569.187l3.033.05 2.79.06 2.47.048C473 526 473 526 474 527v5l-46 1c-.33 11.103-.33 11.103 3 25 1.852.158 3.71.251 5.566.316l3.409.127 3.587.12 3.6.13c2.946.107 5.892.209 8.838.307l1 4c-3.236 2.157-4.344 2.284-8.105 2.414l-2.979.117-3.103.094-3.14.117c-2.557.094-5.115.18-7.673.258 5.788 38.59 17.557 91.86 50.875 116.875 9.34 6.108 19.065 7.489 30.125 6.125 16.518-4.95 27.263-19.732 35.175-34.14 24.8-46.843 33.945-108.246 33.993-160.962l.01-3.987c.006-2.775.008-5.55.007-8.325 0-2.782.007-5.564.02-8.347.31-63.7-5.476-154.615-51.506-203.692C511.86 252.72 488.99 254.967 472 273Zm75 6 1.031 2.063c1.043 2.086 2.085 4.173 3.125 6.261a697.904 697.904 0 0 0 3.813 7.508c9.58 18.685 15.505 37.995 21.031 58.168l.828 3.021c2.075 7.909 3.496 15.902 4.852 23.959.38 2.254.768 4.506 1.158 6.758C591.355 436.472 592.364 488.96 586 539l-.422 3.551C580.651 583.601 571.966 626.907 551 663l-1.324 2.344A448.288 448.288 0 0 1 547 670c3.546-1.327 6.692-2.9 9.922-4.871l2.83-1.723 2.998-1.843 3.12-1.91a923.796 923.796 0 0 0 21.759-13.81c5.095-3.326 10.234-6.583 15.371-9.843 6.48-4.114 12.943-8.25 19.375-12.438 6.76-4.397 13.59-8.676 20.438-12.937a1331.58 1331.58 0 0 0 24.747-15.779c13.847-9.044 27.846-17.856 41.837-26.676A4462.864 4462.864 0 0 0 727 557c12.85-8.186 25.71-16.356 38.599-24.484 2.58-1.63 5.159-3.262 7.737-4.895l2.65-1.677 5.05-3.2 2.28-1.443 2.014-1.276c2.963-1.818 4.732-2.151 8.196-2.156l2.888-.012 3.18.001 3.34-.01c2.403-.008 4.806-.013 7.208-.017 3.81-.007 7.619-.022 11.428-.041 10.834-.052 21.667-.1 32.501-.116 6.623-.01 13.245-.04 19.867-.081 2.52-.013 5.038-.018 7.557-.015 3.54.002 7.078-.02 10.618-.048l3.118.02c12.072-.153 22.75-4.108 31.667-12.292 10.71-11.27 12.586-23.227 12.38-38.028-.372-10.426-4.775-19.43-11.938-26.98-9.787-8.918-21.873-11.75-34.806-11.492l-3.336.028c-2.376.02-4.751.046-7.127.078-3.778.047-7.556.067-11.335.078-10.74.033-21.478.078-32.216.226-6.586.09-13.172.115-19.759.106-2.49.007-4.98.036-7.47.088-16.678.338-27.779-1.925-41.334-11.926-2.702-1.982-5.51-3.75-8.344-5.538a1887.508 1887.508 0 0 1-5.3-3.523c-7.31-4.824-14.679-9.446-22.263-13.822-4.758-2.757-9.39-5.663-13.987-8.678-7.231-4.74-14.566-9.295-21.938-13.813-11.517-7.06-22.955-14.235-34.356-21.48a2220.48 2220.48 0 0 0-29.894-18.644c-7.178-4.401-14.331-8.825-21.375-13.438-10.28-6.73-20.787-13.094-31.263-19.513a4198.246 4198.246 0 0 1-14.862-9.175l-2.526-1.563-2.388-1.48-2.259-1.395c-1.503-.938-3-1.887-4.49-2.845l-2.173-1.392-1.923-1.248c-1.6-1.05-1.6-1.05-3.616-.889Zm-169 6c-2.04 3.508-2.256 6.622-2.275 10.629l-.029 3.347.003 3.587-.013 3.709c-.006 2.585-.006 5.17-.002 7.756.003 3.957-.02 7.914-.045 11.87-.003 2.513-.003 5.026-.002 7.54l-.028 3.586.019 3.347-.002 2.935c.576 4.146 2.456 6.776 5.374 9.694 3.755 1.41 7.733 1.148 11.688 1.125l2.087.012c3.399.293 3.399.293 6.225-1.137l3 1c2.167-.875 2.167-.875 4-2v2l2.763-.02c3.436-.006 6.869.018 10.305.063 1.476.013 2.953.014 4.43.002 10.305-.074 17.183 1.416 25.502 7.955 4.297 3.278 4.297 3.278 9 5l.332-1.863.48-2.45.458-2.425c1.56-4.832 5.653-6.44 9.89-8.688 2.687-2.299 2.979-4.11 3.84-7.574.3-3.905.304-7.8.3-11.715l.014-3.421c.005-2.383.006-4.766.002-7.149-.003-3.636.02-7.272.045-10.908.003-2.32.003-4.64.002-6.96l.028-3.28c-.036-5.927-.278-10.44-3.391-15.567-4.156-3.276-7.992-3.43-13.092-3.388l-2.426-.016a895.705 895.705 0 0 0-7.916.006 2413.773 2413.773 0 0 0-17.075.007c-4.93.017-9.861.007-14.792-.01-3.798-.012-7.595-.008-11.393 0-1.818.002-3.636 0-5.453-.008a798.51 798.51 0 0 0-7.632.02l-2.263-.018c-4.706.057-8.052.732-11.958 3.407Zm47 294 1 4Zm9 36 1 2Zm1 3 1 2Zm1 3 1 2Z"/><path fill="#D7E9DC" d="M848 592c1.754.4 3.503.82 5.25 1.25l2.953.703c3.273 1.225 4.733 2.225 6.797 5.047 2.14 7.199-.514 13.648-2.586 20.633-.381 1.323-.762 2.646-1.14 3.97-.997 3.47-2.01 6.935-3.028 10.4-1.232 4.208-2.446 8.42-3.661 12.633-.947 3.278-1.897 6.555-2.854 9.83l-1.041 3.57-.918 3.132A96.262 96.262 0 0 0 846 671c2.295 1.148 3.516 1.105 6.063 1.066l2.54-.03 2.752-.044 5.764-.05c3.03-.031 6.06-.067 9.091-.113 2.924-.043 5.847-.066 8.77-.087l2.722-.056c6.389-.026 10.798 1.056 16.236 4.564 1.905 3.139 1.65 5.158 1.062 8.75-1.883 3.082-4.442 5.47-7 8a6540.87 6540.87 0 0 0-3.559 3.563 828.72 828.72 0 0 1-5.846 5.806c-3.054 3.01-5.996 6.05-8.779 9.315-5.125 5.944-10.798 11.366-16.379 16.879-6.378 6.3-12.67 12.56-18.437 19.437a133.549 133.549 0 0 1-3.438 2.938c-2.407 1.996-4.458 4.018-6.46 6.417-4.905 5.676-10.217 10.946-15.519 16.247a1626.899 1626.899 0 0 0-5.331 5.37l-3.42 3.426-1.594 1.616C800.4 788.823 800.4 788.823 797 790c-3.752-.134-6.227-.525-9.438-2.5-2.34-3.743-2.107-7.254-1.562-11.5 1.28-4.337 3.002-8.458 4.75-12.625.744-1.83 1.488-3.66 2.23-5.491.52-1.282 1.042-2.562 1.566-3.842 2.875-7.028 5.607-14.11 8.334-21.196 1.052-2.732 2.108-5.462 3.164-8.193L809 717c-2.004-2.004-6.047-1.16-8.797-1.176-1.614-.023-3.23-.047-4.844-.072a904.296 904.296 0 0 0-7.656-.078 634.176 634.176 0 0 1-7.375-.1l-2.298.006c-4.963-.114-7.57-1.003-11.03-4.58-1.688-3.063-1.688-3.063-2-7 1.43-3.985 3.733-7.448 6-11l2.621-4.195c2.019-3.22 4.054-6.43 6.098-9.633 3.332-5.234 6.59-10.513 9.843-15.797 4.367-7.08 8.809-14.1 13.349-21.07a999.278 999.278 0 0 0 8.467-13.238c1.495-2.376 2.998-4.747 4.5-7.118 2.205-3.48 4.37-6.98 6.524-10.492l3.41-5.457 1.56-2.591c3.315-5.246 5.608-7.684 11.628-9.409 2.652-.512 2.652-.512 4.938-.688l2.34-.199L848 593v-1Z"/><path fill="#F9F9F9" d="m143.209 630.87 3.886-.009 4.214.006 4.34-.003c3.039-.001 6.077.001 9.116.006 3.863.005 7.726.002 11.589-.004 2.993-.004 5.987-.002 8.98 0 1.422 0 2.844 0 4.266-.002 25.051-.033 25.051-.033 30.998 4.491 4.672 5.48 4.858 10.795 4.836 17.645l.015 2.89c.007 2.011.006 4.021-.003 6.032-.008 3.068.02 6.135.052 9.203.002 1.958.001 3.917-.002 5.875l.034 2.766c-.06 5.584-.801 8.805-4.53 13.234-2.658 2.416-3.353 3-7 3l8 10-2 5c-2.383 1-2.383 1-5 1-1.992-1.188-1.992-1.188-3.875-3l-1.867-1.75C207 705 207 705 205.758 703.277c-2.628-3.285-4.631-5.043-8.818-5.912-3.814-.221-7.596-.23-11.413-.162-1.41-.002-2.82-.007-4.231-.016-3.699-.015-7.396.009-11.095.044-5.921.05-11.843.048-17.765.033-2.06.002-4.118.024-6.178.049l-3.813.008-3.34.03c-4.874-.551-8.105-2.27-11.417-5.851-2.228-3.3-2.813-5.802-2.85-9.693l-.028-2.549-.013-2.746-.017-2.837c-.01-1.98-.016-3.962-.02-5.943-.01-3.022-.041-6.044-.072-9.066-.007-1.926-.012-3.853-.016-5.78l-.038-2.727c.021-5.86.753-10.294 4.866-14.804 4.77-3.713 7.751-4.48 13.709-4.484ZM105.183 332.482l2.456-.02a688.35 688.35 0 0 1 8.013.007l5.586-.012c3.9-.006 7.799.003 11.698.022 4.992.022 9.982.01 14.974-.015 3.844-.014 7.688-.01 11.532 0 1.84.003 3.68 0 5.52-.01 2.576-.01 5.15.006 7.725.028l2.291-.024c5.136.082 8.118 1.219 12.022 4.542 1.932 2.808 2.254 5.044 2.275 8.414l.029 2.62-.003 2.806.013 2.906c.006 2.027.006 4.053.002 6.08-.003 3.097.02 6.193.045 9.29.003 1.97.003 3.94.002 5.911l.028 2.8c-.035 4.844-.133 8.304-3.391 12.173-5.234 2.982-9.502 3.4-15.438 3.187l-2.216-.04A417.918 417.918 0 0 1 163 393l.07 2.703.055 3.547.07 3.516c-.186 3.08-.5 4.702-2.195 7.234-1.688 1-1.688 1-4 1-5.238-2.465-9.411-5.848-13.79-9.61-2.616-1.645-4.174-1.667-7.21-1.39v-4c-3.629-2.42-6.357-2.313-10.555-2.344l-2.238-.044c-2.36-.047-4.721-.08-7.082-.112-3.102-.041-6.203-.095-9.305-.156l-2.147-.016c-3.979-.08-7.13-.47-10.673-2.328-4-4.216-4-4.216-4-8l-2-1c.07-5.284.157-10.567.262-15.85.034-1.796.062-3.591.084-5.387.034-2.59.087-5.178.142-7.767l.02-2.41c.162-6.232 1.086-11.103 5.592-15.753 3.717-2.35 6.823-2.396 11.083-2.35Z"/><path fill="#90C5AA" d="M848 592c1.754.4 3.503.82 5.25 1.25l2.953.703c3.273 1.225 4.733 2.225 6.797 5.047 2.14 7.199-.514 13.648-2.586 20.633-.381 1.323-.762 2.646-1.14 3.97-.997 3.47-2.01 6.935-3.028 10.4-1.232 4.208-2.446 8.42-3.661 12.633-.947 3.278-1.897 6.555-2.854 9.83l-1.041 3.57-.918 3.132A96.262 96.262 0 0 0 846 671c2.295 1.148 3.516 1.105 6.063 1.066l2.54-.03 2.752-.044 5.764-.05c3.03-.031 6.06-.067 9.091-.113 2.924-.043 5.847-.066 8.77-.087l2.722-.056c6.389-.026 10.798 1.056 16.236 4.564 1.905 3.139 1.65 5.158 1.062 8.75-1.883 3.082-4.442 5.47-7 8a6540.87 6540.87 0 0 0-3.559 3.563 828.72 828.72 0 0 1-5.846 5.806c-3.054 3.01-5.996 6.05-8.779 9.315-5.125 5.944-10.798 11.366-16.379 16.879-6.378 6.3-12.67 12.56-18.437 19.437a133.549 133.549 0 0 1-3.438 2.938c-2.407 1.996-4.458 4.018-6.46 6.417-4.905 5.676-10.217 10.946-15.519 16.247a1626.899 1626.899 0 0 0-5.331 5.37l-3.42 3.426-1.594 1.616C800.4 788.823 800.4 788.823 797 790c-3.752-.134-6.227-.525-9.438-2.5-2.34-3.743-2.107-7.254-1.562-11.5 1.28-4.337 3.002-8.458 4.75-12.625.744-1.83 1.488-3.66 2.23-5.491.52-1.282 1.042-2.562 1.566-3.842 2.875-7.028 5.607-14.11 8.334-21.196 1.052-2.732 2.108-5.462 3.164-8.193L809 717c-2.004-2.004-6.047-1.16-8.797-1.176-1.614-.023-3.23-.047-4.844-.072a904.296 904.296 0 0 0-7.656-.078 634.176 634.176 0 0 1-7.375-.1l-2.298.006c-4.963-.114-7.57-1.003-11.03-4.58-1.688-3.063-1.688-3.063-2-7 1.43-3.985 3.733-7.448 6-11l2.621-4.195c2.019-3.22 4.054-6.43 6.098-9.633 3.332-5.234 6.59-10.513 9.843-15.797 4.367-7.08 8.809-14.1 13.349-21.07a999.278 999.278 0 0 0 8.467-13.238c1.495-2.376 2.998-4.747 4.5-7.118 2.205-3.48 4.37-6.98 6.524-10.492l3.41-5.457 1.56-2.591c3.315-5.246 5.608-7.684 11.628-9.409 2.652-.512 2.652-.512 4.938-.688l2.34-.199L848 593v-1Zm-20.628 27.414c-2.048 3.86-4.446 7.455-6.872 11.086a1415.72 1415.72 0 0 0-2.715 4.184l-1.374 2.124c-6.637 10.312-13.125 20.72-19.616 31.123a3620.5 3620.5 0 0 1-9.982 15.881l-1.537 2.436a955.138 955.138 0 0 1-6.592 10.33l-1.934 2.985-1.64 2.503c-1.276 1.852-1.276 1.852-1.11 3.934l3.608.044c4.421.058 8.842.135 13.262.218 1.913.034 3.826.062 5.738.084 2.751.034 5.501.086 8.251.142l2.59.02c3.388.083 5.984.25 9.122 1.586 2.263 3.018 1.838 5.219 1.429 8.906a88.688 88.688 0 0 1-2.746 7.785l-.869 2.213c-.93 2.36-1.876 4.712-2.822 7.064-.643 1.623-1.285 3.247-1.925 4.87-3.913 9.89-7.889 19.76-12.06 29.545-1.757 4.184-3.072 7.966-3.578 12.523 5.388-3.264 9.577-7.302 13.996-11.766l2.278-2.28a2273.53 2273.53 0 0 0 4.748-4.77c2.399-2.417 4.806-4.827 7.214-7.235 1.546-1.55 3.09-3.1 4.635-4.652l2.154-2.157c3.239-3.27 6.388-6.57 9.389-10.06 4.133-4.786 8.606-9.207 13.098-13.654l2.699-2.688c2.823-2.81 5.65-5.619 8.476-8.426 3.737-3.709 7.47-7.422 11.2-11.136l2.588-2.564 2.418-2.408 2.117-2.1c2.144-2.266 4.051-4.661 5.99-7.104a279.297 279.297 0 0 1 5-5l-1-2-1.871-.018c-6.424-.064-12.848-.148-19.272-.244-2.397-.034-4.795-.062-7.193-.084-3.446-.034-6.89-.086-10.336-.142l-3.252-.02-3.032-.06-2.665-.033c-2.891-.485-4.285-1.367-6.379-3.399-.913-6.208 1.225-11.732 3.125-17.563.649-2.055 1.294-4.11 1.938-6.167l.988-3.158c1.74-5.704 3.266-11.463 4.805-17.223a474.498 474.498 0 0 1 5.672-19.525c1.086-3.557 1.715-6.64 1.472-10.364-16.105-3.263-20.53 2.59-27.628 16.414Z"/><path fill="#DCDCDD" d="m159.925 178.839 2.445-.015c2.672-.015 5.344-.022 8.017-.027l5.58-.017c3.902-.01 7.805-.017 11.709-.02 4.988-.006 9.977-.03 14.966-.058 3.844-.019 7.688-.024 11.533-.026 1.838-.003 3.676-.01 5.514-.024 2.58-.017 5.16-.015 7.74-.008l2.278-.028c7.343.057 13.976 2.067 19.293 7.384 3.87 5.477 5.116 10.506 5.145 17.122l.02 3.015.003 3.226.01 3.352c.005 2.337.007 4.675.007 7.012.002 3.562.02 7.123.04 10.685.003 2.275.005 4.55.005 6.826l.022 3.208c-.027 8.901-.81 16.893-7.252 23.554-6.745 5.093-13.24 5.096-21.297 4.93-1.866-.011-3.732-.019-5.598-.024-2.91-.008-5.816-.03-8.726-.108-14.3-.359-23.331 1.924-34.638 10.845-2.575 2.007-5.275 3.794-7.991 5.607l-2.453 1.703c-2.901 1.322-4.315 1.068-7.297.047-2.454-2.454-2.384-3.547-2.688-6.938l-.261-2.652C156 275 156 275 157 272h-5v-3l-1.574-.664c-5.978-2.718-9.625-5.589-12.54-11.656-.997-3.016-1.153-5.455-1.177-8.628l-.038-3.561-.007-3.823-.02-3.957c-.012-2.761-.016-5.522-.015-8.284 0-3.52-.027-7.04-.061-10.56-.028-3.379-.027-6.758-.029-10.137l-.043-3.804c.041-8.005.668-14.045 6.54-19.985l2.026-1.379 2.036-1.433c4.153-2.465 8.156-2.283 12.827-2.29ZM153 190l4 1Zm5 0v2l-3.25-.813c-3.718-.593-3.718-.593-5.953 1.516-2.796 5.13-2.348 10.11-2.293 15.86l-.005 3.709c.002 2.585.014 5.17.034 7.756.03 3.957.021 7.913.008 11.87.006 2.513.015 5.026.025 7.54l-.008 3.586.038 3.347.016 2.935c.46 3.191 1.524 5.086 3.388 7.694 3.577 2.402 7.575 2.7 11.758 3.34C164 261 164 261 166 264c.414 2.48.414 2.48.625 5.187l.227 2.731L167 274l1-2 2.082-.313c4.163-.98 7.131-3.26 10.605-5.687 8.888-6.1 8.888-6.1 13.56-6.246l2.536-.1c1.766-.06 3.531-.118 5.297-.172l2.541-.103 2.326-.076c2.36-.199 2.36-.199 5.053-2.303l1 2c3.375.088 6.75.14 10.125.187l2.883.077c5.43.056 9.322-.146 13.992-3.264 1.544-1.836 1.544-1.836 2-4-.338-2.02-.338-2.02-1-4v-4l2-1v-46l-2 2 .25-2.813c.09-3.191.09-3.191-1.871-4.865-3.072-1.707-5.183-1.683-8.692-1.663l-3.872.001-4.17.047a1935.774 1935.774 0 0 0-15.529.087c-3.825.03-7.649.044-11.473.06-6.707.028-13.413.072-20.12.126-5.84.047-11.682.02-17.523.02Zm83 4 1 2Zm1 50v7h1v-7h-1Z"/><path fill="#DBDCDD" d="m234.168 413.867 3.567-.004c3.818-.003 7.635.004 11.452.012l3.929.007c8.961.018 17.923.06 26.884.118l3.215.019c5.364.034 10.727.09 16.091.19 1.53.027 3.059.048 4.588.061 16.353.165 16.353.165 22.612 6.176 4.125 4.681 5.739 8.198 5.785 14.389l.038 3.56.007 3.84.02 3.96c.012 2.768.016 5.535.015 8.302 0 3.528.027 7.056.061 10.584.028 3.385.027 6.769.029 10.153l.043 3.814c-.041 8.079-.859 13.64-6.215 19.975l-1.664 1.352-1.648 1.398c-5.623 3.49-11.224 3.524-17.62 3.518l-2.889.02c-3.143.019-6.286.023-9.429.025l-6.576.02c-4.59.012-9.182.016-13.774.015-5.873 0-11.746.027-17.619.061-4.526.022-9.052.026-13.579.025-2.164.003-4.33.012-6.494.027-3.032.02-6.064.014-9.096.002l-2.69.034c-6.794-.068-12.054-1.783-17.234-6.274-6.182-8.271-6.287-18.03-6.243-28.031l-.005-2.975c-.002-2.058.002-4.116.01-6.174.011-3.124 0-6.248-.012-9.373 0-2.013.003-4.027.007-6.04l-.012-2.789c.07-9.932.997-18.618 8.278-25.864 7.577-5.107 17.384-4.148 26.168-4.133ZM213 429l1 2h-3c-1.112 6.18-1.09 12.179-.984 18.445l.05 3.297c.037 2.292.078 4.583.121 6.874.063 3.504.104 7.008.145 10.513l.121 6.691.029 3.17c.04 7.072.04 7.072 3.518 13.01 4.605 2.493 9.095 2.296 14.193 2.29l2.781.02c3.028.02 6.056.024 9.085.026l6.325.02c4.417.012 8.835.016 13.252.015 5.657 0 11.314.027 16.97.061 4.355.022 8.708.026 13.062.025 2.086.003 4.171.012 6.257.027 2.918.02 5.835.014 8.752.002l2.603.034c5.341-.056 8.587-.81 12.72-4.52 1.942-3.456 2.255-6.414 2.275-10.338l.029-3.155-.003-3.378.013-3.5c.006-2.44.006-4.88.002-7.32-.003-3.73.02-7.457.045-11.186.003-2.373.003-4.746.002-7.12l.028-3.37c.04-7.805.04-7.805-3.391-14.633-5.125-2.293-9.928-2.296-15.43-2.29l-2.82-.02c-3.066-.02-6.13-.024-9.195-.026l-6.403-.02c-4.467-.012-8.934-.016-13.4-.015-5.728 0-11.456-.027-17.184-.061-4.404-.022-8.808-.026-13.213-.025-2.112-.003-4.224-.012-6.337-.027-2.949-.02-5.897-.014-8.847-.002l-2.648-.034c-4.89.051-7.459.29-10.523 4.52ZM320 600h23v1l2.022-.016c12.201-.082 24.406-.095 36.603.266l2.81.043c6.951.255 12.23 1.887 17.588 6.418l1.352 1.664 1.398 1.648c3.987 6.425 3.533 13.226 3.528 20.532l.013 3.683c.006 2.567.006 5.134.002 7.701-.003 3.915.02 7.83.045 11.745.003 2.498.003 4.997.002 7.496l.028 3.53c-.049 8.61-1.017 15.916-7.391 22.29-8.03 5.25-15.22 7.465-24.75 7.293l-2.723-.013c-2.843-.017-5.685-.054-8.527-.092a4032.62 4032.62 0 0 0-5.816-.042A2313.21 2313.21 0 0 1 345 695v-1c-4.262-.357-6.257.46-9.688 2.957l-2.617 1.873-2.695 1.982c-1.77 1.28-3.54 2.557-5.313 3.833l-2.363 1.73c-6.636 4.641-6.636 4.641-10.012 4.563C310 710 310 710 308.75 708.438c-1.388-4.513-2.272-8.872-.75-13.438a99.485 99.485 0 0 0 0-5l-1.688-.625c-5.403-3.213-7.667-7.512-9.312-13.375-.24-2.821-.394-5.556-.45-8.379l-.067-2.428c-.068-2.585-.12-5.17-.17-7.755-.02-.878-.038-1.755-.057-2.659-.424-20.414-.424-20.414-.131-30.216l.029-2.372c.339-7.116 3.768-11.86 8.409-17.066 4.332-3.395 10.139-3.55 15.437-4.125v-1Zm-11.788 16.849c-1.516 2.692-1.592 4.492-1.6 7.575l-.029 3.287.019 3.535-.01 3.646c-.001 2.545.004 5.09.017 7.634.016 3.893 0 7.786-.02 11.68.003 2.471.007 4.943.013 7.415l-.019 3.53.029 3.296.007 2.89c.554 3.869 2.1 6.65 5.17 9.077l1.836 1.211c2.529 2.023 3.287 3.006 4.05 6.203.236 2.74.36 5.423.325 8.172 1.485-.76 2.963-1.533 4.438-2.313l2.496-1.3c2.372-1.287 2.372-1.287 3.066-4.387l2.25-.313c2.954-.738 4.403-1.81 6.75-3.687 2.946-.982 4.872-1.13 7.943-1.142l3.044-.021 3.286-.013c2.292-.023 4.584-.047 6.875-.072 3.617-.035 7.233-.065 10.85-.078 3.488-.015 6.975-.056 10.463-.1l3.274.006c6.014-.078 6.014-.078 11.424-2.49 6.736-7.644 4.027-23.802 4.026-33.548.003-2.696.02-5.393.04-8.089.003-1.716.005-3.432.005-5.148l.022-2.44c.16-4.401.16-4.401-2.252-7.865l.688-1.75c.615-2.576.615-2.576-1.875-5.438-4.375-4.374-7.829-3.94-13.889-3.973l-2.135-.015c-2.324-.015-4.648-.022-6.973-.027l-4.857-.017c-3.391-.01-6.783-.017-10.175-.02-4.342-.006-8.684-.03-13.027-.058-3.343-.019-6.686-.024-10.03-.026-1.6-.003-3.2-.01-4.801-.024a638.68 638.68 0 0 0-6.72-.008l-3.86-.011c-4.546.499-6.988 1.963-10.134 5.216Z"/><path fill="#D9DADB" d="m143.209 630.87 3.886-.009 4.214.006 4.34-.003c3.039-.001 6.077.001 9.116.006 3.863.005 7.726.002 11.589-.004 2.993-.004 5.987-.002 8.98 0 1.422 0 2.844 0 4.266-.002 25.051-.033 25.051-.033 30.998 4.491 4.672 5.48 4.858 10.795 4.836 17.645l.015 2.89c.007 2.011.006 4.021-.003 6.032-.008 3.068.02 6.135.052 9.203.002 1.958.001 3.917-.002 5.875l.034 2.766c-.06 5.584-.801 8.805-4.53 13.234-2.658 2.416-3.353 3-7 3l8 10-2 5c-2.383 1-2.383 1-5 1-1.992-1.188-1.992-1.188-3.875-3l-1.867-1.75C207 705 207 705 205.758 703.277c-2.628-3.285-4.631-5.043-8.818-5.912-3.814-.221-7.596-.23-11.413-.162-1.41-.002-2.82-.007-4.231-.016-3.699-.015-7.396.009-11.095.044-5.921.05-11.843.048-17.765.033-2.06.002-4.118.024-6.178.049l-3.813.008-3.34.03c-4.874-.551-8.105-2.27-11.417-5.851-2.228-3.3-2.813-5.802-2.85-9.693l-.028-2.549-.013-2.746-.017-2.837c-.01-1.98-.016-3.962-.02-5.943-.01-3.022-.041-6.044-.072-9.066-.007-1.926-.012-3.853-.016-5.78l-.038-2.727c.021-5.86.753-10.294 4.866-14.804 4.77-3.713 7.751-4.48 13.709-4.484Zm-8.627 10.908c-1.7 2.388-2.08 3.402-2.068 6.284l-.018 2.387.043 2.551.003 2.645c.006 1.842.022 3.685.046 5.527.037 2.818.041 5.635.04 8.453.01 1.792.022 3.583.036 5.375l.007 2.55.038 2.387.024 2.09c.313 2.31 1.131 3.953 2.267 5.973 10.266.07 20.531.123 30.797.155 4.767.016 9.533.037 14.3.071 4.597.033 9.194.05 13.79.059 1.758.005 3.514.016 5.271.032 2.455.022 4.908.025 7.363.024l2.217.032c2.23.022 2.23.022 5.262-.373 2.015-3.022 2.256-3.646 2.306-7.04l.049-2.448.016-2.633c.01-.896.018-1.793.027-2.716.015-1.896.024-3.791.028-5.687.011-2.9.06-5.797.111-8.697.01-1.841.017-3.683.022-5.525l.059-2.627-.019-2.457.016-2.153c-.99-3.25-2.76-4.284-5.615-6.017-3.458-.603-3.458-.603-7.297-.518l-2.17-.02a535.753 535.753 0 0 0-7.068.007 3484.86 3484.86 0 0 1-4.927-.012c-3.438-.006-6.874.003-10.312.022-4.404.022-8.807.01-13.211-.015-3.39-.014-6.78-.01-10.169 0-1.624.003-3.248 0-4.871-.01-2.27-.01-4.538.006-6.807.028l-3.911.01c-3.309.26-3.309.26-5.675 2.286Z"/><path fill="#D9D9DA" d="m105.183 332.482 2.456-.02a688.35 688.35 0 0 1 8.013.007l5.586-.012c3.9-.006 7.799.003 11.698.022 4.992.022 9.982.01 14.974-.015 3.844-.014 7.688-.01 11.532 0 1.84.003 3.68 0 5.52-.01 2.576-.01 5.15.006 7.725.028l2.291-.024c5.136.082 8.118 1.219 12.022 4.542 1.932 2.808 2.254 5.044 2.275 8.414l.029 2.62-.003 2.806.013 2.906c.006 2.027.006 4.053.002 6.08-.003 3.097.02 6.193.045 9.29.003 1.97.003 3.94.002 5.911l.028 2.8c-.035 4.844-.133 8.304-3.391 12.173-5.234 2.982-9.502 3.4-15.438 3.187l-2.216-.04A417.918 417.918 0 0 1 163 393l.07 2.703.055 3.547.07 3.516c-.186 3.08-.5 4.702-2.195 7.234-1.688 1-1.688 1-4 1-5.238-2.465-9.411-5.848-13.79-9.61-2.616-1.645-4.174-1.667-7.21-1.39v-4c-3.629-2.42-6.357-2.313-10.555-2.344l-2.238-.044c-2.36-.047-4.721-.08-7.082-.112-3.102-.041-6.203-.095-9.305-.156l-2.147-.016c-3.979-.08-7.13-.47-10.673-2.328-4-4.216-4-4.216-4-8l-2-1c.07-5.284.157-10.567.262-15.85.034-1.796.062-3.591.084-5.387.034-2.59.087-5.178.142-7.767l.02-2.41c.162-6.232 1.086-11.103 5.592-15.753 3.717-2.35 6.823-2.396 11.083-2.35ZM98 343c-.176 3.085-.231 6.08-.195 9.164l.008 2.75c.011 2.903.037 5.807.062 8.711.01 1.966.02 3.932.027 5.898.022 4.826.057 9.651.098 14.477l3.222-.035c3.994-.033 7.987-.013 11.982.023 1.72.008 3.439.002 5.158-.019 11.528-.127 18.948.64 27.638 9.031 3.565 3.547 3.565 3.547 8 5l.113-2.082.2-2.73.175-2.708c.601-2.912 1.19-3.678 3.512-5.48 2.237-.4 2.237-.4 4.816-.441l2.815-.08 2.931-.042c1.919-.034 3.837-.076 5.754-.128l2.577-.038c2.324-.08 2.324-.08 4.107-2.271.212-2.834.304-5.567.3-8.402l.014-2.526c.006-1.765.006-3.529.002-5.293-.003-2.702.02-5.403.045-8.105.003-1.713.003-3.426.002-5.139l.028-2.453c.031-4.084.031-4.084-1.447-7.796-2.968-1.963-5.973-1.695-9.413-1.658l-2.297-.011c-2.507-.008-5.013.005-7.52.02-1.739 0-3.479 0-5.218-.002-3.646 0-7.292.01-10.938.029-4.68.023-9.36.023-14.04.016-3.591-.003-7.183.004-10.775.013-1.726.004-3.452.005-5.178.004-2.409 0-4.817.012-7.225.028l-2.175-.007c-4.03-.068-4.03-.068-7.165 2.282Z"/><path fill="#DDDDDE" d="M277.84 302.77h2.2c1.524.004 3.05.012 4.575.024 2.313.018 4.625.02 6.938.02 1.491.005 2.983.011 4.474.018l2.062.003c12.628.123 12.628.123 15.911 2.79l2 2.375c1.367 1.156 2.743 2.3 4.125 3.438 3.073 2.646 4.71 4.598 5.875 8.562l2 1c3.16 7.55 3.482 16.687.832 24.398-2.08 4.331-3.879 7.755-7.5 10.973-3.07 3.46-2.93 5.566-2.957 10.129-.085 8.51-.085 8.51-3.375 12.5-1.898.75-1.898.75-4 1a78.871 78.871 0 0 1-7.188-4.625c-1.339-.931-2.68-1.86-4.023-2.785l-1.964-1.36c-4.084-2.752-8.426-5.03-12.825-7.23l-1 2c-12.359-.796-24.546-1.69-33.5-11.375-3.661-4.882-6.9-10.473-7.5-16.625l-.191-1.918c-.464-8.456 2.139-16.07 7.629-22.52 7.325-7.638 7.325-7.638 12.562-8.562l3.143-1.009c3.987-1.024 7.617-1.264 11.697-1.221Zm-3.082 10.148-2.633.27-2.617.23c-2.845.66-4.387 1.594-6.508 3.582v2l-2.313.125c-2.927.64-2.927.64-4.375 3.5-2.866 6.572-2.866 6.572-2.312 13.375v1c.467 5.023 1.837 8.067 5 12 4.966 3.828 8.616 5.08 14.773 5.21l2.75.087c1.893.052 3.787.096 5.68.133 7.95.27 12.677 2.602 19.11 7.257 2.603 2.228 2.603 2.228 5.687 3.313l-.027-1.758c.24-6.348.24-6.348 2.511-8.93 1.23-.966 2.473-1.914 3.73-2.843 4.481-3.687 6.439-9.12 7.024-14.766.185-6.09-.442-10.792-4.238-15.703-6.655-6.146-12.077-7.2-20.875-7.625l-2.723-.156c-6.263-.346-6.263-.346-12.402.781l-1 1c-1.793-2.247-1.793-2.247-4.242-2.082Z"/><path fill="#DCDCDD" d="M161 468a403.52 403.52 0 0 1 3 3l2.125.813L168 473c.563 2.563.563 2.563 1 6 .498 1.487 1.02 2.966 1.563 4.438 2.813 8.386 1.077 15.646-2.563 23.562l-2.602 2.832c-3.086 4.077-3.107 6.827-3.085 11.793-.11 9.752-.11 9.752-2.313 12.375-2.29.945-2.29.945-5 1-2.648-1.258-2.648-1.258-5.375-3.125l-2.71-1.82C144 528 144 528 142.426 526.66c-4.92-4.014-8.832-4.29-15.052-4.223-12.482-.293-22.136-1.985-31.344-11.06-5.843-6.842-7.123-13.888-7.594-22.628l-.13-2.258c-.106-1.83-.207-3.661-.307-5.492h2c.23-.52.461-1.039.7-1.574 4.055-8.672 11.207-15.498 20.112-19.238 16.683-5.464 36.03-2.163 50.188 7.812Zm-57.371 9.125c-4.475 5.15-5.237 10.552-5.047 17.156.864 5.62 3.892 9.269 7.918 13.094 4.205 2.734 7.69 3.866 12.703 3.863l2.973.05c2.034.016 4.067.021 6.101.015 8.156.165 13.463 2.36 19.849 7.362 1.762 1.528 1.762 1.528 3.874 1.335l.008-2.16c.258-6.398 1.064-9.794 5.558-14.375 3.287-3.359 3.577-6.832 3.746-11.34-.107-4.792-.933-7.961-3.312-12.125-1.883-1.725-1.883-1.725-4-3l-2-2.063c-2.75-2.664-4.68-3.949-8.578-3.914l-2.672.352-2.703.336L136 472v-3c-17.61-.67-17.61-.67-32.371 8.125ZM137 470v1h5v-1h-5Z"/><path fill="#DBDBDC" d="M237 560h3v2l2.982-.108c3.65-.13 7.301-.253 10.952-.374 1.58-.054 3.16-.109 4.74-.166 2.272-.082 4.543-.157 6.814-.23l2.14-.083c3.11-.094 5.39-.033 8.372.961 1.512 2.192 2.032 3.454 1.875 6.125-1.195 2.56-2.249 2.874-4.875 3.875-3.016.195-3.016.195-6.25.125l-3.266-.055L261 572v2l-2-1c-2.72-.083-5.414-.105-8.134-.082l-2.548.01c-1.83.007-3.66.016-5.489.027-2.895.018-5.791.028-8.687.036-8.235.025-16.47.06-24.704.105-5.034.027-10.068.044-15.102.055-1.919.006-3.838.016-5.756.03-2.686.02-5.372.026-8.058.03l-2.401.027c-5.351-.01-9.257-.374-13.121-4.238-.25-2.5-.25-2.5 0-5 3.322-3.322 7.654-2.952 12.189-3.114l3.281.016 3.75.01 3.99.025 4.134.012c4.344.011 8.687.03 13.031.051 5.056.024 10.112.044 15.167.056 2.024.006 4.048.019 6.071.032l3.693.01 3.267.016c2.376.161 2.376.161 3.427-1.114Z"/><path fill="#DCDCDD" d="m209 587 4.19.054c3.964.054 7.928.127 11.892.21 1.607.032 3.213.06 4.82.082 2.273.033 4.544.085 6.817.142l2.09.02c2.858.088 4.776.202 7.154 1.864C247 591 247 591 246.875 593.562 246 596 246 596 243 598c-1.901.319-1.901.319-4.012.414l-2.295.117-2.38.094-2.417.117c-1.965.094-3.93.177-5.896.258v1h-38v-1h-13v1h-7c-3.052-5.372-3.052-5.372-2.813-8.25C166 590 166 590 168 588c1.945-.319 1.945-.319 4.34-.414l2.688-.118 2.91-.093 3.032-.113A555.963 555.963 0 0 1 209 587ZM237.896 443.725l2.15-.015c2.349-.014 4.698-.013 7.048-.01a2751.149 2751.149 0 0 1 15.136-.015c4.385.005 8.77-.012 13.155-.035 3.365-.015 6.73-.016 10.094-.013 1.617 0 3.234-.005 4.851-.015 2.258-.013 4.516-.006 6.774.006l3.898-.002L304 444c2.18 3.27 2.369 4.217 2 8l-2 4h-48v-1l-2.263-.06c-3.371-.095-6.741-.205-10.112-.315-1.176-.03-2.351-.062-3.563-.094l-3.398-.117-3.142-.095C231 454 231 454 229 452c-.25-3-.25-3 0-6 2.87-2.87 4.876-2.26 8.896-2.275ZM279 454v1h9v-1h-9Zm10 0v1h6v-1h-6Z"/><path fill="#EC875E" d="M328 231c4.443 1.743 7.058 4.415 9 8.75 1.36 4.54 1.484 8.726 0 13.25-2.447 3.843-5.22 6.48-9 9v2h-8l-1-2-2.75-1.25c-3.72-2.003-6.28-4.022-8.25-7.75-1.46-5.066-1.595-9.515.563-14.375 4.577-7.64 11.023-9.005 19.437-7.625Z"/><path fill="#DDD" d="m173.943 206.839 3.044-.03 3.286-.012 3.382-.017c2.362-.01 4.724-.016 7.086-.02 3.613-.01 7.225-.041 10.837-.073 2.294-.006 4.589-.011 6.883-.015l3.274-.038c9.59.029 9.59.029 13.265 3.366.438 2.562.438 2.562 0 5-4.675 4.675-15.453 3.16-21.8 3.168l-3.027.01c-2.095.005-4.19.007-6.286.007-3.208.003-6.415.02-9.623.04-2.043.003-4.085.005-6.127.005l-2.901.022-2.702-.01-2.367.005c-2.48-.283-4.07-.904-6.167-2.247-.937-2.438-.937-2.438-1-5 2.804-3.926 6.412-4.126 10.943-4.161Z"/><path fill="#DCDCDD" d="M241.79 464.74c4.794.564 9.64.402 14.46.385l3.297.012 3.156-.004 2.864-.004c2.574-.029 2.574-.029 5.433-1.129v2c4.646-.485 4.646-.485 9-2v2l2.875-.187L286 466c2 3 2 3 1.938 5.5-.938 2.5-.938 2.5-2.96 4.152-3.912 1.77-7.368 1.622-11.56 1.422l-2.467-.08a895.643 895.643 0 0 1-7.763-.306c-1.76-.064-3.52-.126-5.28-.186-4.303-.15-8.606-.321-12.908-.502l-1 3v-3l-2.52.105-3.292.083-3.27.105C232 476 232 476 230.133 474.648c-1.593-2.317-1.485-3.9-1.133-6.648 3.877-3.877 7.605-4.097 12.79-3.26Z"/><path fill="#DBDCDD" d="m405.045 302.807 3.185-.049c4.8-.044 9.6-.085 14.4-.108 2.537-.017 5.073-.044 7.61-.082 3.648-.055 7.295-.077 10.944-.091l3.447-.07 3.195.01 2.815-.025c2.359.608 2.359.608 4.225 3.004C456 308 456 308 455.313 310.25 454 312 454 312 452 313a87.876 87.876 0 0 1-4.953.161l-3.125.03-3.387.012-3.467.017c-2.424.01-4.847.016-7.27.02-3.717.01-7.432.041-11.148.072-2.35.007-4.701.012-7.052.016l-3.381.038-3.135-.01-2.76.011C400 313 400 313 398.17 311.673 397 310 397 310 397.188 306.875L398 304c2.5-1.25 4.246-1.154 7.045-1.193Z"/><path fill="#DDDDDE" d="m329.023 631.823 3.247-.039 3.535-.022 3.606-.025c2.524-.014 5.047-.024 7.57-.032 3.87-.017 7.74-.061 11.609-.105 2.446-.01 4.893-.019 7.34-.026l3.523-.053 3.265.009 2.878-.018c2.404.488 2.404.488 4.277 2.35C381 636 381 636 380.313 638.686 379 641 379 641 377 642a80.704 80.704 0 0 1-4.738.161l-2.984.03-3.235.012-3.319.017c-2.32.01-4.642.016-6.963.02-3.549.01-7.097.04-10.646.072-2.253.007-4.506.012-6.76.016l-3.217.038c-9.099-.028-9.099-.028-13.138-3.366 1.06-7.115 1.06-7.115 7.023-7.177Z"/><path fill="#DCDCDD" d="m170.035 229.725 2.518-.029 2.724.003 2.795-.013c1.953-.006 3.906-.006 5.858-.002 2.992.003 5.983-.02 8.974-.045 1.895-.003 3.79-.003 5.686-.002l2.718-.028 2.528.019 2.222-.002c2.508.483 3.424 1.35 4.942 3.374-.245 3.342-.605 4.605-3 7-1.815.267-1.815.267-4.035.29l-2.518.04-2.724.006-2.795.02c-1.953.01-3.906.015-5.858.015-2.992.004-5.983.04-8.974.078-1.895.006-3.79.01-5.686.012l-2.718.043c-6.184-.045-6.184-.045-8.792-2.4-.9-2.104-.9-2.104-.713-4.229 1.572-3.627 3.138-4.126 6.848-4.15Z"/><path fill="#DBDCDC" d="M399 325a76.681 76.681 0 0 1 8.621-.363l2.593-.002c1.812.003 3.623.012 5.435.029 2.774.023 5.547.02 8.322.014 1.758.005 3.517.012 5.275.021l2.52-.003c3.913.049 5.905.085 9.234 2.304 1.04 2.398 1.127 3.574.379 6.086C440 335 440 335 437.445 335.609l-3.32.141-3.781.16c-1.448.033-2.896.063-4.344.09l-2.488.062c-2.63.06-5.258.097-7.887.125l-2.519.04c-5.368.007-9.948-.727-15.106-2.227-.625-2.813-.625-2.813-1-6l2-3Z"/><path fill="#DDDDDE" d="m294.75 328.188 3.922.167c3.769.73 5.1 1.557 7.328 4.645-.25 2.75-.25 2.75-1 5l-1.938.375L301 339l-1 2c-4.563-.11-9.125-.24-13.688-.375-1.293-.03-2.587-.062-3.92-.094l-3.779-.117-3.475-.095c-4.251-.432-7.099-1.28-10.138-4.319.125-2.5.125-2.5 1-5 7.056-4.904 20.383-3.174 28.75-2.813Z"/><path fill="#D9D9DA" d="m118.05 484.832 2.456-.01c1.72-.005 3.439-.007 5.158-.007 2.627-.002 5.254-.02 7.88-.04 1.67-.003 3.338-.005 5.007-.005l2.38-.022c3.832.016 6.824.079 10.069 2.252-.608 3.405-1.49 5.581-4 8-2.82.393-5.244.538-8.063.496l-2.386.005a435.732 435.732 0 0 1-4.993-.034c-2.549-.03-5.095-.021-7.644-.008-1.617-.006-3.234-.015-4.852-.025l-2.31.008c-5.222-.093-5.222-.093-7.772-1.774-.98-1.668-.98-1.668-.73-4.793 1.417-5.432 4.907-4.036 9.8-4.043Z"/><path fill="#D9DADA" d="M325 655c5.09-.05 10.18-.086 15.271-.11 1.732-.01 3.465-.024 5.197-.04 2.487-.025 4.974-.036 7.462-.045l2.355-.032c1.906 0 3.812.105 5.715.227 2 2 2 2 2.313 4.438C363 662 363 662 361.95 663.63c-2.955 2.074-5.984 1.837-9.47 1.838l-2.23.023c-1.558.01-3.116.013-4.673.009-2.371-.001-4.74.04-7.11.085-1.516.005-3.033.008-4.549.008l-2.131.05c-5.645-.079-7.928-1.85-11.787-5.644l3-1c1.209-2 1.209-2 2-4Z"/><path fill="#E1E1E2" d="m399 332 41 1v2c-8.148.755-16.257 1.127-24.438 1.188l-2.543.039c-5.066.008-9.219-.592-14.019-2.227v-2Z"/><path fill="#E3E3E5" d="M151 487c-.607 3.4-1.485 5.593-4 8-2.797.285-5.171.33-7.95.172l-2.34-.085a627.899 627.899 0 0 1-7.398-.337c-1.672-.068-3.344-.135-5.017-.2-4.1-.161-8.197-.349-12.295-.55v-1l34-1v-4l-35-1v-1c4.893-.193 9.785-.372 14.679-.537 1.664-.058 3.327-.12 4.99-.187 2.395-.094 4.79-.175 7.186-.253l2.242-.097c4.122-.119 7.201.212 10.903 2.074Z"/><path fill="#D6D6D7" d="M244 588v1c-52.18 1.418-52.18 1.418-76 0v-1c25.404-1.357 50.59-.801 76 0Z"/><path fill="#E4E3E4" d="M376.313 275.188 378 276l-2.875 2.25c-4.481 3.764-5.355 6.998-6.125 12.75-.194 3.694-.256 7.388-.316 11.086l-.063 3.203c-.066 3.362-.125 6.724-.183 10.086l-.131 6.855c-.107 5.59-.209 11.18-.307 16.77h-1c-.05-7.117-.086-14.233-.11-21.35-.01-2.42-.024-4.838-.04-7.257-.025-3.485-.037-6.97-.045-10.455l-.032-3.256c0-7.248-.002-13.808 4.602-19.745C374 275 374 275 376.313 275.188Z"/><path fill="#E1E2E2" d="m323 657 2 1v4l34 1-1 2c-4.447.124-8.894.215-13.342.275-1.512.025-3.023.059-4.533.102-2.18.061-4.359.09-6.54.111l-3.966.08c-4.683-.735-6.278-2.302-9.619-5.568l3-1v-2Z"/><path fill="#E5E6E7" d="M365 534h54c.87 4.35 1.036 5.971 0 10h-1l-2-8-3.54.035c-15.836.103-31.637-.435-47.46-1.035v-1Z"/><path fill="#E4E3E5" d="M452 305h3l1 3-2 4h-53v-1h51v-6Z"/><path fill="#E1E1E1" d="M97 390c4.502-.074 9.004-.129 13.507-.165 1.532-.015 3.063-.035 4.595-.061 2.202-.037 4.403-.054 6.605-.067.685-.015 1.369-.03 2.074-.047 4.779-.002 4.779-.002 7.175 1.858L132 393c-4.663.074-9.326.129-13.99.165-1.586.015-3.173.035-4.76.061-2.279.037-4.557.054-6.836.067-.711.015-1.423.03-2.156.047-2.002 0-2.002 0-5.258-.34l-2-3Z"/><path fill="#E1E2E2" d="m382 455 1 2h34v1l-41 1v3l6 1v1c-2.333.042-4.667.04-7 0-1-1-1-1-1.125-4 .125-3 .125-3 1.125-4 2.328-.368 4.662-.702 7-1Z"/><path fill="#DAD9DB" d="M269 338h34l-2 1-1 2c-3.933-.094-7.866-.2-11.798-.317-1.995-.057-3.99-.105-5.985-.152l-3.799-.117-3.507-.095C272 340 272 340 269 338Z"/><path fill="#D5D5D5" d="M237 560h3v2h32v1c-5.174.17-10.347.33-15.521.482-1.755.053-3.509.108-5.263.166-10.16.334-20.092.456-30.216-.648 3.53-2.354 4.968-2.188 9.125-2.063 1.958.054 3.917.083 5.875.063l1-1Z"/><path fill="#E3E3E4" d="M162 392h17v1h-16l.125 6.25c.147 7.374.147 7.374-2.125 10.75-1.75.938-1.75.938-4 1-3.25-1.438-3.25-1.438-6-3l2-2 7 2 2-16Z"/><path fill="#E0E0E1" d="M432 601c2.302 2.302 2.758 3.849 3.688 6.938l.824 2.652C437 613 437 613 436 616l-1-1-1 2 2 1-1 2 2 1 2-1 1 5-6-2c-.693-2.858-.994-5.295-.938-8.25-.064-3.894-.75-7.181-1.722-10.93L431 602l1-1Z"/><path fill="#9DCDB3" d="m768 709 3 2c3.33.865 6.431 1.12 9.863 1.098l2.686-.01 2.764-.025 2.822-.014c2.288-.012 4.577-.028 6.865-.049l1 2c-4.082.255-8.165.475-12.25.688l-3.512.22-3.379.166-3.11.175c-3.201-.29-4.522-.955-6.749-3.249v-3Z"/><path fill="#E3E3E4" d="M158 271h1l1 13c5.478.447 5.478.447 8-1v3c-2.464 1.551-3.68 2.03-6.625 1.75C159 287 159 287 157 285c.023-3.258.023-3.258.375-7.125l.336-3.883L158 271Z"/><path fill="#E3E2E3" d="M328 329h1c1.129 7.939 2.062 15.229-3 22l-3 1c1.828-5.614 1.828-5.614 3.031-8.313 1.104-3.062 1.38-5.756 1.594-9l.227-3.238L328 329Z"/><path fill="#85C0A2" d="M893 682c0 3 0 3-2.625 5.918a349.634 349.634 0 0 1-3.375 3.27l-1.734 1.693c-1.416 1.38-2.84 2.75-4.266 4.119l-2-1c4.38-5.103 8.676-9.874 14-14Z"/><path fill="#E1E2E2" d="M363 657v5l-3 1 1-5-17-1v-1c2.416-.222 4.832-.428 7.25-.625l2.066-.195c3.807-.296 6.462-.356 9.684 1.82Z"/><path fill="#D3D4D5" d="M309 692h1l.184 3.43.253 4.445.12 2.262c.159 4.063.159 4.063 1.443 7.863l-3-1c-2.665-11.522-2.665-11.522 0-17Z"/><path fill="#E1E1E2" d="m330 486 2 1a319.501 319.501 0 0 1-1.313 4.313l-.738 2.425c-.99 2.362-2.03 3.6-3.949 5.262l-3-1 1.813-1.5c2.884-3.296 3.806-6.356 5.187-10.5Z"/><path fill="#E1E1E1" d="M368 347c5 7.5 5 7.5 5 10l4 2-2 2a654.039 654.039 0 0 1-3.438-3.813l-1.933-2.144C368 353 368 353 367 350l1-3Z"/><path fill="#E6E6E7" d="m434 613 1 2-1 2 2 1-1 2 2 1 2-1 1 5-6-2c-.95-3.695-.95-6.305 0-10Z"/><path fill="#E3E3E5" d="M424 379c2 2 2 2 2.188 5.313-.155 3.034-.475 5.744-1.188 8.687-2.366-3.549-2.109-4.576-1.625-8.688l.336-3.011L424 379Z"/><path fill="#E3E3E4" d="M315 360h1c.248 2.791.474 5.581.688 8.375l.22 2.406c.166 2.305.166 2.305.092 6.219l-3 2-2-2 2-1c.312-2.714.513-5.34.625-8.063l.117-2.298c.095-1.88.177-3.76.258-5.639Z"/><path fill="#E3E4E5" d="M320 463h1v23h-1v-23Z"/><path fill="#E6E6E6" d="M398 304h7v1h-5v6l-2 1c-1.125-5.75-1.125-5.75 0-8Z"/><path fill="#E0DFE1" d="M469 354v2l-5 1-1 5-2-4c3.5-4 3.5-4 8-4Z"/><path fill="#E2E1E2" d="M151 472a56.54 56.54 0 0 1 7 4l-1 2-3 1-3-7Z"/><path fill="#E1E1E2" d="M316 415c3.125.688 3.125.688 6 2l1 3-10-3 3-2Z"/><path fill="#9DCFB3" d="M787 778h1l.813 3.313c1.064 3.304 1.534 4.637 4.187 6.687-4.875-.875-4.875-.875-6-2-.141-2.67-.042-5.324 0-8Z"/><path fill="#DFE0E1" d="M220 691v3c-3 2-3 2-6 2l-1 2c.125-1.813.125-1.813 1-4 3.063-1.75 3.063-1.75 6-3Z"/><path fill="#E3EEE3" d="M797 772c1.231 2.463 1.072 4.28 1 7l-4 2c.308-1.314.622-2.626.938-3.938l.527-2.214C796 773 796 773 797 772Z"/><path fill="#E1E2E3" d="m216 633 6 4-2 3c-2-1.813-2-1.813-4-4v-3Z"/><path fill="#E1E0E1" d="M379 353c5.415-.37 5.415-.37 8.375 1.5L389 356c-6.523.37-6.523.37-8.938-1.5L379 353Z"/><path fill="#E1E2E2" d="M94 335c2.125.375 2.125.375 4 1l-2.375 1.875c-2.593 2.024-2.593 2.024-4.625 4.125.75-4.75.75-4.75 3-7Z"/><path fill="#E4E4E3" d="M344 600h15v1h-15v-1Z"/><path fill="#E2E3E5" d="M320 433h1v13h-1v-13Z"/><path fill="#E2AA8F" d="m312 259 7 4c-1.813.688-1.813.688-4 1-1.75-1.313-1.75-1.313-3-3v-2Z"/><path fill="#E2E3E3" d="M227 599h12v1h-12v-1ZM176 599h11v1h-11v-1Z"/><path fill="#E3E4E5" d="M237 455h10v1h-10v-1Z"/><path fill="#DFDFE0" d="M208 191h10v1h-10v-1Z"/><path fill="#E1E1E2" d="M208 270h8l-2 2c-3.125-.375-3.125-.375-6-1v-1Z"/><path fill="#DADCDC" d="m201 700 3 3-3 1-1-3 1-1Z"/><path fill="#E3E2E3" d="M399 365h7l-2 2c-2.625-.375-2.625-.375-5-1v-1Z"/><path fill="#E2E3E3" d="M177 228h8v1h-8v-1Z"/><path fill="#E1E1E1" d="M120 470h7v1h-7v-1Z"/><path fill="#E3E4E5" d="M320 455h1v7h-1v-7Z"/><path fill="#E2E3E4" d="M320 447h1v7h-1v-7Z"/><path fill="#E3E3E4" d="M383 365h7v1h-7v-1Z"/><path fill="#E7E7E8" d="m440 635 2 2-1 3-1-5Z"/><path fill="#E2E2E3" d="M343 613h6v1h-6v-1Z"/><path fill="#E3E3E4" d="M207 573h6v1h-6v-1Z"/><path fill="#E3E2E4" d="M199 573h6v1h-6v-1Z"/><path fill="#E2E2E3" d="M128 470h6v1h-6v-1Z"/><path fill="#DBD9D9" d="M255 241h1v6h-1v-6Z"/><path fill="#E2E2E4" d="M186 228h6v1h-6v-1Z"/><path fill="#DEDEDE" d="M220 191h6v1h-6v-1Z"/><path fill="#DFDFDF" d="M195 191h6v1h-6v-1Z"/><path fill="#DEDEDF" d="M164 191h6v1h-6v-1Z"/><path fill="#E2E3E4" d="m457 668 2 4-2-1v-3Z"/><path fill="#E1E2E2" d="M308 619h1v5h-1v-5Z"/><path fill="#E2E2E4" d="m394 618 2 1v2h-2v-3Z"/><path fill="#E3E4E4" d="M386 614h5v1h-5v-1Z"/><path fill="#E1E2E2" d="M313 614h5v1h-5v-1Z"/><path fill="#E5E5E4" d="M378 600h5v1h-5v-1Z"/><path fill="#E4E5E3" d="M370 600h5v1h-5v-1Z"/><path fill="#E2E2E3" d="M263 573h5v1h-5v-1Z"/><path fill="#E2E3E4" d="M191 573h5v1h-5v-1Z"/><path fill="#E2E2E4" d="M175 573h5v1h-5v-1Z"/><path fill="#E4E4E5" d="M213 488h2l-1 3-1-3Z"/><path fill="#E1E2E2" d="M157 464h3v2l-3-1v-1Z"/><path fill="#E6E7E8" d="M423 365h3v2l-3-1v-1Z"/><path fill="#E2E2E3" d="M319 362h1v5h-1v-5Z"/><path fill="#E7E7E7" d="M142 331h5v1h-5v-1Z"/><path fill="#E0E1E1" d="M193 270h5v1h-5v-1Z"/><path fill="#DEDEE0" d="M148 241h1v5h-1v-5Z"/><path fill="#DEDEDF" d="M148 235h1v5h-1v-5Z"/><path fill="#D7D5D5" d="M255 218h1v5h-1v-5Z"/><path fill="#CFCFD0" d="M190 177h5v1h-5v-1Z"/><path fill="#DFE0DF" d="m363 680 4 1Z"/><path fill="#DFE1DF" d="m653 614 3 1h-3v-1Z"/><path fill="#E3E3E3" d="m375 613 4 1Z"/><path fill="#E2E2E3" d="m340 613 3 1h-3v-1Z"/><path fill="#E4E4E4" d="m312 600 4 1Z"/><path fill="#E9E8E9" d="m426 587 1 4Z"/><path fill="#E1E2E3" d="m247 573 4 1Z"/><path fill="#E1E1E1" d="m767 542 1 2-3-1 2-1Z"/><path fill="#E2E3E4" d="m239 477 4 1Z"/><path fill="#E1E1E1" d="m116 471 4 1Z"/><path fill="#EAEBEC" d="m416 438 1 4Z"/><path fill="#E8E8EA" d="m418 411 1 4Z"/><path fill="#E2E3E2" d="m394 365 4 1Z"/><path fill="#E8E8E9" d="m458 362 1 2-3-1 2-1Z"/><path fill="#E4E3E4" d="M305 316h3l-1 2-2-2Z"/><path fill="#E7E6E7" d="m472 289 1 4Z"/><path fill="#E1E1E0" d="m227 270 4 1Z"/><path fill="#E1E1E1" d="m194 257 4 1Z"/><path fill="#DEA78E" d="m304 253 4 1Z"/><path fill="#DEA78C" d="M304 243h2l-1 3-1-3Z"/><path fill="#DEDEDF" d="m148 227 1 4Z"/><path fill="#E2E2E3" d="m193 228 4 1Z"/><path fill="#E2E1E2" d="m170 228 4 1Z"/><path fill="#DDDDDE" d="m233 191 4 1Z"/><path fill="#DFDFE0" d="m187 191 4 1Z"/><path fill="#CECECF" d="m212 177 4 1Z"/><path fill="#DADCDC" d="m472 686 2 2h-2v-2Z"/><path fill="#D8D8DA" d="m541 685 1 2-2-1 1-1Z"/><path fill="#DFE0DF" d="m387 680 3 1Z"/><path fill="#E6E5E7" d="m448 654 2 2h-2v-2Z"/><path fill="#DFE1E2" d="m604 645 1 2-2-1 1-1Z"/><path fill="#AFD4C0" d="m817 616 2 1-2 1v-2Z"/><path fill="#E3E3E3" d="m328 613 3 1Z"/><path fill="#B2D5BF" d="M826 601h2l-1 2-1-2Z"/><path fill="#E2E2E4" d="m308 601 3 1Z"/><path fill="#E4E6E5" d="m385 600 3 1Z"/><path fill="#E3E2E3" d="m255 573 3 1Z"/><path fill="#E3E3E4" d="m223 573 3 1Z"/><path fill="#E3E4E5" d="m215 573 3 1Z"/><path fill="#E1E2E2" d="M142 512h2l-1 2-1-2Z"/><path fill="#E2E4E4" d="m208 502 2 2h-2v-2Z"/><path fill="#E3E3E5" d="m201 494 1 2-2-1 1-1Z"/><path fill="#E2E2E3" d="m128 483 3 1Z"/><path fill="#E0E3E2" d="m135 482 1 2-2-1 1-1Z"/><path fill="#E3E2E3" d="m236 477 2 1-2 1v-2Z"/><path fill="#E2E2E2" d="m271 477 3 1Z"/><path fill="#E2E2E4" d="M267 477h2l-1 2-1-2Z"/><path fill="#E3E3E4" d="m255 477 3 1Z"/><path fill="#E6E8E7" d="m410 425 3 1Z"/><path fill="#DCDDDE" d="m832 419 3 1Z"/><path fill="#E4E5E6" d="m152 411 3 1Z"/><path fill="#E4E2E5" d="m415 365 3 1Z"/><path fill="#E4E3E4" d="m408 365 3 1Z"/><path fill="#E4E4E5" d="m376 363 3 1Z"/><path fill="#E2E2E2" d="m301 360 3 1Z"/><path fill="#E5E5E5" d="m421 352 3 1Z"/><path fill="#E2E3E4" d="m288 341 2 1-2 1v-2Z"/><path fill="#E8E8E9" d="m168 331 3 1Z"/><path fill="#E9E8E8" d="m160 331 3 1Z"/><path fill="#E6E7E7" d="m150 331 3 1Z"/><path fill="#E3E3E3" d="m181 277 1 2-2-1 1-1Z"/><path fill="#E3E2E4" d="m203 228 3 1Z"/><path fill="#DEDDE0" d="M240 219h2l-1 2-1-2Z"/><path fill="#DDDEDE" d="m229 191 3 1Z"/><path fill="#CCCDCD" d="m173 177 3 1Z"/><path fill="#99C5AA" d="m846 743 2 1Z"/><path fill="#D7D8D9" d="m524 695 2 1Z"/><path fill="#D7DADA" d="m340 694 2 1Z"/><path fill="#DFDFE0" d="m376 680 2 1Z"/><path fill="#DFE0E0" d="m357 680 2 1Z"/><path fill="#E0E0E1" d="m352 680 2 1Z"/><path fill="#DFE0DF" d="m341 680 2 1Z"/><path fill="#DEE0DF" d="m464 679 2 1Z"/><path fill="#DFDEE0" d="m563 671 2 1Z"/><path fill="#E0E2E2" d="m342 666 2 1Z"/><path fill="#DFE0DF" d="m589 655 2 1Z"/><path fill="#DFE0E0" d="m601 647 2 1Z"/><path fill="#E3E4E5" d="m383 613 2 1Z"/><path fill="#E4E4E4" d="m367 613 2 1Z"/><path fill="#E3E4E5" d="m360 613 2 1Z"/><path fill="#E3E3E4" d="m336 613 2 1Z"/><path fill="#E4E5E3" d="m389 600 2 1Z"/><path fill="#E3E4E4" d="m365 600 2 1Z"/><path fill="#E3E4E2" d="m360 600 2 1ZM317 600l2 1Z"/><path fill="#B5D6C2" d="m845 592 2 1Z"/><path fill="#E3E3E3" d="m239 573 2 1Z"/><path fill="#E3E3E2" d="m227 573 2 1Z"/><path fill="#E2E2E4" d="m183 573 2 1Z"/><path fill="#E5E6E6" d="m234 560 2 1Z"/><path fill="#E5E5E5" d="m213 560 2 1ZM197 560l2 1Z"/><path fill="#E4E5E6" d="m170 560 2 1Z"/><path fill="#E3E6E6" d="m754 550 2 1Z"/><path fill="#E0E2E0" d="m362 535 2 1Z"/><path fill="#E2E3E3" d="m888 527 2 1Z"/><path fill="#E3E6E5" d="m880 527 2 1Z"/><path fill="#E4E5E6" d="m872 527 2 1Z"/><path fill="#E5E6E6" d="m848 527 2 1Z"/><path fill="#E7E8E7" d="m800 527 2 1Z"/><path fill="#E4E6E6" d="m791 527 2 1Z"/><path fill="#DFE1E0" d="m899 526 2 1Z"/><path fill="#DDD" d="m126 523 2 1Z"/><path fill="#E1E1E3" d="m150 495 2 1Z"/><path fill="#E2E4E5" d="m267 493 2 1Z"/><path fill="#E2E3E3" d="m280 477 2 1Z"/><path fill="#E3E2E2" d="m275 477 2 1Z"/><path fill="#E3E2E3" d="m262 477 2 1Z"/><path fill="#E3E1E4" d="m259 477 2 1Z"/><path fill="#E3E2E4" d="m251 477 2 1Z"/><path fill="#E3E3E3" d="m247 477 2 1Z"/><path fill="#E6E5E4" d="m262 464 2 1Z"/><path fill="#E5E5E5" d="m246 464 2 1Z"/><path fill="#E3E5E6" d="m253 455 2 1Z"/><path fill="#E4E4E4" d="m248 455 2 1Z"/><path fill="#E1E2E3" d="m232 455 2 1Z"/><path fill="#E2E5E5" d="m297 442 2 1Z"/><path fill="#E6E6E6" d="m413 438 2 1Z"/><path fill="#E4E5E5" d="m406 425 2 1Z"/><path fill="#E8E8E9" d="m417 416 2 1Z"/><path fill="#E2E1E2" d="m208 416 2 1Z"/><path fill="#DFE1DF" d="m773 408 2 1Z"/><path fill="#E1E3E2" d="m288 367 2 1Z"/><path fill="#E4E4E3" d="m419 365 2 1Z"/><path fill="#E3E3E5" d="m391 365 2 1Z"/><path fill="#E2E2E4" d="m266 365 2 1Z"/><path fill="#E7E6E8" d="m465 352 2 1Z"/><path fill="#E6E7E6" d="m429 352 2 1Z"/><path fill="#E4E7E7" d="m418 352 2 1Z"/><path fill="#E5E5E5" d="m394 352 2 1Z"/><path fill="#E2E2E3" d="m285 352 2 1Z"/><path fill="#E1E2E2" d="m270 352 2 1Z"/><path fill="#E5E3E5" d="m269 340 2 1Z"/><path fill="#E6E7E8" d="m154 331 2 1Z"/><path fill="#E4E5E6" d="m128 331 2 1Z"/><path fill="#E3E3E4" d="m415 323 2 1Z"/><path fill="#E1E1E3" d="m311 319 2 1Z"/><path fill="#E3E2E3" d="m286 315 2 1Z"/><path fill="#DBDBDC" d="m620 312 2 1Z"/><path fill="#E2E1E4" d="m401 301 2 1Z"/><path fill="#E2DFE1" d="m380 285 2 1Z"/><path fill="#E5E4E6" d="m467 284 2 1Z"/><path fill="#E2E3E5" d="m422 283 2 1Z"/><path fill="#E0DFDF" d="m190 271 2 1Z"/><path fill="#E2E2E2" d="m219 270 2 1Z"/><path fill="#E2E2E4" d="m207 257 2 1Z"/><path fill="#E3E3E3" d="m204 257 2 1Z"/><path fill="#E2E0E1" d="m156 257 2 1Z"/><path fill="#D2D2D2" d="m493 248 2 1Z"/><path fill="#E1E2E3" d="m198 228 2 1Z"/><path fill="#DFE0E1" d="m192 191 2 1Z"/><path fill="#DEDDDE" d="m160 191 2 1Z"/><path fill="#C8C9CA" d="m231 177 2 1Z"/><path fill="#CECECF" d="m220 177 2 1Z"/><path fill="#CFCECF" d="m207 177 2 1Z"/><path fill="#CDCDCE" d="m183 177 2 1Z"/><path fill="#CCC" d="m170 177 2 1Z"/></svg>