<?xml version="1.0" encoding="UTF-8"?>
<svg version="1.1" xmlns="http://www.w3.org/2000/svg" width="1024" height="1024">
<path d="M0 0 C12.26253065 7.40289609 23.58918795 15.84769983 34.26953125 25.37011719 C35.76877347 26.68348272 37.26866911 27.99610315 38.76953125 29.30761719 C39.37796875 29.84644531 39.98640625 30.38527344 40.61328125 30.94042969 C42.12060242 32.2415607 43.69246432 33.46696143 45.26953125 34.68261719 C45.92953125 35.23949219 46.58953125 35.79636719 47.26953125 36.37011719 C47.26953125 37.03011719 47.26953125 37.69011719 47.26953125 38.37011719 C47.92953125 38.37011719 48.58953125 38.37011719 49.26953125 38.37011719 C49.26953125 39.03011719 49.26953125 39.69011719 49.26953125 40.37011719 C50.13578125 40.71042969 50.13578125 40.71042969 51.01953125 41.05761719 C53.86544506 42.71773358 55.26795046 44.76199676 57.26953125 47.37011719 C57.99140625 48.09199219 58.71328125 48.81386719 59.45703125 49.55761719 C68.13850915 58.23909509 75.51048009 67.72967792 82.86572266 77.53271484 C84.09143741 79.13701558 85.36976561 80.70084255 86.65625 82.25683594 C88.26953125 84.37011719 88.26953125 84.37011719 88.26953125 86.37011719 C88.92953125 86.37011719 89.58953125 86.37011719 90.26953125 86.37011719 C90.56448486 86.91611572 90.85943848 87.46211426 91.16333008 88.0246582 C94.21491917 93.60424731 97.50844571 98.96694237 100.95703125 104.30761719 C106.78785762 113.46355656 112.20320609 122.77076426 117.26953125 132.37011719 C117.97311768 133.70139648 117.97311768 133.70139648 118.69091797 135.05957031 C149.64048073 194.12190769 167.70483287 262.88156937 162.33203125 329.87011719 C162.24501953 331.00320313 162.15800781 332.13628906 162.06835938 333.30371094 C161.98134766 334.4290625 161.89433594 335.55441406 161.8046875 336.71386719 C161.71977051 337.81472656 161.63485352 338.91558594 161.54736328 340.04980469 C161.35847912 342.30711976 161.1449886 344.56248212 160.90966797 346.81542969 C160.80025879 347.89566406 160.69084961 348.97589844 160.578125 350.08886719 C160.47169678 351.05759766 160.36526855 352.02632813 160.25561523 353.02441406 C159.99587921 355.56506478 159.99587921 355.56506478 162.26953125 357.37011719 C165.50987616 360.01506303 168.81861369 362.56796634 172.12866211 365.12475586 C181.98375091 372.77256637 191.31048825 380.7081258 199.26953125 390.37011719 C199.965625 391.17835938 200.66171875 391.98660156 201.37890625 392.81933594 C231.09763096 427.9181746 243.21104889 471.86762121 240.06298828 517.35449219 C238.60888728 532.9235434 234.95556606 548.20626923 231.26953125 563.37011719 C231.0526062 564.26444458 230.83568115 565.15877197 230.61218262 566.0802002 C229.09815048 572.30767463 227.56119712 578.52909008 226.00387573 584.74588013 C225.47691149 586.85331327 224.95335496 588.96160173 224.43338013 591.07077026 C223.69149064 594.07083513 222.93374816 597.06647914 222.171875 600.06152344 C221.84538467 601.39771225 221.84538467 601.39771225 221.51229858 602.76089478 C219.64031327 610.00479031 217.10542865 617.30428217 211.95703125 622.87011719 C206.90150569 625.69180587 202.61876952 627.06270894 196.89453125 625.49511719 C188.37260187 622.17127188 181.67855084 614.96420681 175.08203125 608.83886719 C173.39936889 607.16025602 173.39936889 607.16025602 171.26953125 607.37011719 C169.5725298 605.73434775 167.91131756 604.06129821 166.26953125 602.37011719 C156.88204981 593.90486633 146.79320095 586.45614393 136.56933594 579.04394531 C134.45236642 577.50318703 132.34663556 575.94878932 130.24609375 574.38574219 C123.9323931 569.69328112 117.55236135 565.12878209 111.01953125 560.74511719 C110.38692383 560.31875977 109.75431641 559.89240234 109.10253906 559.453125 C106.50541015 557.73069888 104.24116636 556.36066222 101.26953125 555.37011719 C101.14819824 556.07845703 101.02686523 556.78679688 100.90185547 557.51660156 C96.670582 576.61124416 84.60247529 607.92528701 67.56640625 619.15136719 C60.39533271 623.13112528 53.38468643 624.61095751 45.26953125 625.37011719 C46.20247924 628.23560029 47.1501018 631.07154356 48.26953125 633.87011719 C57.87988348 657.89599776 53.16268941 683.00509471 43.33691406 705.99023438 C40.76461811 711.72553651 37.69797878 717.10216127 34.26953125 722.37011719 C33.87427246 722.98097168 33.47901367 723.59182617 33.07177734 724.22119141 C20.82437849 742.95558012 6.77271552 761.04614959 -9.1574707 776.79663086 C-10.97069507 778.61041807 -12.68111851 780.49020595 -14.35546875 782.43261719 C-14.93425781 783.0990625 -15.51304687 783.76550781 -16.109375 784.45214844 C-17.54282822 786.14811357 -18.91839538 787.87664872 -20.29296875 789.62011719 C-24.61658765 794.4980462 -28.90918355 797.13102522 -35.41796875 797.68261719 C-45.0339754 797.42083842 -50.69439102 790.89180436 -56.92578125 784.37792969 C-59.61852538 781.5112311 -62.23725295 778.59259563 -64.78125 775.59277344 C-66.3482256 773.80598162 -67.94339503 772.08203852 -69.5859375 770.36621094 C-78.02227195 761.52973923 -85.46086249 752.18013866 -92.73046875 742.37011719 C-94.06435193 740.58251967 -95.40013356 738.79636946 -96.73730469 737.01123047 C-97.83663762 735.54136141 -98.93026889 734.06723277 -100.0234375 732.59277344 C-101.68732234 730.32653188 -101.68732234 730.32653188 -103.73046875 728.37011719 C-104.72046875 728.37011719 -105.71046875 728.37011719 -106.73046875 728.37011719 C-107.32779694 725.6074743 -107.73046875 723.2097895 -107.73046875 720.37011719 C-108.94828817 718.06754176 -110.20105852 715.84801718 -111.54296875 713.62011719 C-114.32253264 708.97578259 -116.69053279 704.38951797 -118.73046875 699.37011719 C-119.39046875 699.37011719 -120.05046875 699.37011719 -120.73046875 699.37011719 C-121.29296875 697.43261719 -121.29296875 697.43261719 -121.73046875 695.37011719 C-121.40046875 695.04011719 -121.07046875 694.71011719 -120.73046875 694.37011719 C-121.00761719 693.44070313 -121.28476562 692.51128906 -121.5703125 691.55371094 C-121.93253906 690.3175 -122.29476562 689.08128906 -122.66796875 687.80761719 C-123.20744141 685.98037109 -123.20744141 685.98037109 -123.7578125 684.11621094 C-128.92936642 664.1984591 -125.8388903 643.58696029 -116.73046875 625.37011719 C-117.65666016 625.31404297 -117.65666016 625.31404297 -118.6015625 625.25683594 C-126.23423195 624.66434561 -132.89619037 623.19291201 -139.48046875 619.18261719 C-142.68182918 617.3972431 -144.16082114 616.93743263 -147.73046875 617.37011719 C-147.73046875 616.38011719 -147.73046875 615.39011719 -147.73046875 614.37011719 C-147.07046875 614.04011719 -146.41046875 613.71011719 -145.73046875 613.37011719 C-146.16037109 612.7997876 -146.59027344 612.22945801 -147.03320312 611.6418457 C-151.96440284 604.88161185 -155.68151065 597.87039917 -159.23046875 590.30761719 C-159.79145264 589.12546631 -160.35243652 587.94331543 -160.93041992 586.7253418 C-164.09093899 580.01409918 -167.1803018 573.27675627 -170.04296875 566.43261719 C-170.46835937 565.4241272 -170.46835937 565.4241272 -170.90234375 564.39526367 C-172.23474677 561.09920581 -172.73046875 558.99996596 -172.73046875 555.37011719 C-179.23953409 558.81105423 -185.29178575 562.67373224 -191.29296875 566.93261719 C-192.16066895 567.54468018 -193.02836914 568.15674316 -193.92236328 568.78735352 C-214.54210261 583.39882966 -234.33080335 599.07453383 -253.46875 615.57324219 C-265.55737736 625.95879053 -265.55737736 625.95879053 -272.10546875 626.80761719 C-277.22729474 626.18946577 -281.67799478 624.83027687 -285.08618164 620.74511719 C-288.47871262 615.35189882 -290.3678411 609.99552992 -292.04296875 603.87011719 C-292.33292725 602.84112305 -292.62288574 601.81212891 -292.92163086 600.75195312 C-298.25529087 581.56155501 -302.99346157 562.20586425 -307.23046875 542.74511719 C-307.48578369 541.58399414 -307.74109863 540.42287109 -308.00415039 539.2265625 C-308.23352295 538.14729492 -308.46289551 537.06802734 -308.69921875 535.95605469 C-308.89966797 535.01810059 -309.10011719 534.08014648 -309.30664062 533.11376953 C-309.7628595 530.16043558 -309.80301483 527.35384939 -309.73046875 524.37011719 C-310.72046875 524.37011719 -311.71046875 524.37011719 -312.73046875 524.37011719 C-312.73046875 522.06011719 -312.73046875 519.75011719 -312.73046875 517.37011719 C-313.39046875 517.37011719 -314.05046875 517.37011719 -314.73046875 517.37011719 C-314.40046875 516.71011719 -314.07046875 516.05011719 -313.73046875 515.37011719 C-313.07046875 515.70011719 -312.41046875 516.03011719 -311.73046875 516.37011719 C-311.7461792 515.46994873 -311.76188965 514.56978027 -311.77807617 513.64233398 C-312.25655221 482.02859419 -312.25655221 482.02859419 -309.484375 468.14746094 C-308.70049738 464.21994975 -308.1871075 460.34686437 -307.73046875 456.37011719 C-307.07046875 456.37011719 -306.41046875 456.37011719 -305.73046875 456.37011719 C-305.63636719 455.4175 -305.54226563 454.46488281 -305.4453125 453.48339844 C-301.53712286 426.47828213 -282.09827338 401.40787214 -263.73046875 382.37011719 C-263.00601563 381.59410156 -262.2815625 380.81808594 -261.53515625 380.01855469 C-257.18514128 375.47591913 -252.52693455 371.45856535 -247.60546875 367.55761719 C-246.74441528 366.87300415 -246.74441528 366.87300415 -245.8659668 366.17456055 C-241.99958098 363.17364309 -238.02683912 360.71508269 -233.73046875 358.37011719 C-233.73046875 356.72011719 -233.73046875 355.07011719 -233.73046875 353.37011719 C-233.40046875 354.03011719 -233.07046875 354.69011719 -232.73046875 355.37011719 C-232.40046875 355.04011719 -232.07046875 354.71011719 -231.73046875 354.37011719 C-231.96800879 351.83331135 -232.26602679 349.33122285 -232.60546875 346.80761719 C-236.71149336 313.66958331 -235.40998429 280.35663214 -229.4074707 247.5559082 C-228.23220078 241.04033817 -227.45931295 234.99202716 -227.73046875 228.37011719 C-227.07046875 228.37011719 -226.41046875 228.37011719 -225.73046875 228.37011719 C-225.4830896 227.39292725 -225.4830896 227.39292725 -225.23071289 226.39599609 C-212.88135066 178.05260677 -193.40040355 132.34827879 -164.73046875 91.37011719 C-164.0044043 90.32742676 -164.0044043 90.32742676 -163.26367188 89.26367188 C-148.55698742 68.24220046 -131.96237695 49.36894701 -113.73046875 31.37011719 C-113.21226562 30.83644531 -112.6940625 30.30277344 -112.16015625 29.75292969 C-108.75838789 26.46269471 -104.97299801 23.58125852 -101.28515625 20.62158203 C-99.80186183 19.42758593 -98.3283971 18.22140903 -96.85546875 17.01464844 C-65.74108386 -7.82014054 -36.51867543 -21.22688549 0 0 Z M-311.73046875 516.37011719 C-311.73046875 518.68011719 -311.73046875 520.99011719 -311.73046875 523.37011719 C-311.40046875 523.37011719 -311.07046875 523.37011719 -310.73046875 523.37011719 C-310.73046875 521.06011719 -310.73046875 518.75011719 -310.73046875 516.37011719 C-311.06046875 516.37011719 -311.39046875 516.37011719 -311.73046875 516.37011719 Z M-105.73046875 724.37011719 C-104.73046875 726.37011719 -104.73046875 726.37011719 -104.73046875 726.37011719 Z " fill="#2D79D9" transform="translate(547.73046875,118.6298828125)"/>
<path d="M0 0 C81.84 0 163.68 0 248 0 C260.91803095 27.01042835 260.91803095 27.01042835 264.25 35.5 C264.85847778 37.03962402 264.85847778 37.03962402 265.47924805 38.61035156 C277.80295657 70.39241907 285.94169203 105.08135052 286.23828125 139.265625 C286.24802979 140.20923889 286.25777832 141.15285278 286.26782227 142.12506104 C286.43780093 162.86203359 286.01653449 182.92501435 282.58984375 203.41796875 C281.98768224 207.0748039 281.45623015 210.73671451 280.9375 214.40625 C277.97414062 234.78362617 273.43808097 254.73053253 268.55596924 274.72143555 C268.03008733 276.87669115 267.508446 279.03292945 266.98779297 281.18945312 C251.54501064 344.90997872 251.54501064 344.90997872 240 368 C163.44 368 86.88 368 8 368 C-16.71880602 312.38268646 -31.46664902 247.5126968 -37 187 C-37.08506302 186.10169968 -37.17012604 185.20339935 -37.25776672 184.27787781 C-37.88126026 177.34534502 -38.17289562 170.47454393 -38.203125 163.515625 C-38.20882507 162.45752625 -38.21452515 161.39942749 -38.22039795 160.30926514 C-38.22977734 158.0806984 -38.23635352 155.85211825 -38.24023438 153.62353516 C-38.24985659 150.29954182 -38.28091482 146.97619051 -38.3125 143.65234375 C-38.40856708 124.3879897 -36.70504128 105.41182082 -32.3125 86.625 C-31.9268689 84.95087036 -31.9268689 84.95087036 -31.53344727 83.24291992 C-27.23210804 65.07873081 -21.46959868 47.60988963 -14.5 30.3125 C-14.23686005 29.65480621 -13.97372009 28.99711243 -13.7026062 28.31948853 C-13.31505661 27.35660416 -13.31505661 27.35660416 -12.91967773 26.37426758 C-12.69602036 25.81790115 -12.47236298 25.26153473 -12.2419281 24.68830872 C-8.59679966 16.01345665 -4.50186231 8.44099183 0 0 Z " fill="#C0D7F6" transform="translate(388,274)"/>
<path d="M0 0 C3.47422985 2.86360764 6.74666609 5.889728 10 9 C10.75023437 9.66386719 11.50046875 10.32773437 12.2734375 11.01171875 C26.70369606 24.30274637 36.67858693 45.17402217 38.30200195 64.61694336 C38.43610898 68.37517458 38.46773335 72.1145475 38.4375 75.875 C38.43293793 76.86246216 38.43293793 76.86246216 38.42828369 77.86987305 C38.35989925 87.88378624 37.7160713 96.62299767 34 106 C33.57589844 107.16789062 33.15179687 108.33578125 32.71484375 109.5390625 C27.66738337 122.44593891 19.67286301 133.15743764 10 143 C9.32710937 143.68578125 8.65421875 144.3715625 7.9609375 145.078125 C-2.19267586 154.73736767 -14.62341759 161.1016817 -28 165 C-29.01449219 165.31839844 -30.02898437 165.63679687 -31.07421875 165.96484375 C-56.16069898 172.66074315 -81.64506972 167.37764349 -104.0234375 155.37890625 C-125.30730729 142.66347115 -140.1365772 121.69302067 -146.30859375 97.890625 C-146.65083984 96.45976562 -146.65083984 96.45976562 -147 95 C-147.1743457 94.41742432 -147.34869141 93.83484863 -147.52832031 93.23461914 C-150.57668938 78.79273402 -149.41347443 58.60445044 -144 45 C-143.62617188 43.95714844 -143.25234375 42.91429687 -142.8671875 41.83984375 C-133.71046341 17.85650349 -114.34017641 -0.19959852 -91.3046875 -10.72265625 C-61.30886188 -23.79675302 -26.25185246 -19.5665981 0 0 Z " fill="#2B77D9" transform="translate(567,328)"/>
<path d="M0 0 C6.94349259 3.75361637 13.25306299 8.35727048 19.51367188 13.14135742 C20.39796875 13.81166992 21.28226563 14.48198242 22.19335938 15.17260742 C27.88438985 19.60906568 33.18475609 24.41648163 38.45898438 29.33276367 C40.73002566 31.44693256 43.06124625 33.47649734 45.41601562 35.49682617 C49.51607242 39.07124713 53.25646694 42.90359907 56.95117188 46.89135742 C57.60657959 47.59671631 58.2619873 48.3020752 58.93725586 49.02880859 C91.51367188 84.32764484 91.51367188 84.32764484 91.51367188 93.14135742 C21.55367187 93.14135742 -48.40632813 93.14135742 -120.48632812 93.14135742 C-116.56602725 87.26090611 -112.65604261 81.54280601 -108.36132812 75.95385742 C-107.52045654 74.85811401 -107.52045654 74.85811401 -106.66259766 73.74023438 C-93.20982862 56.35287985 -78.35917821 39.27806966 -61.48632812 25.14135742 C-60.95185059 24.68776855 -60.41737305 24.23417969 -59.86669922 23.7668457 C-49.58968321 15.07347369 -38.91604551 7.25656475 -27.48632812 0.14135742 C-26.48214844 -0.48383789 -25.47796875 -1.1090332 -24.44335938 -1.75317383 C-15.34446696 -6.87394584 -8.98979647 -4.60348834 0 0 Z " fill="#BDD5F5" transform="translate(525.486328125,147.858642578125)"/>
<path d="M0 0 C11.17701303 8.68933928 18.459865 19.38160173 22.4921875 32.9375 C22.71777344 33.68644531 22.94335938 34.43539062 23.17578125 35.20703125 C27.16135223 50.46214774 23.31763722 66.51116647 15.53515625 79.90234375 C6.05993807 93.97929313 -6.79757654 103.36548139 -23.5078125 106.9375 C-35.3563388 107.82053676 -47.65032075 108.26663586 -58.5078125 102.9375 C-59.43335938 102.51339844 -60.35890625 102.08929688 -61.3125 101.65234375 C-75.66032999 94.51817344 -85.8024069 82.51070687 -91.0078125 67.4375 C-95.94392032 51.16662609 -94.49771752 34.97812125 -86.96875 19.84375 C-78.68644153 5.86980774 -65.55262259 -4.73959222 -49.86328125 -9.17578125 C-32.44460242 -13.24381189 -14.69445593 -10.11606462 0 0 Z " fill="#BDD5F5" transform="translate(546.5078125,355.0625)"/>
<path d="M0 0 C1.60608355 -0.00098518 3.21216775 -0.00494213 4.8182373 -0.01171875 C8.17443747 -0.01594786 11.52846403 0.0111274 14.88427734 0.06152344 C19.16891075 0.12400153 23.44978593 0.11522862 27.73464203 0.08377075 C31.04823029 0.06617823 34.36095848 0.08303333 37.67445374 0.1104126 C39.25314947 0.12005607 40.83193715 0.12001999 42.41062927 0.10980225 C56.21956093 0.05715858 56.21956093 0.05715858 61.42041016 4.47094727 C64.48178362 7.70797686 66.5136895 11.03741319 68.40625 15.0625 C68.96054687 16.20589844 69.51484375 17.34929688 70.0859375 18.52734375 C76.17103439 33.67430114 75.13442192 51.33065652 68.83203125 66.20703125 C58.21252597 90.2712917 40.29395843 110.95169602 21.53125 129.125 C18.0363819 127.89642862 15.71227773 126.68071201 13.15625 124 C12.55554688 123.3709375 11.95484375 122.741875 11.3359375 122.09375 C8.33706526 118.82225301 5.4175807 115.49614406 2.53125 112.125 C1.70625 111.18914062 0.88125 110.25328125 0.03125 109.2890625 C-18.13822153 88.50381643 -35.34308001 63.9341465 -33.46875 35.125 C-32.1908901 26.1366634 -29.44864577 17.75627447 -24.46875 10.125 C-24.01823776 9.39017395 -23.56772552 8.6553479 -23.1035614 7.89825439 C-16.89871252 -0.68693616 -9.67424939 -0.16697191 0 0 Z " fill="#B9D2F4" transform="translate(491.46875,741.875)"/>
<path d="M0 0 C0.28085449 1.26030029 0.56170898 2.52060059 0.85107422 3.8190918 C10.31227864 46.16433052 20.88715527 87.93800454 35 129 C34.14172607 129.57947388 34.14172607 129.57947388 33.26611328 130.1706543 C14.51099795 142.85066989 -3.88382956 155.87001497 -21.6640625 169.88671875 C-22.28313477 170.37446777 -22.90220703 170.8622168 -23.54003906 171.36474609 C-24.71799471 172.29413366 -25.89455253 173.22529722 -27.06933594 174.15869141 C-29.90042362 176.39779377 -32.76293692 178.56786736 -35.70556641 180.65893555 C-36.32557526 181.10005173 -36.94558411 181.54116791 -37.5843811 181.99565125 C-38.05153534 182.32708633 -38.51868958 182.65852142 -39 183 C-40.51956508 176.49547965 -42.03010917 169.98890821 -43.53491211 163.48095703 C-44.04594402 161.27541712 -44.55890716 159.07032363 -45.07397461 156.86572266 C-53.58845038 120.40353723 -53.58845038 120.40353723 -53.375 101.8125 C-53.36484863 100.51094971 -53.35469727 99.20939941 -53.34423828 97.8684082 C-53.19880523 88.88256191 -52.65570527 80.63356656 -50 72 C-49.81195801 71.35949707 -49.62391602 70.71899414 -49.43017578 70.05908203 C-44.40285082 53.22534236 -36.23270233 37.51206563 -25 24 C-24.54367187 23.43974121 -24.08734375 22.87948242 -23.6171875 22.30224609 C-5.42020896 0 -5.42020896 0 0 0 Z " fill="#BAD3F4" transform="translate(324,513)"/>
<path d="M0 0 C13.16552036 8.50670138 23.62019982 20.86764039 32 34 C32.39268066 34.60166992 32.78536133 35.20333984 33.18994141 35.82324219 C45.74820863 55.17732892 53.16928521 77.41150013 53.1875 100.5625 C53.19974609 101.35462891 53.21199219 102.14675781 53.22460938 102.96289062 C53.25628022 116.35965675 50.45157847 129.45240896 47.65087891 142.48803711 C47.12658111 144.93013543 46.61145227 147.37403237 46.09765625 149.81835938 C44.45352991 157.59058408 42.73495076 165.34465745 40.8671875 173.06640625 C40.63009567 174.07573463 40.63009567 174.07573463 40.38821411 175.10545349 C39.64659545 178.10030902 39.22371376 179.77628624 37 182 C36.40316406 181.50113281 35.80632812 181.00226563 35.19140625 180.48828125 C16.33921158 164.88549903 -3.50386728 150.8135384 -23.97875977 137.43041992 C-24.96158936 136.78306885 -25.94441895 136.13571777 -26.95703125 135.46875 C-27.83335205 134.89576172 -28.70967285 134.32277344 -29.61254883 133.73242188 C-31.99693623 132.00222319 -33.97975009 130.13822711 -36 128 C-35.56171875 126.8759375 -35.1234375 125.751875 -34.671875 124.59375 C-19.33706864 84.33781549 -9.11852309 42.03273358 0 0 Z " fill="#BCD4F5" transform="translate(700,513)"/>
<path d="M0 0 C66.66 0 133.32 0 202 0 C199.19301773 7.01745568 196.35573485 13.6533614 193 20.375 C192.57460938 21.25027344 192.14921875 22.12554688 191.7109375 23.02734375 C191.29070312 23.87167969 190.87046875 24.71601562 190.4375 25.5859375 C190.06496094 26.3392334 189.69242188 27.0925293 189.30859375 27.86865234 C187.73834135 30.42617164 186.34308714 32.09889975 184 34 C180.91646767 34.51453781 180.91646767 34.51453781 177.21939087 34.53485107 C176.19768455 34.54844441 176.19768455 34.54844441 175.15533769 34.56231236 C172.87362743 34.58762742 170.59287027 34.58435853 168.31103516 34.58105469 C166.67486849 34.59302371 165.03871312 34.60663446 163.40257263 34.62176514 C158.95827316 34.65711602 154.51428168 34.66647709 150.06985521 34.66902828 C146.35959186 34.67282651 142.64940025 34.68754176 138.93916452 34.70171666 C130.1853175 34.73429135 121.43163503 34.74405396 112.67773438 34.74121094 C103.64785124 34.73880765 94.61892387 34.78101633 85.58928263 34.84418559 C77.83626038 34.89649084 70.08355049 34.91794645 62.33035314 34.9153893 C57.69983988 34.91436939 53.07017591 34.9257687 48.43983841 34.9681015 C44.08419615 35.00683547 39.7302145 35.00714198 35.37451363 34.97803497 C33.77734896 34.97385226 32.18008081 34.98330101 30.58309364 35.00747681 C18.52775331 35.17813438 18.52775331 35.17813438 14.74662209 32.26229668 C13.1818758 30.22662101 12.06016774 28.33150942 11 26 C10.44199707 24.98373535 9.88399414 23.9674707 9.30908203 22.92041016 C8.87966309 21.96956543 8.45024414 21.0187207 8.0078125 20.0390625 C7.53085937 18.99105469 7.05390625 17.94304688 6.5625 16.86328125 C5.8509375 15.26033203 5.8509375 15.26033203 5.125 13.625 C4.62742187 12.53316406 4.12984375 11.44132813 3.6171875 10.31640625 C0 2.29698231 0 2.29698231 0 0 Z " fill="#BED5F5" transform="translate(411,675)"/>
<path d="M0 0 C0.66 0.33 1.32 0.66 2 1 C-0.13739307 5.4083732 -3.09893403 7.96576962 -6.76953125 11.0546875 C-9.0723741 13.06312137 -11.18495843 15.18252449 -13.3125 17.375 C-24.56144068 28.78072034 -24.56144068 28.78072034 -31 32 C-29.49896316 28.48061984 -27.46674163 26.23435685 -24.75390625 23.55859375 C-23.91666016 22.72779297 -23.07941406 21.89699219 -22.21679688 21.04101562 C-21.34087891 20.18185547 -20.46496094 19.32269531 -19.5625 18.4375 C-18.69044922 17.57447266 -17.81839844 16.71144531 -16.91992188 15.82226562 C-15.29986319 14.21964031 -13.67776082 12.61907643 -12.05297852 11.02124023 C-10.8095938 9.79707778 -9.57069945 8.56829972 -8.34033203 7.33105469 C-6.73399123 5.73583246 -5.03800711 4.27755321 -3.3125 2.8125 C-2.68988281 2.28269531 -2.06726563 1.75289062 -1.42578125 1.20703125 C-0.95527344 0.80871094 -0.48476563 0.41039062 0 0 Z " fill="#397CD5" transform="translate(444,141)"/>
<path d="M0 0 C0.33 0 0.66 0 1 0 C1 7.59 1 15.18 1 23 C0.67 23 0.34 23 0 23 C-0.33 30.92 -0.66 38.84 -1 47 C-1.33 47 -1.66 47 -2 47 C-2.05023786 42.55665468 -2.08610608 38.11346915 -2.10986328 33.66992188 C-2.1197893 32.16500969 -2.13333455 30.66011609 -2.15087891 29.15527344 C-2.26366192 19.2170997 -1.73429243 9.81722916 0 0 Z " fill="#6391D4" transform="translate(238,588)"/>
<path d="M0 0 C1.41894941 3.83321985 0.5727063 6.63165991 -0.43359375 10.515625 C-0.75263672 11.76601563 -1.07167969 13.01640625 -1.40039062 14.3046875 C-1.74588984 15.61984525 -2.0915956 16.93494876 -2.4375 18.25 C-2.78016211 19.58050663 -3.12196879 20.91123389 -3.46289062 22.2421875 C-4.3001954 25.49706238 -5.14620045 28.74942018 -6 32 C-6.33 32 -6.66 32 -7 32 C-7.94178419 27.66835163 -7.95948442 24.64873931 -6.78515625 20.3828125 C-6.51123047 19.36445312 -6.23730469 18.34609375 -5.95507812 17.296875 C-5.66052734 16.25015625 -5.36597656 15.2034375 -5.0625 14.125 C-4.77181641 13.05507813 -4.48113281 11.98515625 -4.18164062 10.8828125 C-3.46522407 8.25203697 -2.73774491 5.62485888 -2 3 C-1.34 3 -0.68 3 0 3 C0 2.01 0 1.02 0 0 Z " fill="#417ED2" transform="translate(775,690)"/>
<path d="M0 0 C3 1 3 1 4.02734375 2.65478516 C4.32769531 3.35909668 4.62804687 4.0634082 4.9375 4.7890625 C5.27523438 5.56636719 5.61296875 6.34367188 5.9609375 7.14453125 C6.30382812 7.96308594 6.64671875 8.78164063 7 9.625 C7.51433594 10.81802734 7.51433594 10.81802734 8.0390625 12.03515625 C9.03607571 14.35264116 10.01900871 16.67569656 11 19 C11.58237625 20.36238869 12.16560741 21.7244125 12.75 23.0859375 C13.1625 24.04757812 13.575 25.00921875 14 26 C13.34 26.66 12.68 27.32 12 28 C10.17816262 24.27532486 8.36919316 20.54454152 6.5625 16.8125 C6.04623047 15.75740234 5.52996094 14.70230469 4.99804688 13.61523438 C4.50498047 12.59365234 4.01191406 11.57207031 3.50390625 10.51953125 C2.82050171 9.11344604 2.82050171 9.11344604 2.12329102 7.67895508 C1.04307197 5.10272305 0.43852203 2.75112579 0 0 Z " fill="#407DD4" transform="translate(381,690)"/>
<path d="M0 0 C0.66 1.32 1.32 2.64 2 4 C0.625 5.5 0.625 5.5 -1 7 C-1.66 7 -2.32 7 -3 7 C-3.2475 7.5775 -3.495 8.155 -3.75 8.75 C-5.16683317 11.3002997 -6.87627537 13.01785701 -9 15 C-10.32 14.34 -11.64 13.68 -13 13 C-8.71 8.71 -4.42 4.42 0 0 Z M2 1 C2.99 1.495 2.99 1.495 4 2 C3.01 2.495 3.01 2.495 2 3 C2 2.34 2 1.68 2 1 Z " fill="#3B7FD6" transform="translate(290,495)"/>
<path d="M0 0 C0.33 0 0.66 0 1 0 C3.6327348 9.41393146 4.38727055 18.06472151 4.1875 27.8125 C4.17396484 29.08931641 4.16042969 30.36613281 4.14648438 31.68164062 C4.11157893 34.78822548 4.06255244 37.89387016 4 41 C3.67 41 3.34 41 3 41 C2.67 35.06 2.34 29.12 2 23 C1.67 23 1.34 23 1 23 C0.67 15.41 0.34 7.82 0 0 Z " fill="#528AD7" transform="translate(784,592)"/>
<path d="M0 0 C3 1 3 1 4.28125 3.51171875 C4.6834375 4.55972656 5.085625 5.60773437 5.5 6.6875 C6.83378717 10.09471996 8.14452533 13.26978062 9.875 16.5 C11.16078501 19.35730001 10.89042412 20.12136859 10 23 C9.44570313 21.95199219 8.89140625 20.90398438 8.3203125 19.82421875 C7.58862461 18.44526849 6.8568492 17.06636466 6.125 15.6875 C5.76019531 14.99720703 5.39539063 14.30691406 5.01953125 13.59570312 C4.66503906 12.92861328 4.31054688 12.26152344 3.9453125 11.57421875 C3.62062988 10.96151123 3.29594727 10.34880371 2.96142578 9.7175293 C2.05452942 8.09741352 1.0298971 6.54484566 0 5 C-0.68177416 3.67432801 -1.35191436 2.34246312 -2 1 C-1.34 0.67 -0.68 0.34 0 0 Z " fill="#437DD0" transform="translate(428,813)"/>
<path d="M0 0 C0.66 0.33 1.32 0.66 2 1 C1.37392048 6.79947349 0.32599062 12.33809831 -1.0625 18 C-1.24876953 18.77472656 -1.43503906 19.54945313 -1.62695312 20.34765625 C-2.08076178 22.23270759 -2.53982492 24.1164927 -3 26 C-4.84252068 22.9212046 -5.19969588 21.29241135 -4.35546875 17.8125 C-4.08186523 16.64074219 -4.08186523 16.64074219 -3.80273438 15.4453125 C-3.59970703 14.63835938 -3.39667969 13.83140625 -3.1875 13 C-2.99607422 12.19304688 -2.80464844 11.38609375 -2.60742188 10.5546875 C-2.08553864 8.36602842 -1.54742323 6.18239045 -1 4 C-0.81348877 3.25363281 -0.62697754 2.50726562 -0.43481445 1.73828125 C-0.29132568 1.16464844 -0.14783691 0.59101562 0 0 Z " fill="#4784D4" transform="translate(780,664)"/>
<path d="M0 0 C3.12304734 2.92915527 5.48990091 5.96858351 7.8125 9.5625 C8.43769531 10.51253906 9.06289063 11.46257813 9.70703125 12.44140625 C10.13371094 13.28574219 10.56039063 14.13007812 11 15 C10.67 15.99 10.34 16.98 10 18 C9.59007812 17.44570313 9.18015625 16.89140625 8.7578125 16.3203125 C8.21898437 15.59585938 7.68015625 14.87140625 7.125 14.125 C6.32449219 13.04605469 6.32449219 13.04605469 5.5078125 11.9453125 C4.00126838 9.91747368 4.00126838 9.91747368 2 8 C1.01 8 0.02 8 -1 8 C-1.33 6.35 -1.66 4.7 -2 3 C-1.34 3 -0.68 3 0 3 C0 2.01 0 1.02 0 0 Z M0 4 C1 6 1 6 1 6 Z " fill="#467ED0" transform="translate(442,839)"/>
<path d="M0 0 C1.32 0.33 2.64 0.66 4 1 C4.04898438 1.556875 4.09796875 2.11375 4.1484375 2.6875 C4.53717075 6.65526011 5.03990688 10.40818382 6.125 14.25 C6.94778452 17.77621939 7.06115014 19.60431955 6 23 C3.94267095 19.3672388 2.92594546 15.50916232 1.875 11.5 C1.69324219 10.83613281 1.51148438 10.17226563 1.32421875 9.48828125 C0.44293188 6.16854651 0 3.4651581 0 0 Z " fill="#4883D3" transform="translate(247,686)"/>
<path d="M0 0 C0 3.75475032 -0.81570914 4.95266958 -3 8 C-5.12222992 10.07276069 -7.38509537 11.94413481 -9.6875 13.8125 C-10.29400391 14.31458984 -10.90050781 14.81667969 -11.52539062 15.33398438 C-13.01146384 16.56262758 -14.504994 17.7822419 -16 19 C-16 16 -16 16 -14.53125 14.19067383 C-13.8609375 13.53607178 -13.190625 12.88146973 -12.5 12.20703125 C-11.778125 11.49482422 -11.05625 10.78261719 -10.3125 10.04882812 C-9.549375 9.31083984 -8.78625 8.57285156 -8 7.8125 C-6.8553125 6.68811523 -6.8553125 6.68811523 -5.6875 5.54101562 C-3.79819161 3.68713177 -1.90224794 1.84058931 0 0 Z " fill="#4985D4" transform="translate(430,154)"/>
<path d="M0 0 C0.33 0 0.66 0 1 0 C1.67590188 3.37321776 2.33905518 6.74882242 3 10.125 C3.19078125 11.07632812 3.3815625 12.02765625 3.578125 13.0078125 C4.49756891 17.73638116 5.2609763 22.15562735 5 27 C4.67 25.68 4.34 24.36 4 23 C3.34 23 2.68 23 2 23 C1.23044294 19.92177175 0.97297866 17.15115118 1.0625 14 C1.12781894 10.51850029 0.30969567 8.23058265 -1 5 C-0.625 2.1875 -0.625 2.1875 0 0 Z " fill="#538AD7" transform="translate(702,355)"/>
<path d="M0 0 C0.66 1.32 1.32 2.64 2 4 C-0.31 6.64 -2.62 9.28 -5 12 C-5.66 10.68 -6.32 9.36 -7 8 C-4.69 5.36 -2.38 2.72 0 0 Z M-8 12 C-7.01 12.495 -7.01 12.495 -6 13 C-6.99 13.495 -6.99 13.495 -8 14 C-8 13.34 -8 12.68 -8 12 Z " fill="#3B7FD6" transform="translate(412,173)"/>
<path d="M0 0 C2.99801938 3.53361325 5.23912566 7.04589616 7.3125 11.1875 C7.84488281 12.23292969 8.37726562 13.27835938 8.92578125 14.35546875 C9.28027344 15.22816406 9.63476562 16.10085938 10 17 C9.67 17.66 9.34 18.32 9 19 C5.83233631 17.41616816 4.88807381 14.24747651 3.375 11.1875 C3.05015625 10.55779297 2.7253125 9.92808594 2.390625 9.27929688 C0.68142751 5.85731115 0 3.90211321 0 0 Z " fill="#4281D5" transform="translate(764,534)"/>
<path d="M0 0 C0.69222656 0.63228516 0.69222656 0.63228516 1.3984375 1.27734375 C6.78822989 5.80434329 11.00671163 6.97133898 18 7 C16 9 16 9 12.875 9.375 C8.27141769 8.92949203 4.70090607 7.82532585 1 5 C0 2.25 0 2.25 0 0 Z " fill="#4A82D0" transform="translate(263,736)"/>
<path d="M0 0 C1.02826931 3.13667908 0.99386675 4.83184742 -0.21484375 7.890625 C-0.48876953 8.59960938 -0.76269531 9.30859375 -1.04492188 10.0390625 C-1.33947266 10.76867187 -1.63402344 11.49828125 -1.9375 12.25 C-2.37352539 13.36761719 -2.37352539 13.36761719 -2.81835938 14.5078125 C-3.53573722 16.34241814 -4.26657439 18.17175065 -5 20 C-5.66 19.01 -6.32 18.02 -7 17 C-6.390625 14.44140625 -6.390625 14.44140625 -5.25 11.5625 C-4.88390625 10.61503906 -4.5178125 9.66757812 -4.140625 8.69140625 C-3.17212463 6.40614339 -2.14212472 4.20197775 -1 2 C-0.67 1.34 -0.34 0.68 0 0 Z " fill="#3E7CD3" transform="translate(597,802)"/>
<path d="M0 0 C1.78139294 3.23606752 2.77180919 6.42657245 3.6875 10 C3.95949219 11.03125 4.23148438 12.0625 4.51171875 13.125 C4.98122716 15.88946552 4.93214283 17.39750728 4 20 C4 19.34 4 18.68 4 18 C3.34 18 2.68 18 2 18 C0.176679 11.84629161 -0.2361959 6.40353322 0 0 Z " fill="#4C86D4" transform="translate(697,334)"/>
<path d="M0 0 C0.66 0 1.32 0 2 0 C0.06375702 6.20477864 -2.25609141 12.10825719 -5 18 C-5.33 18 -5.66 18 -6 18 C-5.61330541 11.03949747 -3.36561591 6.0605925 0 0 Z " fill="#4A84D7" transform="translate(640,692)"/>
<path d="M0 0 C1.65 1.65 3.3 3.3 5 5 C4.34 5 3.68 5 3 5 C3.2165625 5.78503906 3.433125 6.57007813 3.65625 7.37890625 C5.1623011 13.06146019 6.40114396 18.11655525 6 24 C5.67 24 5.34 24 5 24 C4.16114623 20.56382292 3.32987081 17.12585663 2.5 13.6875 C2.14228516 12.22280273 2.14228516 12.22280273 1.77734375 10.72851562 C1.55175781 9.79072266 1.32617188 8.85292969 1.09375 7.88671875 C0.88427734 7.02264404 0.67480469 6.15856934 0.45898438 5.26831055 C0 3 0 3 0 0 Z " fill="#1251CC" transform="translate(747,577)"/>
<path d="M0 0 C3.3 0.33 6.6 0.66 10 1 C10.12375 1.804375 10.2475 2.60875 10.375 3.4375 C10.58125 4.283125 10.7875 5.12875 11 6 C11.66 6.33 12.32 6.66 13 7 C7.92990529 6.52467862 4.02506742 3.95637706 0 1 C0 0.67 0 0.34 0 0 Z " fill="#4481D5" transform="translate(406,735)"/>
<path d="M0 0 C0.33 0 0.66 0 1 0 C2.17402193 7.33763707 2.09377123 14.58165418 2 22 C1.67 22 1.34 22 1 22 C0.67 20.35 0.34 18.7 0 17 C-0.33 17 -0.66 17 -1 17 C-0.67 11.39 -0.34 5.78 0 0 Z " fill="#6E9DDC" transform="translate(599,767)"/>
<path d="M0 0 C0.33 0 0.66 0 1 0 C1.33 7.26 1.66 14.52 2 22 C1.01 22 0.02 22 -1 22 C-0.67 14.74 -0.34 7.48 0 0 Z " fill="#3580DB" transform="translate(603,397)"/>
<path d="M0 0 C-2.11770166 2.32947183 -4.03335588 3.88750845 -7 5 C-10 4 -10 4 -12 2 C-7.8794254 0.00214565 -4.54805635 -0.17835515 0 0 Z " fill="#4082D7" transform="translate(616,736)"/>
<path d="M0 0 C0.33 0 0.66 0 1 0 C2.6730038 11.50190114 2.6730038 11.50190114 2 17 C1.34 17.66 0.68 18.32 0 19 C-0.8931507 12.41816638 -0.95494281 6.57849492 0 0 Z " fill="#578DD7" transform="translate(707,383)"/>
<path d="M0 0 C0.33 0 0.66 0 1 0 C0.85761163 2.04190981 0.71092972 4.08352045 0.5625 6.125 C0.48128906 7.26195312 0.40007812 8.39890625 0.31640625 9.5703125 C0.02269035 12.7540478 -0.43124313 15.85510907 -1 19 C-1.33 19 -1.66 19 -2 19 C-2.05428973 16.77110504 -2.09292338 14.54182529 -2.125 12.3125 C-2.15980469 10.45044922 -2.15980469 10.45044922 -2.1953125 8.55078125 C-2.01032021 5.18762143 -1.45767895 3.0014413 0 0 Z " fill="#246BCD" transform="translate(319,368)"/>
<path d="M0 0 C4.84659077 0.59104765 8.60748167 1.97944157 13 4 C11.3125 5.125 11.3125 5.125 9 6 C6.4375 5.125 6.4375 5.125 4 4 C3.01 4 2.02 4 1 4 C0.67 2.68 0.34 1.36 0 0 Z " fill="#4B87D7" transform="translate(522,108)"/>
<path d="M0 0 C3.82622743 1.5588334 6.25147379 3.95433582 9 7 C9.33 7.99 9.66 8.98 10 10 C6.03209924 8.32127275 3.13068506 5.91722926 0 3 C0 2.01 0 1.02 0 0 Z " fill="#4382D7" transform="translate(725,727)"/>
<path d="M0 0 C1.3805087 3.76668598 0.59568159 6.44789173 -0.4375 10.25 C-0.72496094 11.32765625 -1.01242187 12.4053125 -1.30859375 13.515625 C-1.53675781 14.33546875 -1.76492188 15.1553125 -2 16 C-3.44977894 13.65887549 -4.04314411 12.4203071 -3.7578125 9.640625 C-3.54898438 8.85171875 -3.34015625 8.0628125 -3.125 7.25 C-2.92132812 6.45078125 -2.71765625 5.6515625 -2.5078125 4.828125 C-2.34023438 4.22484375 -2.17265625 3.6215625 -2 3 C-1.34 3 -0.68 3 0 3 C0 2.01 0 1.02 0 0 Z " fill="#508AD8" transform="translate(775,690)"/>
<path d="M0 0 C3 1 3 1 4.6875 4.1875 C6.01535157 7.5347925 6.26451861 10.38491227 6 14 C4.31821339 11.47732009 3.09893258 9.18908177 1.875 6.4375 C1.52179688 5.65246094 1.16859375 4.86742187 0.8046875 4.05859375 C0 2 0 2 0 0 Z " fill="#4D83D4" transform="translate(381,690)"/>
<path d="M0 0 C1.39073768 2.62890497 2.43969204 5.12122047 3.1875 8 C3.36667969 8.66 3.54585937 9.32 3.73046875 10 C4.03576811 12.26540976 3.68136613 13.835092 3 16 C3 15.34 3 14.68 3 14 C2.34 14 1.68 14 1 14 C-0.20568053 9.32798795 -0.09382426 4.78503708 0 0 Z " fill="#3171CC" transform="translate(245,672)"/>
<path d="M0 0 C2.33046701 3.6413547 2.30891093 6.7524747 2 11 C1.34 11.99 0.68 12.98 0 14 C-2.13999677 9.72000646 -1.09321611 4.50951645 0 0 Z " fill="#2370D5" transform="translate(705,460)"/>
<path d="M0 0 C0.33 3.3 0.66 6.6 1 10 C-1 6 -1 6 -1 3 C-2.65 4.32 -4.3 5.64 -6 7 C-6.66 6.67 -7.32 6.34 -8 6 C-7.0479279 4.99403703 -6.08812654 3.99538437 -5.125 3 C-4.59132813 2.443125 -4.05765625 1.88625 -3.5078125 1.3125 C-2 0 -2 0 0 0 Z " fill="#E9EFFA" transform="translate(324,513)"/>
<path d="M0 0 C0.33 0 0.66 0 1 0 C1.83216797 4.6231554 2.24543073 8.43342066 1 13 C-0.546875 14.671875 -0.546875 14.671875 -2 16 C-1.85764543 14.27054347 -1.71095618 12.54144346 -1.5625 10.8125 C-1.48128906 9.84957031 -1.40007812 8.88664062 -1.31640625 7.89453125 C-1.02333849 5.21350398 -0.57296246 2.6337014 0 0 Z " fill="#538AD5" transform="translate(320,356)"/>
<path d="M0 0 C3.32851213 2.98418329 5.3205729 5.84562769 7 10 C6.67 10.99 6.34 11.98 6 13 C5.731875 12.401875 5.46375 11.80375 5.1875 11.1875 C4.14592636 8.9691873 4.14592636 8.9691873 2.4375 7.625 C0.37721065 5.29597725 0.3360683 3.02461466 0 0 Z " fill="#1B59CD" transform="translate(590,354)"/>
<path d="M0 0 C3.44270451 1.53009089 6.18925822 3.4931222 9 6 C9.33 6.99 9.66 7.98 10 9 C4.98709528 7.56774151 3.01961382 5.05490999 0 1 C0 0.67 0 0.34 0 0 Z " fill="#3979D2" transform="translate(733,734)"/>
<path d="M0 0 C0.66 0 1.32 0 2 0 C3.25106957 1.44860687 4.49699773 2.90276867 5.69140625 4.3984375 C7.33072334 6.40476588 9.13506951 8.20414101 11 10 C8 10 8 10 6.2109375 8.57421875 C5.60507812 7.95160156 4.99921875 7.32898438 4.375 6.6875 C3.45847656 5.76517578 3.45847656 5.76517578 2.5234375 4.82421875 C1 3 1 3 0 0 Z " fill="#CBDAF1" transform="translate(500,859)"/>
<path d="M0 0 C2.22825644 2.22825644 2.69239369 3.65761628 3.625 6.625 C3.88539063 7.44226563 4.14578125 8.25953125 4.4140625 9.1015625 C4.60742188 9.72804688 4.80078125 10.35453125 5 11 C2 10 2 10 0.25 6.625 C-1 3 -1 3 0 0 Z " fill="#4D87D7" transform="translate(675,273)"/>
<path d="M0 0 C3.33523252 1.38009621 5.18607951 2.84950652 7 6 C6.67 6.99 6.34 7.98 6 9 C4.99406757 7.8803014 3.9954151 6.7540588 3 5.625 C2.443125 4.99851562 1.88625 4.37203125 1.3125 3.7265625 C0 2 0 2 0 0 Z " fill="#457FD1" transform="translate(460,866)"/>
<path d="M0 0 C0.66 0.99 1.32 1.98 2 3 C0.6875 5.5 0.6875 5.5 -1 8 C-1.99 8 -2.98 8 -4 8 C-4 4.09161134 -2.49432124 2.88405893 0 0 Z " fill="#4582D5" transform="translate(276,509)"/>
<path d="M0 0 C0.33 0 0.66 0 1 0 C1.05447047 1.41623216 1.09300508 2.83308191 1.125 4.25 C1.14820313 5.03890625 1.17140625 5.8278125 1.1953125 6.640625 C0.9828378 9.20731941 0.28654105 10.7916067 -1 13 C-2.20577428 8.05632546 -1.6290678 4.79137588 0 0 Z " fill="#3D7CD5" transform="translate(777,677)"/>
<path d="M0 0 C4 4.75 4 4.75 4 7 C1.03 6.505 1.03 6.505 -2 6 C-2 4.35 -2 2.7 -2 1 C-1.34 0.67 -0.68 0.34 0 0 Z " fill="#538DD8" transform="translate(706,471)"/>
<path d="M0 0 C2.64465038 3.1254959 3.84414715 6.08788267 5 10 C2 9 2 9 0.8125 7.25 C-0.10819096 4.70039426 -0.14948718 2.69076919 0 0 Z " fill="#4683D6" transform="translate(661,245)"/>
<path d="M0 0 C0.66 0.99 1.32 1.98 2 3 C-1.625 8.875 -1.625 8.875 -5 10 C-3.66511872 6.40608886 -2.03977277 3.24509304 0 0 Z " fill="#4782D3" transform="translate(370,230)"/>
<path d="M0 0 C3.08089673 2.77280706 4.68775452 5.06326356 6 9 C2.56225537 7.85408512 1.82586841 7.04311402 0 4 C0 2.68 0 1.36 0 0 Z " fill="#4D85D2" transform="translate(758,525)"/>
<path d="M0 0 C0.33 0 0.66 0 1 0 C0.67 4.62 0.34 9.24 0 14 C-0.33 14 -0.66 14 -1 14 C-1.33 10.7 -1.66 7.4 -2 4 C-1.34 4 -0.68 4 0 4 C0 2.68 0 1.36 0 0 Z " fill="#6696DB" transform="translate(708,456)"/>
<path d="M0 0 C0.33 0 0.66 0 1 0 C1.25028811 1.58013217 1.47440946 3.16442306 1.6875 4.75 C1.87892578 6.07257813 1.87892578 6.07257813 2.07421875 7.421875 C2 10 2 10 -1 14 C-0.67 9.38 -0.34 4.76 0 0 Z " fill="#6793D4" transform="translate(316,379)"/>
<path d="M0 0 C3.67230705 3.07999946 4.56802365 5.2482602 5 10 C4.67 9.34 4.34 8.68 4 8 C3.34 8 2.68 8 2 8 C0.74335022 5.09399739 0 3.20395416 0 0 Z " fill="#4281D5" transform="translate(684,298)"/>
<path d="M0 0 C0.99 0.33 1.98 0.66 3 1 C3.8125 2.875 3.8125 2.875 4 5 C3.01 6.485 3.01 6.485 2 8 C0.45428722 5.68143083 -0.79618552 3.49361571 -2 1 C-1.34 0.67 -0.68 0.34 0 0 Z " fill="#5B8BD1" transform="translate(428,813)"/>
<path d="M0 0 C2.31 0.33 4.62 0.66 7 1 C3.3558226 3.4294516 1.28758728 3.16179575 -3 3 C-2.01 2.67 -1.02 2.34 0 2 C0 1.34 0 0.68 0 0 Z " fill="#185BCE" transform="translate(527,492)"/>
<path d="M0 0 C0.66 0.33 1.32 0.66 2 1 C-0.35380297 4.92300495 -2.64464931 5.83857315 -7 7 C-4.78071806 4.09197539 -3.07030857 2.04687238 0 0 Z " fill="#1557CC" transform="translate(458,327)"/>
<path d="M0 0 C0.33 0 0.66 0 1 0 C1 2.97 1 5.94 1 9 C0.34 9 -0.32 9 -1 9 C-1.33 9.66 -1.66 10.32 -2 11 C-1 3.57142857 -1 3.57142857 0 0 Z " fill="#2A71D2" transform="translate(767,717)"/>
<path d="M0 0 C0.99 0.33 1.98 0.66 3 1 C2.34 3.31 1.68 5.62 1 8 C-1 6 -1 6 -1.1875 3.4375 C-1 1 -1 1 0 0 Z " fill="#4786D9" transform="translate(642,684)"/>
<path d="M0 0 C0.66 0.33 1.32 0.66 2 1 C0.515 3.475 0.515 3.475 -1 6 C-2.32 5.67 -3.64 5.34 -5 5 C-3.35 3.35 -1.7 1.7 0 0 Z " fill="#4B85D5" transform="translate(444,141)"/>
<path d="M0 0 C0.66 0.33 1.32 0.66 2 1 C0.68 2.65 -0.64 4.3 -2 6 C-3.32 5.67 -4.64 5.34 -6 5 C-4.02 3.35 -2.04 1.7 0 0 Z " fill="#4F88D6" transform="translate(458,130)"/>
<path d="M0 0 C-1 3 -1 3 -4 5 C-6.1875 4.625 -6.1875 4.625 -8 4 C-2.25 0 -2.25 0 0 0 Z " fill="#4782D3" transform="translate(474,121)"/>
<path d="M0 0 C1.46726798 3.81489674 0.43336419 6.29011622 -1 10 C-2.125 8.25 -2.125 8.25 -3 6 C-2.1875 3.875 -2.1875 3.875 -1 2 C-0.67 1.34 -0.34 0.68 0 0 Z " fill="#578BD5" transform="translate(597,802)"/>
<path d="M0 0 C3.63 0 7.26 0 11 0 C11 0.33 11 0.66 11 1 C9.72125 1.12375 8.4425 1.2475 7.125 1.375 C3.65209064 1.69042399 3.65209064 1.69042399 1 4 C0.67 2.68 0.34 1.36 0 0 Z " fill="#6C9CDF" transform="translate(590,742)"/>
<path d="M0 0 C0.75 1.75 0.75 1.75 1 4 C-0.9375 6.25 -0.9375 6.25 -3 8 C-3 4.42424104 -1.91159393 2.94704065 0 0 Z " fill="#4B84D2" transform="translate(262,528)"/>
<path d="M0 0 C0.66 0.99 1.32 1.98 2 3 C0.625 5.5 0.625 5.5 -1 8 C-1.66 8 -2.32 8 -3 8 C-1.125 2.25 -1.125 2.25 0 0 Z " fill="#4682D3" transform="translate(355,257)"/>
<path d="M0 0 C0.66 0 1.32 0 2 0 C2.66 1.32 3.32 2.64 4 4 C3.01 3.67 2.02 3.34 1 3 C0.67 2.01 0.34 1.02 0 0 Z " fill="#5987C5" transform="translate(456,865)"/>
<path d="M0 0 C0.33 0 0.66 0 1 0 C1 2.31 1 4.62 1 7 C0.67 7 0.34 7 0 7 C0 4.69 0 2.38 0 0 Z " fill="#5D8CCC" transform="translate(234,626)"/>
<path d="M0 0 C0.66 0.66 1.32 1.32 2 2 C1.67 2.99 1.34 3.98 1 5 C0.67 3.35 0.34 1.7 0 0 Z " fill="#5B85C1" transform="translate(257,731)"/>
<path d="M0 0 C0.33 0 0.66 0 1 0 C1 1.98 1 3.96 1 6 C0.67 6 0.34 6 0 6 C0 4.02 0 2.04 0 0 Z " fill="#6691D2" transform="translate(312,449)"/>
<path d="M0 0 C0.99 0.33 1.98 0.66 3 1 C2.34 1.66 1.68 2.32 1 3 C0.67 2.01 0.34 1.02 0 0 Z " fill="#5587CA" transform="translate(384,202)"/>
<path d="M0 0 C0.99 0.495 0.99 0.495 2 1 C2 1.66 2 2.32 2 3 C1.34 3 0.68 3 0 3 C0 2.01 0 1.02 0 0 Z " fill="#5685C7" transform="translate(473,884)"/>
<path d="M0 0 C0.66 0.99 1.32 1.98 2 3 C1.01 2.67 0.02 2.34 -1 2 C-0.67 1.34 -0.34 0.68 0 0 Z " fill="#608FD1" transform="translate(396,725)"/>
<path d="M0 0 C0.99 0 1.98 0 3 0 C2.67 0.66 2.34 1.32 2 2 C1.34 1.34 0.68 0.68 0 0 Z " fill="#5983BB" transform="translate(513,917)"/>
<path d="M0 0 C0.99 0.33 1.98 0.66 3 1 C2.01 1 1.02 1 0 1 C0 0.67 0 0.34 0 0 Z " fill="#5C85C3" transform="translate(480,893)"/>
<path d="M0 0 C0.99 0.495 0.99 0.495 2 1 C1.67 1.66 1.34 2.32 1 3 C0.67 2.01 0.34 1.02 0 0 Z " fill="#5E8CCA" transform="translate(306,724)"/>
<path d="M0 0 C1 4 1 4 1 4 Z " fill="#5A85C7" transform="translate(248,697)"/>
<path d="M0 0 C1 4 1 4 1 4 Z " fill="#608DCD" transform="translate(312,397)"/>
<path d="M0 0 C0.33 0.99 0.66 1.98 1 3 C0.34 2.67 -0.32 2.34 -1 2 C-0.67 1.34 -0.34 0.68 0 0 Z " fill="#5B8BCA" transform="translate(322,339)"/>
<path d="M0 0 C0.33 0.99 0.66 1.98 1 3 C0.34 2.67 -0.32 2.34 -1 2 C-0.67 1.34 -0.34 0.68 0 0 Z " fill="#5C89CA" transform="translate(337,291)"/>
<path d="M0 0 C0.66 0.66 1.32 1.32 2 2 C1.01 2.495 1.01 2.495 0 3 C0 2.01 0 1.02 0 0 Z " fill="#5888CB" transform="translate(432,145)"/>
<path d="M0 0 C4 1 4 1 4 1 Z " fill="#5D8CCF" transform="translate(507,104)"/>
<path d="M0 0 C0.99 0.495 0.99 0.495 2 1 C1.01 1.495 1.01 1.495 0 2 C0 1.34 0 0.68 0 0 Z " fill="#5B8AC8" transform="translate(581,843)"/>
<path d="" fill="#628CCA" transform="translate(0,0)"/>
<path d="" fill="#6491D1" transform="translate(0,0)"/>
<path d="M0 0 C0.66 0 1.32 0 2 0 C1.67 0.66 1.34 1.32 1 2 C0.67 1.34 0.34 0.68 0 0 Z " fill="#6190D2" transform="translate(414,742)"/>
<path d="" fill="#5585C5" transform="translate(0,0)"/>
<path d="M0 0 C0.66 0 1.32 0 2 0 C1.67 0.66 1.34 1.32 1 2 C0.67 1.34 0.34 0.68 0 0 Z " fill="#5A89C9" transform="translate(243,681)"/>
<path d="" fill="#5887C9" transform="translate(0,0)"/>
<path d="M0 0 C0.99 0.495 0.99 0.495 2 1 C1.01 1.495 1.01 1.495 0 2 C0 1.34 0 0.68 0 0 Z " fill="#5D8BCB" transform="translate(240,669)"/>
<path d="" fill="#5A88C8" transform="translate(0,0)"/>
<path d="" fill="#5F8BCC" transform="translate(0,0)"/>
<path d="" fill="#608ECB" transform="translate(0,0)"/>
<path d="" fill="#5A8ACA" transform="translate(0,0)"/>
<path d="" fill="#5F8CC8" transform="translate(0,0)"/>
<path d="M0 0 C0.33 0.66 0.66 1.32 1 2 C0.34 1.67 -0.32 1.34 -1 1 C-0.67 0.67 -0.34 0.34 0 0 Z " fill="#618CC9" transform="translate(241,568)"/>
<path d="" fill="#6593D2" transform="translate(0,0)"/>
<path d="" fill="#608ED0" transform="translate(0,0)"/>
<path d="" fill="#5F8ED0" transform="translate(0,0)"/>
<path d="" fill="#5D8FCF" transform="translate(0,0)"/>
<path d="" fill="#5F8DCD" transform="translate(0,0)"/>
<path d="" fill="#5B89CB" transform="translate(0,0)"/>
<path d="M0 0 C0.66 0.66 1.32 1.32 2 2 C1.34 2 0.68 2 0 2 C0 1.34 0 0.68 0 0 Z " fill="#5788CD" transform="translate(694,318)"/>
<path d="" fill="#5787CA" transform="translate(0,0)"/>
<path d="M0 0 C0.66 0 1.32 0 2 0 C1.67 0.66 1.34 1.32 1 2 C0.67 1.34 0.34 0.68 0 0 Z " fill="#5688CB" transform="translate(650,224)"/>
<path d="M0 0 C0.99 0.495 0.99 0.495 2 1 C1.01 1.495 1.01 1.495 0 2 C0 1.34 0 0.68 0 0 Z " fill="#5584C5" transform="translate(400,178)"/>
<path d="M0 0 C0.99 0.495 0.99 0.495 2 1 C1.01 1.495 1.01 1.495 0 2 C0 1.34 0 0.68 0 0 Z " fill="#5888C7" transform="translate(413,168)"/>
<path d="M0 0 C0.66 0 1.32 0 2 0 C1.67 0.66 1.34 1.32 1 2 C0.67 1.34 0.34 0.68 0 0 Z " fill="#5789C9" transform="translate(416,164)"/>
<path d="M0 0 C3 1 3 1 3 1 Z " fill="#5A8ACD" transform="translate(495,107)"/>
<path d="" fill="#5A89C7" transform="translate(0,0)"/>
<path d="" fill="#628ECD" transform="translate(0,0)"/>
<path d="" fill="#6492D0" transform="translate(0,0)"/>
<path d="M0 0 C2 1 2 1 2 1 Z " fill="#5E8CC7" transform="translate(736,741)"/>
<path d="" fill="#6090D0" transform="translate(0,0)"/>
<path d="" fill="#608FD0" transform="translate(0,0)"/>
<path d="" fill="#618FCE" transform="translate(0,0)"/>
<path d="M0 0 C2 1 2 1 2 1 Z " fill="#5C8ECF" transform="translate(704,715)"/>
<path d="M0 0 C2 1 2 1 2 1 Z " fill="#5A87C6" transform="translate(251,713)"/>
<path d="" fill="#5F8ED0" transform="translate(0,0)"/>
<path d="" fill="#6290D0" transform="translate(0,0)"/>
<path d="" fill="#5B89C6" transform="translate(0,0)"/>
<path d="" fill="#6291D3" transform="translate(0,0)"/>
<path d="M0 0 C2 1 2 1 2 1 Z " fill="#5E90D4" transform="translate(346,693)"/>
<path d="M0 0 C2 1 2 1 2 1 Z " fill="#608FD2" transform="translate(378,691)"/>
<path d="" fill="#5D8CD1" transform="translate(0,0)"/>
<path d="" fill="#608FD3" transform="translate(0,0)"/>
<path d="" fill="#608FD1" transform="translate(0,0)"/>
<path d="" fill="#5A88C9" transform="translate(0,0)"/>
<path d="" fill="#5B89C9" transform="translate(0,0)"/>
<path d="" fill="#5D8CC8" transform="translate(0,0)"/>
<path d="" fill="#5C8AC8" transform="translate(0,0)"/>
<path d="" fill="#5E8CCA" transform="translate(0,0)"/>
<path d="M0 0 C2 1 2 1 2 1 Z " fill="#5C8AC9" transform="translate(233,624)"/>
<path d="" fill="#5789CB" transform="translate(0,0)"/>
<path d="" fill="#5D8ACA" transform="translate(0,0)"/>
<path d="M0 0 C2 1 2 1 2 1 Z " fill="#5E8CC9" transform="translate(258,528)"/>
<path d="M0 0 C2 1 2 1 2 1 Z " fill="#5E90CC" transform="translate(291,489)"/>
<path d="M0 0 C2 1 2 1 2 1 Z " fill="#6193D2" transform="translate(710,474)"/>
<path d="" fill="#5F8ECE" transform="translate(0,0)"/>
<path d="" fill="#638FCD" transform="translate(0,0)"/>
<path d="" fill="#5F8ECF" transform="translate(0,0)"/>
<path d="" fill="#5D8ECD" transform="translate(0,0)"/>
<path d="" fill="#5D8BC9" transform="translate(0,0)"/>
<path d="" fill="#5D8CCE" transform="translate(0,0)"/>
<path d="" fill="#5C8AC9" transform="translate(0,0)"/>
<path d="" fill="#5B8ACD" transform="translate(0,0)"/>
<path d="" fill="#5688CF" transform="translate(0,0)"/>
<path d="" fill="#5A8ACC" transform="translate(0,0)"/>
<path d="" fill="#5A87C8" transform="translate(0,0)"/>
<path d="" fill="#5386CD" transform="translate(0,0)"/>
<path d="M0 0 C2 1 2 1 2 1 Z " fill="#5587CA" transform="translate(644,212)"/>
<path d="M0 0 C2 1 2 1 2 1 Z " fill="#5485C8" transform="translate(643,210)"/>
<path d="M0 0 C2 1 2 1 2 1 Z " fill="#5887CA" transform="translate(429,152)"/>
<path d="M0 0 C2 1 2 1 2 1 Z " fill="#5688C9" transform="translate(438,144)"/>
<path d="M0 0 C2 1 2 1 2 1 Z " fill="#5889CB" transform="translate(466,122)"/>
<path d="M0 0 C2 1 2 1 2 1 Z " fill="#5588CA" transform="translate(470,120)"/>
<path d="" fill="#323537" transform="translate(0,0)"/>
<path d="" fill="#5580BC" transform="translate(0,0)"/>
<path d="" fill="#5884C2" transform="translate(0,0)"/>
<path d="" fill="#5886C6" transform="translate(0,0)"/>
<path d="" fill="#5D87C4" transform="translate(0,0)"/>
<path d="" fill="#5984C7" transform="translate(0,0)"/>
<path d="" fill="#5483C9" transform="translate(0,0)"/>
<path d="" fill="#5584C7" transform="translate(0,0)"/>
<path d="" fill="#5B8AC6" transform="translate(0,0)"/>
<path d="" fill="#5C8AC8" transform="translate(0,0)"/>
<path d="" fill="#5784C7" transform="translate(0,0)"/>
<path d="" fill="#5987C8" transform="translate(0,0)"/>
<path d="" fill="#5785C7" transform="translate(0,0)"/>
<path d="" fill="#5786C8" transform="translate(0,0)"/>
<path d="" fill="#5584C8" transform="translate(0,0)"/>
<path d="" fill="#5785C6" transform="translate(0,0)"/>
<path d="" fill="#5282C8" transform="translate(0,0)"/>
<path d="" fill="#5A89C8" transform="translate(0,0)"/>
<path d="" fill="#5B89C9" transform="translate(0,0)"/>
<path d="" fill="#5988C7" transform="translate(0,0)"/>
<path d="" fill="#5885C8" transform="translate(0,0)"/>
<path d="" fill="#5A89CA" transform="translate(0,0)"/>
<path d="" fill="#5685C8" transform="translate(0,0)"/>
<path d="" fill="#5986C8" transform="translate(0,0)"/>
<path d="" fill="#5A8ACC" transform="translate(0,0)"/>
<path d="" fill="#5E8DCA" transform="translate(0,0)"/>
<path d="" fill="#5C8BC8" transform="translate(0,0)"/>
<path d="" fill="#628CCB" transform="translate(0,0)"/>
<path d="" fill="#5F89CC" transform="translate(0,0)"/>
<path d="" fill="#5C8CCC" transform="translate(0,0)"/>
<path d="" fill="#5F8DC7" transform="translate(0,0)"/>
<path d="" fill="#5F8BCD" transform="translate(0,0)"/>
<path d="" fill="#638DCD" transform="translate(0,0)"/>
<path d="" fill="#628ECF" transform="translate(0,0)"/>
<path d="" fill="#6490CD" transform="translate(0,0)"/>
<path d="" fill="#5F8DCB" transform="translate(0,0)"/>
<path d="" fill="#6392D0" transform="translate(0,0)"/>
<path d="" fill="#6793D0" transform="translate(0,0)"/>
<path d="" fill="#6392D1" transform="translate(0,0)"/>
<path d="" fill="#6393D2" transform="translate(0,0)"/>
<path d="" fill="#6593CF" transform="translate(0,0)"/>
<path d="" fill="#6591D1" transform="translate(0,0)"/>
<path d="" fill="#6792D1" transform="translate(0,0)"/>
<path d="" fill="#6894D3" transform="translate(0,0)"/>
<path d="" fill="#6493D3" transform="translate(0,0)"/>
<path d="" fill="#6393D6" transform="translate(0,0)"/>
<path d="" fill="#5F91D4" transform="translate(0,0)"/>
<path d="" fill="#6493D5" transform="translate(0,0)"/>
<path d="" fill="#5C88C1" transform="translate(0,0)"/>
<path d="" fill="#6292D4" transform="translate(0,0)"/>
<path d="" fill="#6596D5" transform="translate(0,0)"/>
<path d="" fill="#5B81BA" transform="translate(0,0)"/>
<path d="" fill="#6491D0" transform="translate(0,0)"/>
<path d="" fill="#6390D2" transform="translate(0,0)"/>
<path d="" fill="#6291D3" transform="translate(0,0)"/>
<path d="" fill="#6391D3" transform="translate(0,0)"/>
<path d="" fill="#5D8BC9" transform="translate(0,0)"/>
<path d="" fill="#5F8CC8" transform="translate(0,0)"/>
<path d="" fill="#6795D2" transform="translate(0,0)"/>
<path d="" fill="#5A8BCC" transform="translate(0,0)"/>
<path d="" fill="#5B85C1" transform="translate(0,0)"/>
<path d="" fill="#5E8DCB" transform="translate(0,0)"/>
<path d="" fill="#628FD2" transform="translate(0,0)"/>
<path d="" fill="#6290D0" transform="translate(0,0)"/>
<path d="" fill="#5A8ECE" transform="translate(0,0)"/>
<path d="" fill="#6390D1" transform="translate(0,0)"/>
<path d="" fill="#5D8CCF" transform="translate(0,0)"/>
<path d="" fill="#5C89C7" transform="translate(0,0)"/>
<path d="" fill="#5F8BD0" transform="translate(0,0)"/>
<path d="" fill="#5785C4" transform="translate(0,0)"/>
<path d="" fill="#5C8BD2" transform="translate(0,0)"/>
<path d="" fill="#6091CD" transform="translate(0,0)"/>
<path d="" fill="#558BD1" transform="translate(0,0)"/>
<path d="" fill="#6693D3" transform="translate(0,0)"/>
<path d="" fill="#6390D3" transform="translate(0,0)"/>
<path d="" fill="#5685C4" transform="translate(0,0)"/>
<path d="" fill="#5E8BD1" transform="translate(0,0)"/>
<path d="" fill="#5B8BD0" transform="translate(0,0)"/>
<path d="" fill="#608DCF" transform="translate(0,0)"/>
<path d="" fill="#5D8BD2" transform="translate(0,0)"/>
<path d="" fill="#5D8DD3" transform="translate(0,0)"/>
<path d="" fill="#5689CA" transform="translate(0,0)"/>
<path d="" fill="#5E91D4" transform="translate(0,0)"/>
<path d="" fill="#5987C6" transform="translate(0,0)"/>
<path d="" fill="#5989C8" transform="translate(0,0)"/>
<path d="" fill="#6492D1" transform="translate(0,0)"/>
<path d="" fill="#6391D3" transform="translate(0,0)"/>
<path d="" fill="#618ECF" transform="translate(0,0)"/>
<path d="" fill="#6191D1" transform="translate(0,0)"/>
<path d="" fill="#6691CD" transform="translate(0,0)"/>
<path d="" fill="#6290CF" transform="translate(0,0)"/>
<path d="" fill="#5183C7" transform="translate(0,0)"/>
<path d="" fill="#5D90D1" transform="translate(0,0)"/>
<path d="" fill="#6190D0" transform="translate(0,0)"/>
<path d="" fill="#6294D2" transform="translate(0,0)"/>
<path d="" fill="#6093D5" transform="translate(0,0)"/>
<path d="" fill="#5F8ED0" transform="translate(0,0)"/>
<path d="" fill="#618FD4" transform="translate(0,0)"/>
<path d="" fill="#5688CF" transform="translate(0,0)"/>
<path d="" fill="#5F90D4" transform="translate(0,0)"/>
<path d="" fill="#6393D3" transform="translate(0,0)"/>
<path d="" fill="#5A8ED2" transform="translate(0,0)"/>
<path d="" fill="#5F8FD3" transform="translate(0,0)"/>
<path d="" fill="#5889CF" transform="translate(0,0)"/>
<path d="" fill="#5D8DCA" transform="translate(0,0)"/>
<path d="" fill="#5D8CD1" transform="translate(0,0)"/>
<path d="" fill="#5B89C8" transform="translate(0,0)"/>
<path d="" fill="#5485CA" transform="translate(0,0)"/>
<path d="" fill="#608FD2" transform="translate(0,0)"/>
<path d="" fill="#6190D0" transform="translate(0,0)"/>
<path d="" fill="#5B89C8" transform="translate(0,0)"/>
<path d="" fill="#5F8BC7" transform="translate(0,0)"/>
<path d="" fill="#6493D5" transform="translate(0,0)"/>
<path d="" fill="#5989CB" transform="translate(0,0)"/>
<path d="" fill="#6090CE" transform="translate(0,0)"/>
<path d="" fill="#5F8CCA" transform="translate(0,0)"/>
<path d="" fill="#5D8BCB" transform="translate(0,0)"/>
<path d="" fill="#5A8BC8" transform="translate(0,0)"/>
<path d="" fill="#5A8AC7" transform="translate(0,0)"/>
<path d="" fill="#5D8CCB" transform="translate(0,0)"/>
<path d="" fill="#5A8CCD" transform="translate(0,0)"/>
<path d="" fill="#5D8ECC" transform="translate(0,0)"/>
<path d="" fill="#5C8CC8" transform="translate(0,0)"/>
<path d="" fill="#5B85C7" transform="translate(0,0)"/>
<path d="" fill="#618ECC" transform="translate(0,0)"/>
<path d="" fill="#5F8BC8" transform="translate(0,0)"/>
<path d="" fill="#5E8DCD" transform="translate(0,0)"/>
<path d="" fill="#5A89C7" transform="translate(0,0)"/>
<path d="" fill="#5C86C6" transform="translate(0,0)"/>
<path d="" fill="#5D8AC6" transform="translate(0,0)"/>
<path d="" fill="#5F8BCB" transform="translate(0,0)"/>
<path d="" fill="#5C8BCB" transform="translate(0,0)"/>
<path d="" fill="#5B88CA" transform="translate(0,0)"/>
<path d="" fill="#5585C8" transform="translate(0,0)"/>
<path d="" fill="#5F89C9" transform="translate(0,0)"/>
<path d="" fill="#5A87C9" transform="translate(0,0)"/>
<path d="" fill="#5C8DCE" transform="translate(0,0)"/>
<path d="" fill="#5B8ACA" transform="translate(0,0)"/>
<path d="" fill="#5F8CC9" transform="translate(0,0)"/>
<path d="" fill="#608DCB" transform="translate(0,0)"/>
<path d="" fill="#6290CC" transform="translate(0,0)"/>
<path d="" fill="#5C8CC9" transform="translate(0,0)"/>
<path d="" fill="#5E8BCB" transform="translate(0,0)"/>
<path d="" fill="#558ACE" transform="translate(0,0)"/>
<path d="" fill="#5C8DCE" transform="translate(0,0)"/>
<path d="" fill="#5D8CCB" transform="translate(0,0)"/>
<path d="" fill="#6291CE" transform="translate(0,0)"/>
<path d="" fill="#608ECE" transform="translate(0,0)"/>
<path d="" fill="#5E8FCF" transform="translate(0,0)"/>
<path d="" fill="#598BCE" transform="translate(0,0)"/>
<path d="" fill="#5F8ECE" transform="translate(0,0)"/>
<path d="" fill="#5F8DCA" transform="translate(0,0)"/>
<path d="" fill="#6291D2" transform="translate(0,0)"/>
<path d="" fill="#608ED1" transform="translate(0,0)"/>
<path d="" fill="#6291D1" transform="translate(0,0)"/>
<path d="" fill="#6092D3" transform="translate(0,0)"/>
<path d="" fill="#5B8ED1" transform="translate(0,0)"/>
<path d="" fill="#5E8DCC" transform="translate(0,0)"/>
<path d="" fill="#6290CF" transform="translate(0,0)"/>
<path d="" fill="#618CCC" transform="translate(0,0)"/>
<path d="" fill="#5F8FCE" transform="translate(0,0)"/>
<path d="" fill="#5D8BCD" transform="translate(0,0)"/>
<path d="" fill="#5D8BC8" transform="translate(0,0)"/>
<path d="" fill="#5D8BCD" transform="translate(0,0)"/>
<path d="" fill="#5C89CC" transform="translate(0,0)"/>
<path d="" fill="#5F8ECD" transform="translate(0,0)"/>
<path d="" fill="#5F8DCA" transform="translate(0,0)"/>
<path d="" fill="#5887C7" transform="translate(0,0)"/>
<path d="" fill="#5C88C7" transform="translate(0,0)"/>
<path d="" fill="#5987C5" transform="translate(0,0)"/>
<path d="" fill="#5E8BC9" transform="translate(0,0)"/>
<path d="" fill="#5A8ACF" transform="translate(0,0)"/>
<path d="" fill="#5D8BCA" transform="translate(0,0)"/>
<path d="" fill="#5D89C8" transform="translate(0,0)"/>
<path d="" fill="#5C8ECD" transform="translate(0,0)"/>
<path d="" fill="#5C85C7" transform="translate(0,0)"/>
<path d="" fill="#5D8BC8" transform="translate(0,0)"/>
<path d="" fill="#5E8CC9" transform="translate(0,0)"/>
<path d="" fill="#5D8BC9" transform="translate(0,0)"/>
<path d="" fill="#5E8AC5" transform="translate(0,0)"/>
<path d="" fill="#5E8ACE" transform="translate(0,0)"/>
<path d="" fill="#5B8CCD" transform="translate(0,0)"/>
<path d="" fill="#6089C9" transform="translate(0,0)"/>
<path d="" fill="#5C88C7" transform="translate(0,0)"/>
<path d="" fill="#5689C9" transform="translate(0,0)"/>
<path d="" fill="#5E8CCA" transform="translate(0,0)"/>
<path d="" fill="#5D87C8" transform="translate(0,0)"/>
<path d="" fill="#5E8ACB" transform="translate(0,0)"/>
<path d="" fill="#5A8ACB" transform="translate(0,0)"/>
<path d="" fill="#588ACB" transform="translate(0,0)"/>
<path d="" fill="#5B88C5" transform="translate(0,0)"/>
<path d="" fill="#5A8AC9" transform="translate(0,0)"/>
<path d="" fill="#5A8CCD" transform="translate(0,0)"/>
<path d="" fill="#5989CA" transform="translate(0,0)"/>
<path d="" fill="#558ACC" transform="translate(0,0)"/>
<path d="" fill="#5486C9" transform="translate(0,0)"/>
<path d="" fill="#5986CA" transform="translate(0,0)"/>
<path d="" fill="#5A8BCC" transform="translate(0,0)"/>
<path d="" fill="#5586C7" transform="translate(0,0)"/>
<path d="" fill="#5484C4" transform="translate(0,0)"/>
<path d="" fill="#5684C8" transform="translate(0,0)"/>
<path d="" fill="#5180C6" transform="translate(0,0)"/>
<path d="" fill="#5485CC" transform="translate(0,0)"/>
<path d="" fill="#5585C9" transform="translate(0,0)"/>
<path d="" fill="#5082C8" transform="translate(0,0)"/>
<path d="" fill="#5989CC" transform="translate(0,0)"/>
<path d="" fill="#5888C8" transform="translate(0,0)"/>
<path d="" fill="#5788CB" transform="translate(0,0)"/>
<path d="" fill="#5686CB" transform="translate(0,0)"/>
<path d="" fill="#5386CB" transform="translate(0,0)"/>
<path d="" fill="#5789C9" transform="translate(0,0)"/>
<path d="" fill="#5487CB" transform="translate(0,0)"/>
<path d="" fill="#4F81C9" transform="translate(0,0)"/>
<path d="" fill="#4F80C6" transform="translate(0,0)"/>
<path d="" fill="#598BCC" transform="translate(0,0)"/>
<path d="" fill="#5888C7" transform="translate(0,0)"/>
<path d="" fill="#5385C9" transform="translate(0,0)"/>
<path d="" fill="#5687CD" transform="translate(0,0)"/>
<path d="" fill="#5887C6" transform="translate(0,0)"/>
<path d="" fill="#5486C9" transform="translate(0,0)"/>
<path d="" fill="#5685C5" transform="translate(0,0)"/>
<path d="" fill="#5785C7" transform="translate(0,0)"/>
<path d="" fill="#5786C7" transform="translate(0,0)"/>
<path d="" fill="#5888C8" transform="translate(0,0)"/>
<path d="" fill="#5788C7" transform="translate(0,0)"/>
<path d="" fill="#5687C9" transform="translate(0,0)"/>
<path d="" fill="#588ACA" transform="translate(0,0)"/>
<path d="" fill="#5B8AC9" transform="translate(0,0)"/>
<path d="" fill="#5688C8" transform="translate(0,0)"/>
<path d="" fill="#5989CE" transform="translate(0,0)"/>
<path d="" fill="#568ACD" transform="translate(0,0)"/>
<path d="" fill="#5889C7" transform="translate(0,0)"/>
<path d="" fill="#5789C7" transform="translate(0,0)"/>
<path d="" fill="#5A8BC8" transform="translate(0,0)"/>
<path d="" fill="#598CCC" transform="translate(0,0)"/>
<path d="" fill="#598BCD" transform="translate(0,0)"/>
<path d="" fill="#588CC8" transform="translate(0,0)"/>
<path d="" fill="#5788CD" transform="translate(0,0)"/>
<path d="" fill="#5A8BCA" transform="translate(0,0)"/>
<path d="" fill="#5B89CA" transform="translate(0,0)"/>
<path d="" fill="#5A86C7" transform="translate(0,0)"/>
<path d="" fill="#5988CB" transform="translate(0,0)"/>
<path d="" fill="#5687C8" transform="translate(0,0)"/>
<path d="" fill="#5A87C7" transform="translate(0,0)"/>
<path d="" fill="#5A87C7" transform="translate(0,0)"/>
<path d="" fill="#598BCC" transform="translate(0,0)"/>
<path d="" fill="#5387CA" transform="translate(0,0)"/>
<path d="" fill="#5B8BCB" transform="translate(0,0)"/>
<path d="" fill="#5588CB" transform="translate(0,0)"/>
<path d="" fill="#598ACC" transform="translate(0,0)"/>
<path d="" fill="#5989CA" transform="translate(0,0)"/>
<path d="" fill="#5889C8" transform="translate(0,0)"/>
<path d="" fill="#5C8BCA" transform="translate(0,0)"/>
<path d="" fill="#5D8CCE" transform="translate(0,0)"/>
<path d="" fill="#5987CD" transform="translate(0,0)"/>
<path d="" fill="#5C8CCC" transform="translate(0,0)"/>
<path d="" fill="#5E8BCC" transform="translate(0,0)"/>
<path d="" fill="#5D8DCF" transform="translate(0,0)"/>
</svg>
