<?xml version="1.0" encoding="UTF-8"?>
<svg version="1.1" xmlns="http://www.w3.org/2000/svg" width="1024" height="1024">
<path d="M0 0 C21.35439502 10.3709149 43.30206865 19.48760355 65.46777344 27.96606445 C68.63934625 29.1819351 71.80599837 30.4094326 74.97105408 31.6421051 C77.62276585 32.67323609 80.27715306 33.69733802 82.93228149 34.71963501 C84.80367308 35.44168529 86.67274708 36.16973326 88.54174805 36.89794922 C94.05651689 39.00535788 99.13275147 40.9052672 105.04296875 41.33666992 C105.04296875 41.99666992 105.04296875 42.65666992 105.04296875 43.33666992 C106.21730469 43.5712793 107.39164063 43.80588867 108.6015625 44.04760742 C116.23404631 45.7410601 123.67048937 48.23292815 131.11645508 50.60131836 C141.36785911 53.91278682 141.36785911 53.91278682 152.04296875 54.33666992 C151.38296875 54.99666992 150.72296875 55.65666992 150.04296875 56.33666992 C154.10320325 57.34602408 158.16649039 58.34250662 162.23046875 59.33666992 C163.38095703 59.6228418 164.53144531 59.90901367 165.71679688 60.20385742 C166.82861328 60.47456055 167.94042969 60.74526367 169.0859375 61.02416992 C170.1071167 61.27553711 171.1282959 61.5269043 172.18041992 61.78588867 C174.99665396 62.42900181 174.99665396 62.42900181 177.7277832 62.29370117 C180.04296875 62.33666992 180.04296875 62.33666992 183.04296875 64.33666992 C185.55193561 64.79268253 185.55193561 64.79268253 188.23046875 64.96166992 C189.13152344 65.03643555 190.03257812 65.11120117 190.9609375 65.18823242 C191.64800781 65.2372168 192.33507812 65.28620117 193.04296875 65.33666992 C193.04296875 65.99666992 193.04296875 66.65666992 193.04296875 67.33666992 C194.30109375 67.46041992 195.55921875 67.58416992 196.85546875 67.71166992 C200.46535321 68.10269351 203.98236387 68.69106655 207.54296875 69.39916992 C211.13966122 70.09220349 214.44419735 70.42482252 218.10546875 70.33666992 C219.40484375 70.33666992 220.70421875 70.33666992 222.04296875 70.33666992 C222.70296875 70.99666992 223.36296875 71.65666992 224.04296875 72.33666992 C230.60991323 73.82456503 237.31260429 74.64971013 244.04296875 74.33666992 C244.04296875 74.99666992 244.04296875 75.65666992 244.04296875 76.33666992 C246.02201865 76.48407934 248.00121996 76.62945544 249.98046875 76.77416992 C251.24890625 76.86698242 252.51734375 76.95979492 253.82421875 77.05541992 C256.71904008 77.25751122 259.61305191 77.41954491 262.51171875 77.55541992 C263.25558838 77.59223877 263.99945801 77.62905762 264.76586914 77.66699219 C266.20745159 77.73675899 267.64936496 77.80008414 269.09155273 77.85595703 C273.67213198 78.08441075 277.6818268 78.94593272 282.04296875 80.33666992 C282.76484375 80.52487305 283.48671875 80.71307617 284.23046875 80.90698242 C290.12002344 82.70938925 293.62252967 86.28921117 297.04296875 91.33666992 C298.99903076 95.35992942 299.28679123 98.60180036 299.27001953 103.0546875 C299.27031158 103.70890686 299.27060364 104.36312622 299.27090454 105.03717041 C299.26951857 107.18531871 299.25399246 109.33311396 299.23828125 111.48120117 C299.2345485 112.97620962 299.23170277 114.47122052 299.22970581 115.9662323 C299.22208993 119.89044006 299.20245916 123.81449848 299.18029785 127.73864746 C299.15979524 131.74721252 299.15069467 135.75580185 299.140625 139.7644043 C299.1192112 147.62189451 299.08510013 155.47926361 299.04296875 163.33666992 C299.70296875 163.33666992 300.36296875 163.33666992 301.04296875 163.33666992 C300.78255208 165.32234701 300.52213542 167.30802409 300.26171875 169.29370117 C299.88556785 172.80668186 300.04822687 176.35503522 300.05883789 179.88574219 C300.30302383 268.18454046 300.30302383 268.18454046 297.05932617 308.49047852 C296.36860137 317.12728184 295.8184535 325.66192126 296.04296875 334.33666992 C295.71296875 334.33666992 295.38296875 334.33666992 295.04296875 334.33666992 C294.95845459 335.02664063 294.87394043 335.71661133 294.78686523 336.42749023 C284.52642278 418.64541679 258.5379223 493.30901868 205.79296875 558.14135742 C203.5143505 560.99980263 201.38056881 563.95447543 199.26953125 566.93823242 C198.86476563 567.3997168 198.46 567.86120117 198.04296875 568.33666992 C197.38296875 568.33666992 196.72296875 568.33666992 196.04296875 568.33666992 C195.77484375 569.30604492 195.50671875 570.27541992 195.23046875 571.27416992 C194.64265625 572.79010742 194.64265625 572.79010742 194.04296875 574.33666992 C193.05296875 574.66666992 192.06296875 574.99666992 191.04296875 575.33666992 C189.38703818 576.94897234 189.38703818 576.94897234 187.77734375 578.94213867 C178.75070542 589.57325015 168.94681569 599.52602075 159.10546875 609.39916992 C158.32526367 610.18396729 157.54505859 610.96876465 156.74121094 611.77734375 C152.58596354 615.92150694 148.34605994 619.89744245 143.89868164 623.72607422 C141.1074423 626.14862466 138.4258884 628.68375742 135.73046875 631.21166992 C130.98875506 635.61820766 126.14260593 639.82447943 121.09375 643.87963867 C118.78345335 645.74030012 116.49199321 647.61651603 114.2109375 649.51245117 C103.98717231 658.00683519 93.60434988 666.26599441 83.04296875 674.33666992 C82.24487793 674.94655762 81.44678711 675.55644531 80.62451172 676.18481445 C58.23750228 693.24052575 35.08111456 709.05412174 11.22460938 723.97192383 C9.28149169 725.18745962 7.34165558 726.40804635 5.40234375 727.62963867 C0.01990611 730.99041194 -5.41496424 734.24665723 -10.95703125 737.33666992 C-12.50390625 738.20291992 -12.50390625 738.20291992 -14.08203125 739.08666992 C-16.99728954 740.35417353 -18.8228552 740.61321487 -21.95703125 740.33666992 C-22.28703125 740.99666992 -22.61703125 741.65666992 -22.95703125 742.33666992 C-67.03143757 736.15078833 -121.69467889 682.89986534 -154.95703125 655.33666992 C-156.81001162 653.81439143 -158.66419773 652.29357954 -160.51953125 650.77416992 C-161.41414062 650.0394043 -162.30875 649.30463867 -163.23046875 648.54760742 C-165.09616238 647.03473837 -166.97726199 645.54072583 -168.87109375 644.06323242 C-170.24394531 642.99202148 -170.24394531 642.99202148 -171.64453125 641.89916992 C-172.88783203 640.94204102 -172.88783203 640.94204102 -174.15625 639.96557617 C-174.75050781 639.42803711 -175.34476563 638.89049805 -175.95703125 638.33666992 C-175.95703125 637.67666992 -175.95703125 637.01666992 -175.95703125 636.33666992 C-176.83887085 635.93702026 -176.83887085 635.93702026 -177.73852539 635.52929688 C-180.00396344 634.31144006 -181.58905726 633.01695884 -183.453125 631.25463867 C-184.09443359 630.65200195 -184.73574219 630.04936523 -185.39648438 629.4284668 C-186.38551758 628.48583984 -186.38551758 628.48583984 -187.39453125 627.52416992 C-188.05001953 626.90735352 -188.70550781 626.29053711 -189.38085938 625.6550293 C-192.18074541 623.01240867 -194.94539843 620.34836998 -197.66015625 617.61791992 C-200.43224143 614.86469246 -203.38393549 612.38743921 -206.3828125 609.88745117 C-206.90230469 609.37569336 -207.42179688 608.86393555 -207.95703125 608.33666992 C-207.95703125 607.67666992 -207.95703125 607.01666992 -207.95703125 606.33666992 C-208.49328125 606.13041992 -209.02953125 605.92416992 -209.58203125 605.71166992 C-212.87681134 603.80416566 -215.55066753 601.28847608 -217.95703125 598.33666992 C-217.95703125 597.67666992 -217.95703125 597.01666992 -217.95703125 596.33666992 C-218.94703125 596.00666992 -219.93703125 595.67666992 -220.95703125 595.33666992 C-222.5 593.77026367 -222.5 593.77026367 -224.14453125 591.77416992 C-226.59473374 588.87707516 -229.10339464 586.16021806 -231.83203125 583.52416992 C-235.80506497 579.6124958 -239.26784919 575.38160266 -242.75390625 571.03588867 C-244.67310653 568.68452804 -246.65216465 566.44353134 -248.70703125 564.21166992 C-254.91655245 557.29848529 -260.3925716 549.76970517 -265.95703125 542.33666992 C-266.4782959 541.6407373 -266.99956055 540.94480469 -267.53662109 540.2277832 C-272.62468814 533.41384381 -277.53692293 526.60846104 -281.95703125 519.33666992 C-282.61703125 518.67666992 -283.27703125 518.01666992 -283.95703125 517.33666992 C-284.86638461 515.77281382 -285.73539362 514.1853488 -286.58203125 512.58666992 C-289.09693582 507.89923641 -291.68560299 503.26303193 -294.33203125 498.64916992 C-294.68990723 498.02494141 -295.0477832 497.40071289 -295.41650391 496.75756836 C-296.26246374 495.28342869 -297.10961366 493.80997207 -297.95703125 492.33666992 C-298.28703125 492.66666992 -298.61703125 492.99666992 -298.95703125 493.33666992 C-299.61703125 493.33666992 -300.27703125 493.33666992 -300.95703125 493.33666992 C-301.8912677 490.32635249 -302.00153036 489.47016725 -300.95703125 486.33666992 C-301.89282202 483.74197036 -301.89282202 483.74197036 -303.37890625 480.92651367 C-303.91 479.85336914 -304.44109375 478.78022461 -304.98828125 477.67456055 C-305.55546875 476.55243164 -306.12265625 475.43030273 -306.70703125 474.27416992 C-310.19997612 467.34132725 -313.44565882 460.72702408 -315.32519531 453.16699219 C-315.7899915 451.1287152 -315.7899915 451.1287152 -317.95703125 450.33666992 C-318.703125 448.36791992 -318.703125 448.36791992 -319.39453125 445.83666992 C-319.65105469 444.93819336 -319.90757812 444.0397168 -320.171875 443.11401367 C-320.43097656 442.19749023 -320.69007813 441.2809668 -320.95703125 440.33666992 C-321.44320569 438.68669969 -321.94227868 437.04044904 -322.45703125 435.39916992 C-322.67359375 434.68889648 -322.89015625 433.97862305 -323.11328125 433.24682617 C-324.06544063 431.09124312 -325.29879525 429.98153305 -326.95703125 428.33666992 C-327.70703125 425.21166992 -327.70703125 425.21166992 -327.95703125 422.33666992 C-327.62703125 422.00666992 -327.29703125 421.67666992 -326.95703125 421.33666992 C-327.57248911 419.02123379 -328.19881161 416.70974796 -328.83203125 414.39916992 C-329.00605469 413.73981445 -329.18007813 413.08045898 -329.359375 412.40112305 C-329.83179362 410.69516692 -330.38918153 409.01327732 -330.95703125 407.33666992 C-331.61703125 407.00666992 -332.27703125 406.67666992 -332.95703125 406.33666992 C-333.64453125 402.83666992 -333.64453125 402.83666992 -333.95703125 399.33666992 C-333.62703125 399.00666992 -333.29703125 398.67666992 -332.95703125 398.33666992 C-333.34892973 395.89043074 -333.80660893 393.49640484 -334.3203125 391.07495117 C-334.47235641 390.33270798 -334.62440033 389.59046478 -334.78105164 388.82572937 C-335.27177713 386.43238483 -335.76996629 384.04068385 -336.26953125 381.64916992 C-342.39326315 352.24246733 -342.39326315 352.24246733 -341.95703125 341.33666992 C-342.61703125 341.00666992 -343.27703125 340.67666992 -343.95703125 340.33666992 C-344.00601563 339.42272461 -344.055 338.5087793 -344.10546875 337.56713867 C-344.4860495 330.70787545 -344.90834089 323.85455389 -345.43359375 317.00463867 C-345.51947754 315.88355713 -345.60536133 314.76247559 -345.69384766 313.60742188 C-345.86200752 311.43772291 -346.03325002 309.26825921 -346.20849609 307.09912109 C-348.04525216 283.39269871 -348.13385426 259.69230742 -348.15721989 235.93047071 C-348.16018267 233.0650287 -348.1642922 230.1995904 -348.16872406 227.33415031 C-348.18231416 218.33845944 -348.19203001 209.34277736 -348.19592595 200.34707695 C-348.20042969 190.01242794 -348.21811949 179.67790966 -348.24692655 169.3433004 C-348.26854282 161.30710666 -348.27862969 153.27094982 -348.27996707 145.23472732 C-348.28101223 140.4526984 -348.28686247 135.67079385 -348.30478668 130.88879585 C-348.32127341 126.40614312 -348.32342005 121.92370849 -348.31464767 117.44103622 C-348.31387847 115.8011752 -348.31820455 114.16130233 -348.32810593 112.52147102 C-348.43813353 93.16139577 -348.43813353 93.16139577 -341.58984375 85.65698242 C-335.22941605 80.51386146 -327.8459791 79.73241009 -319.95703125 80.33666992 C-319.62703125 79.67666992 -319.29703125 79.01666992 -318.95703125 78.33666992 C-317.97637695 78.30001221 -316.99572266 78.26335449 -315.98535156 78.22558594 C-304.08815967 77.69872489 -292.46014209 76.14522876 -280.70703125 74.27416992 C-279.73137207 74.12049957 -278.75571289 73.96682922 -277.75048828 73.8085022 C-245.616528 68.71895178 -214.21516572 61.31800698 -182.95703125 52.33666992 C-181.6952002 51.97492676 -180.43336914 51.61318359 -179.13330078 51.24047852 C-140.9968959 40.165291 -104.16338845 25.06485587 -67.83203125 9.14916992 C-66.96838959 8.77103149 -66.10474792 8.39289307 -65.2149353 8.0032959 C-55.58085798 3.77814376 -45.9883686 -0.51086834 -36.51705933 -5.09159851 C-22.3029135 -11.90187279 -13.27564188 -6.46746327 0 0 Z M-325.95703125 425.33666992 C-324.95703125 427.33666992 -324.95703125 427.33666992 -324.95703125 427.33666992 Z " fill="#D6EFD1" transform="translate(535.95703125,145.663330078125)"/>
<path d="M0 0 C21.35439502 10.3709149 43.30206865 19.48760355 65.46777344 27.96606445 C68.63934625 29.1819351 71.80599837 30.4094326 74.97105408 31.6421051 C77.62276585 32.67323609 80.27715306 33.69733802 82.93228149 34.71963501 C84.80367308 35.44168529 86.67274708 36.16973326 88.54174805 36.89794922 C94.05651689 39.00535788 99.13275147 40.9052672 105.04296875 41.33666992 C105.04296875 41.99666992 105.04296875 42.65666992 105.04296875 43.33666992 C106.21730469 43.5712793 107.39164063 43.80588867 108.6015625 44.04760742 C116.23404631 45.7410601 123.67048937 48.23292815 131.11645508 50.60131836 C141.36785911 53.91278682 141.36785911 53.91278682 152.04296875 54.33666992 C151.38296875 54.99666992 150.72296875 55.65666992 150.04296875 56.33666992 C154.10320325 57.34602408 158.16649039 58.34250662 162.23046875 59.33666992 C163.38095703 59.6228418 164.53144531 59.90901367 165.71679688 60.20385742 C166.82861328 60.47456055 167.94042969 60.74526367 169.0859375 61.02416992 C170.1071167 61.27553711 171.1282959 61.5269043 172.18041992 61.78588867 C174.99665396 62.42900181 174.99665396 62.42900181 177.7277832 62.29370117 C180.04296875 62.33666992 180.04296875 62.33666992 183.04296875 64.33666992 C185.55193561 64.79268253 185.55193561 64.79268253 188.23046875 64.96166992 C189.13152344 65.03643555 190.03257812 65.11120117 190.9609375 65.18823242 C191.64800781 65.2372168 192.33507812 65.28620117 193.04296875 65.33666992 C193.04296875 65.99666992 193.04296875 66.65666992 193.04296875 67.33666992 C194.30109375 67.46041992 195.55921875 67.58416992 196.85546875 67.71166992 C200.46535321 68.10269351 203.98236387 68.69106655 207.54296875 69.39916992 C211.13966122 70.09220349 214.44419735 70.42482252 218.10546875 70.33666992 C219.40484375 70.33666992 220.70421875 70.33666992 222.04296875 70.33666992 C222.70296875 70.99666992 223.36296875 71.65666992 224.04296875 72.33666992 C230.60991323 73.82456503 237.31260429 74.64971013 244.04296875 74.33666992 C244.04296875 74.99666992 244.04296875 75.65666992 244.04296875 76.33666992 C246.02201865 76.48407934 248.00121996 76.62945544 249.98046875 76.77416992 C251.24890625 76.86698242 252.51734375 76.95979492 253.82421875 77.05541992 C256.71904008 77.25751122 259.61305191 77.41954491 262.51171875 77.55541992 C263.25558838 77.59223877 263.99945801 77.62905762 264.76586914 77.66699219 C266.20745159 77.73675899 267.64936496 77.80008414 269.09155273 77.85595703 C273.67213198 78.08441075 277.6818268 78.94593272 282.04296875 80.33666992 C282.76484375 80.52487305 283.48671875 80.71307617 284.23046875 80.90698242 C290.12002344 82.70938925 293.62252967 86.28921117 297.04296875 91.33666992 C298.99903076 95.35992942 299.28679123 98.60180036 299.27001953 103.0546875 C299.27031158 103.70890686 299.27060364 104.36312622 299.27090454 105.03717041 C299.26951857 107.18531871 299.25399246 109.33311396 299.23828125 111.48120117 C299.2345485 112.97620962 299.23170277 114.47122052 299.22970581 115.9662323 C299.22208993 119.89044006 299.20245916 123.81449848 299.18029785 127.73864746 C299.15979524 131.74721252 299.15069467 135.75580185 299.140625 139.7644043 C299.1192112 147.62189451 299.08510013 155.47926361 299.04296875 163.33666992 C299.70296875 163.33666992 300.36296875 163.33666992 301.04296875 163.33666992 C300.78255208 165.32234701 300.52213542 167.30802409 300.26171875 169.29370117 C299.88556785 172.80668186 300.04822687 176.35503522 300.05883789 179.88574219 C300.30302383 268.18454046 300.30302383 268.18454046 297.05932617 308.49047852 C296.36860137 317.12728184 295.8184535 325.66192126 296.04296875 334.33666992 C295.71296875 334.33666992 295.38296875 334.33666992 295.04296875 334.33666992 C294.95845459 335.02664063 294.87394043 335.71661133 294.78686523 336.42749023 C284.52642278 418.64541679 258.5379223 493.30901868 205.79296875 558.14135742 C203.5143505 560.99980263 201.38056881 563.95447543 199.26953125 566.93823242 C198.86476563 567.3997168 198.46 567.86120117 198.04296875 568.33666992 C197.38296875 568.33666992 196.72296875 568.33666992 196.04296875 568.33666992 C195.77484375 569.30604492 195.50671875 570.27541992 195.23046875 571.27416992 C194.64265625 572.79010742 194.64265625 572.79010742 194.04296875 574.33666992 C193.05296875 574.66666992 192.06296875 574.99666992 191.04296875 575.33666992 C189.38703818 576.94897234 189.38703818 576.94897234 187.77734375 578.94213867 C178.75070542 589.57325015 168.94681569 599.52602075 159.10546875 609.39916992 C158.32526367 610.18396729 157.54505859 610.96876465 156.74121094 611.77734375 C152.58596354 615.92150694 148.34605994 619.89744245 143.89868164 623.72607422 C141.1074423 626.14862466 138.4258884 628.68375742 135.73046875 631.21166992 C130.98875506 635.61820766 126.14260593 639.82447943 121.09375 643.87963867 C118.78345335 645.74030012 116.49199321 647.61651603 114.2109375 649.51245117 C103.98717231 658.00683519 93.60434988 666.26599441 83.04296875 674.33666992 C82.24487793 674.94655762 81.44678711 675.55644531 80.62451172 676.18481445 C58.23750228 693.24052575 35.08111456 709.05412174 11.22460938 723.97192383 C9.28149169 725.18745962 7.34165558 726.40804635 5.40234375 727.62963867 C0.01990611 730.99041194 -5.41496424 734.24665723 -10.95703125 737.33666992 C-12.50390625 738.20291992 -12.50390625 738.20291992 -14.08203125 739.08666992 C-16.99728954 740.35417353 -18.8228552 740.61321487 -21.95703125 740.33666992 C-22.28703125 740.99666992 -22.61703125 741.65666992 -22.95703125 742.33666992 C-67.03143757 736.15078833 -121.69467889 682.89986534 -154.95703125 655.33666992 C-156.81001162 653.81439143 -158.66419773 652.29357954 -160.51953125 650.77416992 C-161.41414062 650.0394043 -162.30875 649.30463867 -163.23046875 648.54760742 C-165.09616238 647.03473837 -166.97726199 645.54072583 -168.87109375 644.06323242 C-170.24394531 642.99202148 -170.24394531 642.99202148 -171.64453125 641.89916992 C-172.88783203 640.94204102 -172.88783203 640.94204102 -174.15625 639.96557617 C-174.75050781 639.42803711 -175.34476563 638.89049805 -175.95703125 638.33666992 C-175.95703125 637.67666992 -175.95703125 637.01666992 -175.95703125 636.33666992 C-176.83887085 635.93702026 -176.83887085 635.93702026 -177.73852539 635.52929688 C-180.00396344 634.31144006 -181.58905726 633.01695884 -183.453125 631.25463867 C-184.09443359 630.65200195 -184.73574219 630.04936523 -185.39648438 629.4284668 C-186.38551758 628.48583984 -186.38551758 628.48583984 -187.39453125 627.52416992 C-188.05001953 626.90735352 -188.70550781 626.29053711 -189.38085938 625.6550293 C-192.18074541 623.01240867 -194.94539843 620.34836998 -197.66015625 617.61791992 C-200.43224143 614.86469246 -203.38393549 612.38743921 -206.3828125 609.88745117 C-206.90230469 609.37569336 -207.42179688 608.86393555 -207.95703125 608.33666992 C-207.95703125 607.67666992 -207.95703125 607.01666992 -207.95703125 606.33666992 C-208.49328125 606.13041992 -209.02953125 605.92416992 -209.58203125 605.71166992 C-212.87681134 603.80416566 -215.55066753 601.28847608 -217.95703125 598.33666992 C-217.95703125 597.67666992 -217.95703125 597.01666992 -217.95703125 596.33666992 C-218.94703125 596.00666992 -219.93703125 595.67666992 -220.95703125 595.33666992 C-222.5 593.77026367 -222.5 593.77026367 -224.14453125 591.77416992 C-226.59473374 588.87707516 -229.10339464 586.16021806 -231.83203125 583.52416992 C-235.80506497 579.6124958 -239.26784919 575.38160266 -242.75390625 571.03588867 C-244.67310653 568.68452804 -246.65216465 566.44353134 -248.70703125 564.21166992 C-254.91655245 557.29848529 -260.3925716 549.76970517 -265.95703125 542.33666992 C-266.4782959 541.6407373 -266.99956055 540.94480469 -267.53662109 540.2277832 C-272.62468814 533.41384381 -277.53692293 526.60846104 -281.95703125 519.33666992 C-282.61703125 518.67666992 -283.27703125 518.01666992 -283.95703125 517.33666992 C-284.86638461 515.77281382 -285.73539362 514.1853488 -286.58203125 512.58666992 C-289.09693582 507.89923641 -291.68560299 503.26303193 -294.33203125 498.64916992 C-294.68990723 498.02494141 -295.0477832 497.40071289 -295.41650391 496.75756836 C-296.26246374 495.28342869 -297.10961366 493.80997207 -297.95703125 492.33666992 C-298.28703125 492.66666992 -298.61703125 492.99666992 -298.95703125 493.33666992 C-299.61703125 493.33666992 -300.27703125 493.33666992 -300.95703125 493.33666992 C-301.8912677 490.32635249 -302.00153036 489.47016725 -300.95703125 486.33666992 C-301.89282202 483.74197036 -301.89282202 483.74197036 -303.37890625 480.92651367 C-303.91 479.85336914 -304.44109375 478.78022461 -304.98828125 477.67456055 C-305.55546875 476.55243164 -306.12265625 475.43030273 -306.70703125 474.27416992 C-310.19997612 467.34132725 -313.44565882 460.72702408 -315.32519531 453.16699219 C-315.7899915 451.1287152 -315.7899915 451.1287152 -317.95703125 450.33666992 C-318.703125 448.36791992 -318.703125 448.36791992 -319.39453125 445.83666992 C-319.65105469 444.93819336 -319.90757812 444.0397168 -320.171875 443.11401367 C-320.43097656 442.19749023 -320.69007813 441.2809668 -320.95703125 440.33666992 C-321.44320569 438.68669969 -321.94227868 437.04044904 -322.45703125 435.39916992 C-322.67359375 434.68889648 -322.89015625 433.97862305 -323.11328125 433.24682617 C-324.06544063 431.09124312 -325.29879525 429.98153305 -326.95703125 428.33666992 C-327.70703125 425.21166992 -327.70703125 425.21166992 -327.95703125 422.33666992 C-327.62703125 422.00666992 -327.29703125 421.67666992 -326.95703125 421.33666992 C-327.57248911 419.02123379 -328.19881161 416.70974796 -328.83203125 414.39916992 C-329.00605469 413.73981445 -329.18007813 413.08045898 -329.359375 412.40112305 C-329.83179362 410.69516692 -330.38918153 409.01327732 -330.95703125 407.33666992 C-331.61703125 407.00666992 -332.27703125 406.67666992 -332.95703125 406.33666992 C-333.64453125 402.83666992 -333.64453125 402.83666992 -333.95703125 399.33666992 C-333.62703125 399.00666992 -333.29703125 398.67666992 -332.95703125 398.33666992 C-333.34892973 395.89043074 -333.80660893 393.49640484 -334.3203125 391.07495117 C-334.47235641 390.33270798 -334.62440033 389.59046478 -334.78105164 388.82572937 C-335.27177713 386.43238483 -335.76996629 384.04068385 -336.26953125 381.64916992 C-342.39326315 352.24246733 -342.39326315 352.24246733 -341.95703125 341.33666992 C-342.61703125 341.00666992 -343.27703125 340.67666992 -343.95703125 340.33666992 C-344.00601563 339.42272461 -344.055 338.5087793 -344.10546875 337.56713867 C-344.4860495 330.70787545 -344.90834089 323.85455389 -345.43359375 317.00463867 C-345.51947754 315.88355713 -345.60536133 314.76247559 -345.69384766 313.60742188 C-345.86200752 311.43772291 -346.03325002 309.26825921 -346.20849609 307.09912109 C-348.04525216 283.39269871 -348.13385426 259.69230742 -348.15721989 235.93047071 C-348.16018267 233.0650287 -348.1642922 230.1995904 -348.16872406 227.33415031 C-348.18231416 218.33845944 -348.19203001 209.34277736 -348.19592595 200.34707695 C-348.20042969 190.01242794 -348.21811949 179.67790966 -348.24692655 169.3433004 C-348.26854282 161.30710666 -348.27862969 153.27094982 -348.27996707 145.23472732 C-348.28101223 140.4526984 -348.28686247 135.67079385 -348.30478668 130.88879585 C-348.32127341 126.40614312 -348.32342005 121.92370849 -348.31464767 117.44103622 C-348.31387847 115.8011752 -348.31820455 114.16130233 -348.32810593 112.52147102 C-348.43813353 93.16139577 -348.43813353 93.16139577 -341.58984375 85.65698242 C-335.22941605 80.51386146 -327.8459791 79.73241009 -319.95703125 80.33666992 C-319.62703125 79.67666992 -319.29703125 79.01666992 -318.95703125 78.33666992 C-317.97637695 78.30001221 -316.99572266 78.26335449 -315.98535156 78.22558594 C-304.08815967 77.69872489 -292.46014209 76.14522876 -280.70703125 74.27416992 C-279.73137207 74.12049957 -278.75571289 73.96682922 -277.75048828 73.8085022 C-245.616528 68.71895178 -214.21516572 61.31800698 -182.95703125 52.33666992 C-181.6952002 51.97492676 -180.43336914 51.61318359 -179.13330078 51.24047852 C-140.9968959 40.165291 -104.16338845 25.06485587 -67.83203125 9.14916992 C-66.96838959 8.77103149 -66.10474792 8.39289307 -65.2149353 8.0032959 C-55.58085798 3.77814376 -45.9883686 -0.51086834 -36.51705933 -5.09159851 C-22.3029135 -11.90187279 -13.27564188 -6.46746327 0 0 Z M-31.42578125 30.97729492 C-32.53977295 31.54714111 -33.65376465 32.1169873 -34.80151367 32.70410156 C-35.3958017 33.01058624 -35.99008972 33.31707092 -36.60238647 33.63284302 C-85.26210467 58.65809259 -137.14927357 77.2294452 -189.95703125 91.33666992 C-191.17068359 91.6621582 -192.38433594 91.98764648 -193.63476562 92.32299805 C-219.5380272 99.19704918 -245.73441555 104.52814071 -272.20703125 108.64916992 C-272.98817291 108.77236603 -273.76931458 108.89556213 -274.5741272 109.02249146 C-283.87744123 110.47764378 -293.16845473 111.59505741 -302.54980469 112.41552734 C-303.55631073 112.50522545 -304.56281677 112.59492355 -305.599823 112.68733978 C-308.05206927 112.90561755 -310.50446449 113.12202847 -312.95703125 113.33666992 C-313.00409004 134.44497875 -313.03918392 155.55327874 -313.06065559 176.66162968 C-313.07089742 186.46616957 -313.08481906 196.27067656 -313.10791016 206.07519531 C-313.12806446 214.63694915 -313.14079895 223.19867912 -313.14520824 231.76045603 C-313.14777901 236.27917246 -313.15366619 240.79782075 -313.16849136 245.31651497 C-313.25502723 272.77487257 -312.54891016 300.05206886 -309.14453125 327.33666992 C-309.01856064 328.36806091 -309.01856064 328.36806091 -308.89004517 329.42028809 C-303.56126387 372.96034546 -294.97790625 416.10876765 -276.95703125 456.33666992 C-276.32692139 457.74722656 -276.32692139 457.74722656 -275.68408203 459.1862793 C-259.15334408 495.790494 -235.48956189 527.41556576 -208.95703125 557.33666992 C-208.085625 558.32151367 -207.21421875 559.30635742 -206.31640625 560.32104492 C-199.3527035 568.01776901 -192.03411694 575.3632737 -184.70703125 582.71166992 C-183.92735489 583.49536453 -183.92735489 583.49536453 -183.13192749 584.29489136 C-177.79551265 589.65214705 -172.4368689 594.93286222 -166.68701172 599.85180664 C-164.10519679 602.0678098 -161.63418738 604.39263358 -159.14453125 606.71166992 C-154.50492813 610.99777247 -149.72918171 615.05685061 -144.80859375 619.02026367 C-140.60902748 622.43169216 -136.50413044 625.95117685 -132.390625 629.46557617 C-110.67874059 647.78105909 -87.45883902 664.41066839 -63.95703125 680.33666992 C-63.03591553 680.96436279 -63.03591553 680.96436279 -62.09619141 681.60473633 C-42.86415751 696.81671422 -42.86415751 696.81671422 -20.95703125 703.33666992 C-17.90741676 702.07014214 -17.90741676 702.07014214 -14.83203125 700.14916992 C-14.24147949 699.79894775 -13.65092773 699.44872559 -13.04248047 699.08789062 C0.67449387 690.84685565 13.96536978 681.86410914 27.08203125 672.70483398 C29.0757843 671.31377421 31.0749644 669.93074541 33.07421875 668.54760742 C61.74270948 648.6125642 89.54204805 626.78493195 115.12890625 603.00463867 C117.30191438 601.01514196 119.49486934 599.08073194 121.72680664 597.15991211 C125.99133647 593.43269871 130.01783007 589.50651376 134.015625 585.49682617 C134.74236923 584.77103867 135.46911346 584.04525116 136.21788025 583.29747009 C137.74259171 581.77343436 139.26606025 580.24815423 140.78833008 578.72167969 C143.09930766 576.40534529 145.41557646 574.09439915 147.73242188 571.78393555 C149.22297695 570.29271958 150.71322175 568.8011934 152.203125 567.30932617 C152.88560806 566.62886734 153.56809113 565.94840851 154.27125549 565.24732971 C158.72669952 560.77042292 162.93135517 556.12993699 167.04296875 551.33666992 C168.0278013 550.20702685 169.01333992 549.07799839 170 547.94995117 C176.6426289 540.29374873 183.02834027 532.49857275 189.04296875 524.33666992 C189.5013916 523.7148584 189.95981445 523.09304688 190.43212891 522.45239258 C222.74789805 478.30391202 243.50799178 428.57026212 253.54296875 374.83666992 C253.69293304 374.04041199 253.84289734 373.24415405 253.99740601 372.42376709 C260.65694492 336.88474146 264.24468206 300.83037846 264.15649414 264.66601562 C264.15621097 262.99820965 264.15637252 261.33040356 264.15693665 259.66259766 C264.15721957 255.20310989 264.15140574 250.74364989 264.14436269 246.28416848 C264.13804388 241.59839795 264.13751869 236.91262655 264.13633728 232.22685242 C264.13324881 223.3841121 264.12506945 214.54138439 264.11498779 205.69864959 C264.10374881 195.61859596 264.09829673 185.53854168 264.09329236 175.45848334 C264.08288432 154.75120521 264.06533379 134.04393837 264.04296875 113.33666992 C262.63288135 113.16862807 262.63288135 113.16862807 261.19430733 112.99719143 C257.65239555 112.574173 254.11069778 112.14943861 250.56912422 111.72360134 C249.04643082 111.54085643 247.52365896 111.35876389 246.00080299 111.17737865 C233.91232291 109.73687021 221.90678811 108.0253661 209.91796875 105.89916992 C208.15958797 105.59244 206.40120578 105.28571815 204.64282227 104.97900391 C192.02911252 102.76153375 179.50020589 100.31833366 167.04296875 97.33666992 C165.93518066 97.07869629 164.82739258 96.82072266 163.68603516 96.55493164 C101.05943009 81.91308286 38.93454696 60.7059958 -18.07519531 30.72265625 C-23.67016759 27.80975748 -25.91130315 28.1226779 -31.42578125 30.97729492 Z M-325.95703125 425.33666992 C-324.95703125 427.33666992 -324.95703125 427.33666992 -324.95703125 427.33666992 Z " fill="#38B445" transform="translate(535.95703125,145.663330078125)"/>
<path d="M0 0 C7.61700874 6.13063115 14.44980107 13.27269411 21.37109375 20.16796875 C21.88774157 20.68178919 22.40438938 21.19560963 22.93669319 21.72500038 C25.65959144 24.43307002 28.37973144 27.14387235 31.09741211 29.85717773 C33.89024845 32.64448674 36.69228344 35.42235836 39.49645901 38.19825268 C41.66941148 40.3525581 43.83560417 42.51356523 46.00001717 44.67644691 C47.03051251 45.70393076 48.06349039 46.7289314 49.09905815 47.75130272 C50.5437562 49.1788631 51.97802957 50.61694977 53.41186523 52.05541992 C54.2277562 52.86766525 55.04364716 53.67991058 55.88426208 54.51676941 C59.84024826 59.15988981 61.44123007 63.30700436 61.5 69.375 C61.54640625 70.96441406 61.54640625 70.96441406 61.59375 72.5859375 C59.96937187 81.92611172 52.05229556 88.37625379 45.6131897 94.77449036 C44.54490733 95.8469502 43.47727721 96.92006009 42.41024053 97.99375933 C39.48875869 100.92965949 36.55803969 103.85618136 33.62565088 106.78118217 C30.46000584 109.94208907 27.30300593 113.11161084 24.14485168 116.27999878 C17.96198595 122.48004352 11.77098164 128.67189891 5.5769005 134.86073706 C0.54313243 139.89046153 -4.48788249 144.92292416 -9.51695633 149.95734215 C-10.23307638 150.67421062 -10.94919643 151.39107909 -11.68701709 152.12967085 C-13.14183572 153.58602097 -14.59665092 155.04237452 -16.05146272 156.49873146 C-29.68774235 170.14873218 -43.33358399 183.78914218 -56.98246117 197.42654469 C-69.47051599 209.9046614 -81.94708618 222.39418871 -94.41820864 234.88922635 C-107.2262451 247.72163883 -120.04163885 260.54665949 -132.86519682 273.36356181 C-140.06358869 280.55845892 -147.25907874 287.75620085 -154.44697189 294.96158791 C-160.56397858 301.09329754 -166.68794863 307.21794664 -172.82103227 313.33357737 C-175.94996438 316.45398264 -179.07559184 319.57751885 -182.19262123 322.70981789 C-185.046223 325.57722554 -187.90890079 328.43523394 -190.77908392 331.28604134 C-191.81551446 332.31869909 -192.84858573 333.35474175 -193.87791197 334.39448104 C-204.45586445 345.07179631 -204.45586445 345.07179631 -212.58984375 346.43359375 C-213.75193359 346.43552734 -213.75193359 346.43552734 -214.9375 346.4375 C-216.09572266 346.46650391 -216.09572266 346.46650391 -217.27734375 346.49609375 C-224.25573706 345.22456441 -229.42443662 341.16576341 -234.27456665 336.21990967 C-234.85294954 335.64635561 -235.43133242 335.07280156 -236.02724206 334.48186707 C-237.94653821 332.5737663 -239.8513034 330.65181397 -241.75634766 328.72949219 C-243.13609473 327.35189287 -244.51670774 325.97516037 -245.89811707 324.59922791 C-249.63646369 320.87055139 -253.36222904 317.12953376 -257.08556414 313.38587475 C-260.99058336 309.46324413 -264.90618794 305.55120585 -268.82040405 301.63775635 C-275.39231889 295.0639701 -281.9564527 288.48249532 -288.515625 281.89599609 C-296.08888223 274.29130297 -303.67252646 266.69709814 -311.26225054 259.10884166 C-319.35518356 251.01726201 -327.4404717 242.91807632 -335.52354765 234.81665134 C-337.84715766 232.48878791 -340.17217739 230.16234049 -342.49751663 227.83620453 C-346.15810942 224.17359532 -349.81353276 220.50590093 -353.46509743 216.83429146 C-354.80251126 215.49106047 -356.14159339 214.14948807 -357.48250008 212.80974388 C-377.00917388 193.29358992 -377.00917388 193.29358992 -377.4609375 180.890625 C-375.77702866 170.33051873 -368.56907253 163.84654827 -361.296875 156.66796875 C-360.13268026 155.50294381 -358.969303 154.33710148 -357.80670166 153.17048645 C-355.3768997 150.73783822 -352.93861825 148.31413308 -350.49365234 145.89672852 C-347.37375314 142.81092824 -344.27434316 139.70546585 -341.18082809 136.59324169 C-338.78435715 134.18615991 -336.37816787 131.78898611 -333.96891022 129.39470863 C-332.82276446 128.25371388 -331.67939076 127.10992702 -330.53896332 125.96321678 C-317.85290627 113.23353402 -317.85290627 113.23353402 -309.3125 111.43359375 C-308.549375 111.43488281 -307.78625 111.43617188 -307 111.4375 C-306.236875 111.41558594 -305.47375 111.39367187 -304.6875 111.37109375 C-297.03564997 113.16171563 -291.35954115 119.21662085 -286.0234375 124.63598633 C-285.27124435 125.38774139 -284.51905121 126.13949646 -283.74406433 126.91403198 C-281.28052368 129.3796485 -278.82775668 131.8556908 -276.375 134.33203125 C-274.66073205 136.05189939 -272.94579685 137.77110269 -271.23022461 139.4896698 C-266.7322742 143.99903546 -262.243409 148.51733959 -257.75640869 153.03759766 C-253.16990677 157.65487193 -248.57482491 162.26359015 -243.98046875 166.87304688 C-234.97858672 175.90703449 -225.9859895 184.95020556 -217 194 C-213.98021129 192.64709588 -211.8935861 191.13986693 -209.56564808 188.79777718 C-208.90138902 188.13441671 -208.23712995 187.47105625 -207.55274183 186.78759396 C-206.83125209 186.05686795 -206.10976236 185.32614193 -205.3664093 184.57327271 C-204.20699547 183.4111304 -204.20699547 183.4111304 -203.02415913 182.22551048 C-200.42712035 179.62003699 -197.83730062 177.00750243 -195.24731445 174.39501953 C-193.38989539 172.52885363 -191.53199908 170.66316263 -189.67366028 168.7979126 C-185.66781105 164.77605275 -181.66536942 160.75082777 -177.66494179 156.72357559 C-171.33885508 150.3555626 -165.00297065 143.9973482 -158.66557312 137.64059448 C-156.4967885 135.46492985 -154.32808006 133.28918931 -152.1594038 131.11341667 C-151.61741932 130.56966053 -151.07543483 130.0259044 -150.51702658 129.4656708 C-144.34814684 123.2762968 -138.18160249 117.08459808 -132.01586914 110.89208984 C-131.45227513 110.32605328 -130.88868113 109.76001672 -130.30800851 109.17682754 C-121.17920253 100.00803271 -112.0563512 90.83332957 -102.93480561 81.65731265 C-93.56580209 72.23284296 -84.18715581 62.81803989 -74.80037659 53.41127479 C-69.01332747 47.61116278 -63.23439236 41.80319626 -57.46570047 35.98482512 C-53.50930844 31.995671 -49.5438468 28.01568442 -45.57119928 24.04271878 C-43.28109882 21.75185316 -40.99667699 19.45579155 -38.72034454 17.15123367 C-36.24784187 14.64932378 -33.76030935 12.16336394 -31.26850891 9.68069458 C-30.20300472 8.59129772 -30.20300472 8.59129772 -29.1159752 7.47989285 C-21.27140929 -0.26365533 -10.82385514 -5.62642194 0 0 Z " fill="#35B343" transform="translate(677,314)"/>
<path d="M0 0 C3.91319172 1.81392266 6.63014617 4.34035462 9.640625 7.375 C10.16767029 7.90013184 10.69471558 8.42526367 11.23773193 8.96630859 C12.34616928 10.07338883 13.45210046 11.1829833 14.55566406 12.29492188 C16.25106301 14.00106975 17.9569161 15.69624047 19.6640625 17.390625 C20.74022558 18.46810892 21.81576851 19.54621267 22.890625 20.625 C23.40304749 21.13337402 23.91546997 21.64174805 24.44342041 22.16552734 C28 25.77005909 28 25.77005909 28 28 C28.61875 28.2475 29.2375 28.495 29.875 28.75 C32 30 32 30 34 34 C-44.54 112.54 -123.08 191.08 -204 272 C-211.87530084 265.24974214 -211.87530084 265.24974214 -214.92790222 262.19908142 C-215.96860619 261.16260719 -215.96860619 261.16260719 -217.03033447 260.10519409 C-217.76564392 259.36786041 -218.50095337 258.63052673 -219.25854492 257.87084961 C-220.05293472 257.07821213 -220.84732452 256.28557465 -221.66578674 255.46891785 C-224.27319032 252.86589138 -226.87694747 250.25925282 -229.48046875 247.65234375 C-231.29919572 245.83429087 -233.11807108 244.01638642 -234.93708801 242.19862366 C-238.7405299 238.39665302 -242.54221246 234.59293583 -246.3425293 230.7878418 C-250.72765852 226.39726372 -255.11638895 222.01031007 -259.50699157 217.62520593 C-263.74498515 213.39230599 -267.98015122 209.15658983 -272.21413612 204.91967964 C-274.01033458 203.12281471 -275.80727452 201.32669067 -277.60497093 199.53132439 C-280.11562229 197.02321437 -282.62304267 194.51191792 -285.12963867 191.99975586 C-285.87102081 191.26039795 -286.61240295 190.52104004 -287.37625122 189.75927734 C-290.81250292 186.30888729 -293.99612375 182.84119078 -297 179 C-297.763125 178.401875 -298.52625 177.80375 -299.3125 177.1875 C-301.55903576 175.35892439 -303.16972476 173.71061597 -305.015625 171.51953125 C-309.56820154 166.25757065 -314.49670475 161.39455311 -319.4375 156.5 C-320.82098633 155.12328125 -320.82098633 155.12328125 -322.23242188 153.71875 C-324.48599899 151.47684945 -326.74189075 149.237334 -329 147 C-325.03627475 142.24914133 -320.90205218 137.76386888 -316.5078125 133.41015625 C-315.62160721 132.52607338 -315.62160721 132.52607338 -314.71749878 131.62413025 C-312.85569596 129.76786273 -310.99042255 127.91512915 -309.125 126.0625 C-307.85132989 124.79385328 -306.57789029 123.5249751 -305.3046875 122.25585938 C-302.20577957 119.16789446 -299.10375699 116.08309071 -296 113 C-292.58856447 115.66258383 -289.611116 118.33710428 -286.79931641 121.62988281 C-282.21236342 126.99823769 -277.20675566 131.93767535 -272.2109375 136.921875 C-271.17902313 137.95446473 -270.14725709 138.98720272 -269.1156311 140.02008057 C-266.96737751 142.16979824 -264.81735178 144.31772282 -262.66601562 146.46435547 C-259.91791045 149.20674244 -257.17434937 151.95362483 -254.43208885 154.70185471 C-252.30801339 156.82955233 -250.18155139 158.95485195 -248.05437088 161.07944489 C-247.04180279 162.09134941 -246.02996726 163.10398756 -245.01890182 164.11739349 C-243.60536159 165.53348993 -242.18824613 166.94601483 -240.77099609 168.35839844 C-239.96826263 169.1603363 -239.16552917 169.96227417 -238.33847046 170.78851318 C-235.99035858 173.00911787 -233.5375417 175.00111148 -231 177 C-228.16596006 179.68870456 -225.62718964 182.46027858 -223.1875 185.5 C-219.0466967 190.41318112 -213.32925921 194.53093284 -206.80078125 195.23828125 C-205.97964844 195.26277344 -205.15851563 195.28726563 -204.3125 195.3125 C-203.50425781 195.34988281 -202.69601562 195.38726563 -201.86328125 195.42578125 C-193.67855959 194.20868076 -188.3471347 188.91814802 -182.78686523 183.2678833 C-181.60667439 182.092819 -181.60667439 182.092819 -180.4026413 180.89401603 C-177.77836805 178.27631196 -175.16861382 175.6446051 -172.55859375 173.01269531 C-170.67651776 171.12949065 -168.79366383 169.24709519 -166.9098053 167.36567688 C-162.86055103 163.31851538 -158.81865855 159.26412147 -154.78173828 155.20465851 C-148.94510006 149.33544908 -143.0973879 143.47737587 -137.24695373 137.62192199 C-127.75428216 128.1205058 -118.27056922 118.61019989 -108.79248047 109.09423828 C-99.58787127 99.85288743 -90.37905123 90.61576617 -81.16455078 81.38427734 C-80.31192923 80.53007945 -80.31192923 80.53007945 -79.442083 79.65862504 C-76.59035942 76.80168113 -73.738553 73.94481993 -70.8867054 71.08799982 C-47.24494761 47.40480592 -23.61772632 23.70715891 0 0 Z " fill="#CEECC9" transform="translate(666,351)"/>
<path d="M0 0 C1.81240959 -0.02760015 3.62494948 -0.04665998 5.4375 -0.0625 C6.44683594 -0.07410156 7.45617187 -0.08570313 8.49609375 -0.09765625 C11.28797422 -0.01984464 13.95073293 0.18673126 16.71899414 0.50610352 C17.52268936 0.59803482 18.32638458 0.68996613 19.1544342 0.78468323 C19.76347092 0.85573776 20.37250763 0.9267923 21 1 C21.0234445 22.70671736 21.0410356 44.41343261 21.05181217 66.1201601 C21.05695072 76.20079791 21.06394646 86.28142781 21.07543945 96.36206055 C21.08546134 105.15662348 21.09187115 113.95118069 21.09408849 122.74574918 C21.09538295 127.39484599 21.09838754 132.04392643 21.10573006 136.69301796 C21.1126092 141.08505466 21.11459326 145.47706853 21.11310768 149.86911011 C21.11337874 151.46562513 21.11531233 153.06214106 21.11920547 154.65865135 C21.13887392 163.15413195 20.98839395 171.61888214 20.55540466 180.10441589 C20.51660913 180.87543335 20.47781359 181.64645081 20.43784243 182.44083244 C20.16437434 187.33101151 19.65575426 192.14614917 19 197 C18.67 197 18.34 197 18 197 C18.33 132.98 18.66 68.96 19 3 C12.07 2.505 12.07 2.505 5 2 C3.35 1.67 1.7 1.34 0 1 C0 0.67 0 0.34 0 0 Z " fill="#EFF9EC" transform="translate(779,258)"/>
<path d="M0 0 C0.66 0 1.32 0 2 0 C3.36176922 1.64351457 4.68962066 3.31522656 6 5 C7.65350185 6.68188089 9.32155558 8.34336801 11 10 C12.21480435 11.217898 13.42841204 12.43699027 14.64111328 13.65698242 C18.33794454 17.37160586 22.03782077 21.08318033 25.73876953 24.79370117 C27.33406032 26.39405171 28.92845688 27.99529414 30.52197266 29.59741211 C32.82740881 31.91494717 35.13603251 34.22926461 37.4453125 36.54296875 C38.15785187 37.2606694 38.87039124 37.97837006 39.60452271 38.71781921 C40.26886322 39.38223526 40.93320374 40.04665131 41.61767578 40.73120117 C42.19993927 41.31568527 42.78220276 41.90016937 43.3821106 42.50236511 C45.13526133 44.20439326 45.13526133 44.20439326 48 46 C48 46.66 48 47.32 48 48 C48.556875 48.226875 49.11375 48.45375 49.6875 48.6875 C52.68041199 50.38617978 54.73527237 52.42072687 57 55 C57 55.99 57 56.98 57 58 C50.25040529 52.31092881 43.99312934 46.15661252 37.75390625 39.921875 C36.69163481 38.86282359 35.62929118 37.80384458 34.56687927 36.74493408 C32.35735371 34.5413532 30.14986042 32.33575951 27.94360352 30.12890625 C25.115191 27.30039131 22.27991184 24.47886629 19.44290257 21.65897751 C17.2545221 19.48169333 15.07067914 17.29990196 12.88810539 15.1167984 C11.84390433 14.0737771 10.79808197 13.0323763 9.75061226 11.99263763 C8.29323457 10.54502994 6.84229641 9.09125761 5.39282227 7.63574219 C4.56645767 6.81080261 3.74009308 5.98586304 2.88868713 5.13592529 C1 3 1 3 0 0 Z " fill="#33A83A" transform="translate(375,468)"/>
<path d="M0 0 C-0.99 0.66 -1.98 1.32 -3 2 C-6.5 0.6875 -6.5 0.6875 -10 -1 C-10.99 -1.33 -11.98 -1.66 -13 -2 C-13 -2.66 -13 -3.32 -13 -4 C-14.74906659 -4.19601608 -16.49931846 -4.38147403 -18.25 -4.5625 C-19.71179688 -4.71912109 -19.71179688 -4.71912109 -21.203125 -4.87890625 C-23.92522224 -5.14003223 -23.92522224 -5.14003223 -26.171875 -4.40234375 C-26.77515625 -4.26957031 -27.3784375 -4.13679687 -28 -4 C-28.99 -4.66 -29.98 -5.32 -31 -6 C-20.39681028 -11.82135906 -9.72679538 -5.35742228 0 0 Z " fill="#5EBD61" transform="translate(534,145)"/>
<path d="M0 0 C4.07637122 1.62275148 6.82612042 4.53715823 9.859375 7.59375 C10.40861633 8.14107788 10.95785767 8.68840576 11.52374268 9.25231934 C12.67925859 10.4064778 13.83226685 11.56315167 14.98291016 12.72216797 C16.750735 14.50073946 18.5290213 16.26834763 20.30859375 18.03515625 C21.43032971 19.15821308 22.55144551 20.28188976 23.671875 21.40625 C24.20617126 21.9364978 24.74046753 22.46674561 25.29095459 23.01306152 C29 26.77006146 29 26.77006146 29 29 C29.99 29.33 30.98 29.66 32 30 C31.67 30.66 31.34 31.32 31 32 C26.66171968 28.61402512 23.13278849 25.00103076 19.61328125 20.76953125 C17.92720578 18.77730559 17.92720578 18.77730559 15 17 C15 16.34 15 15.68 15 15 C14.34 15 13.68 15 13 15 C11.484375 13.42578125 11.484375 13.42578125 9.75 11.3125 C7.49924272 8.64650867 5.29950455 6.28989909 2.5625 4.125 C1.716875 3.42375 0.87125 2.7225 0 2 C0 1.34 0 0.68 0 0 Z " fill="#34A83B" transform="translate(335,497)"/>
<path d="M0 0 C0.33 0.66 0.66 1.32 1 2 C1.66 2 2.32 2 3 2 C4.12744793 4.87404593 5.25151143 7.74940426 6.375 10.625 C6.69210938 11.43324219 7.00921875 12.24148438 7.3359375 13.07421875 C9.0048933 17.35091799 10.5986057 21.62595111 12 26 C11.34 26.66 10.68 27.32 10 28 C9.16235732 26.04350603 8.33000941 24.08474444 7.5 22.125 C6.80390625 20.48917969 6.80390625 20.48917969 6.09375 18.8203125 C5 16 5 16 5 14 C4.34 13.67 3.68 13.34 3 13 C2.1484375 10.8203125 2.1484375 10.8203125 1.375 8.125 C1.11460937 7.24070312 0.85421875 6.35640625 0.5859375 5.4453125 C0 3 0 3 0 0 Z " fill="#4EB752" transform="translate(215,583)"/>
<path d="M0 0 C1.12848969 3.38546907 0.96414543 5.75907881 0.8125 9.3125 C0.74301145 14.97265843 1.18880462 17.83150505 5 22 C4.67 22.66 4.34 23.32 4 24 C-1.04285293 18.11667158 -2.21869919 14.01605569 -2.265625 6.40234375 C-1.98342949 3.85013436 -1.2829823 2.20448943 0 0 Z " fill="#20A02A" transform="translate(302,488)"/>
<path d="M0 0 C-0.99 0.495 -0.99 0.495 -2 1 C-2 1.66 -2 2.32 -2 3 C-6.455 4.485 -6.455 4.485 -11 6 C-11 5.34 -11 4.68 -11 4 C-11.66 3.67 -12.32 3.34 -13 3 C-8.37802694 0.78145293 -5.23175837 -0.38281159 0 0 Z " fill="#48B950" transform="translate(428,174)"/>
<path d="M0 0 C5.28 0 10.56 0 16 0 C16 0.33 16 0.66 16 1 C14.35 1 12.7 1 11 1 C11 1.66 11 2.32 11 3 C11.66 3.33 12.32 3.66 13 4 C8.428721 3.45144652 4.32564205 2.58255197 0 1 C0 0.67 0 0.34 0 0 Z " fill="#46B64D" transform="translate(672,200)"/>
<path d="M0 0 C0.33 0.99 0.66 1.98 1 3 C-0.32 3.99 -1.64 4.98 -3 6 C-3.66 5.67 -4.32 5.34 -5 5 C-3.35 3.35 -1.7 1.7 0 0 Z M-6 6 C-6 9 -6 9 -7.3125 10.60546875 C-7.869375 11.12753906 -8.42625 11.64960938 -9 12.1875 C-9.556875 12.71730469 -10.11375 13.24710938 -10.6875 13.79296875 C-11.120625 14.19128906 -11.55375 14.58960938 -12 15 C-12.66 14.67 -13.32 14.34 -14 14 C-11.36 11.36 -8.72 8.72 -6 6 Z " fill="#C4E8C0" transform="translate(519,500)"/>
<path d="M0 0 C1.34313399 0.64669414 2.67391178 1.31903578 4 2 C4.9075 2.45375 5.815 2.9075 6.75 3.375 C7.4925 3.91125 8.235 4.4475 9 5 C9 6.32 9 7.64 9 9 C6.04346256 7.6273219 3.4350144 6.18311636 1 4 C0.25 1.8125 0.25 1.8125 0 0 Z " fill="#4BB751" transform="translate(359,780)"/>
<path d="M0 0 C0 0.99 0 1.98 0 3 C-3.63 3 -7.26 3 -11 3 C-4.33333333 -1.44444444 -4.33333333 -1.44444444 0 0 Z " fill="#58BD5D" transform="translate(409,181)"/>
<path d="M0 0 C0.66 0 1.32 0 2 0 C3.2063366 5.22745859 2.75612577 9.76528314 2 15 C1.67 15 1.34 15 1 15 C-0.03590199 9.94997778 -0.10251672 5.12583611 0 0 Z " fill="#21A62B" transform="translate(194,477)"/>
<path d="M0 0 C0.33 0.66 0.66 1.32 1 2 C3.31 2 5.62 2 8 2 C8 2.33 8 2.66 8 3 C6.25181409 3.22304441 4.50129677 3.4278645 2.75 3.625 C1.77546875 3.74101562 0.8009375 3.85703125 -0.203125 3.9765625 C-3.13429393 4.00112537 -4.54528964 3.5312717 -7 2 C-4.69 1.34 -2.38 0.68 0 0 Z " fill="#60BF63" transform="translate(779,220)"/>
<path d="M0 0 C-3.20336822 2.83374881 -5.78087253 3.5205537 -10 4 C-7.53453745 -1.4592385 -5.69047474 -1.11335375 0 0 Z " fill="#51BC57" transform="translate(525,882)"/>
<path d="M0 0 C0.66 0.33 1.32 0.66 2 1 C2.08333357 5.8333472 1.95261487 10.23692563 1 15 C0.67 15 0.34 15 0 15 C-1.33257403 4.44191344 -1.33257403 4.44191344 0 0 Z " fill="#5EBE61" transform="translate(826,494)"/>
<path d="M0 0 C0 0.66 0 1.32 0 2 C-5.50016964 3.30267176 -10.47032059 2.71033431 -16 2 C-16 1.67 -16 1.34 -16 1 C-10.59255982 0.22750855 -5.46137814 -0.09752461 0 0 Z " fill="#60BC63" transform="translate(250,222)"/>
<path d="M0 0 C5.26053037 -0.31563182 8.44573816 0.33409063 13 3 C12.01 3.66 11.02 4.32 10 5 C6.5 3.6875 6.5 3.6875 3 2 C2.01 1.67 1.02 1.34 0 1 C0 0.67 0 0.34 0 0 Z " fill="#4CB853" transform="translate(521,142)"/>
<path d="M0 0 C1.0725 0.309375 2.145 0.61875 3.25 0.9375 C5.82866222 1.66812096 8.39512102 2.37482904 11 3 C11 3.66 11 4.32 11 5 C11.66 5.33 12.32 5.66 13 6 C7.71862571 5.48474397 4.42778844 3.74522883 0 1 C0 0.67 0 0.34 0 0 Z " fill="#1A9F22" transform="translate(561,196)"/>
<path d="M0 0 C1.21065165 3.63195496 0.62784815 5.06531629 -0.4375 8.6875 C-0.86869141 10.17830078 -0.86869141 10.17830078 -1.30859375 11.69921875 C-1.53675781 12.45847656 -1.76492188 13.21773437 -2 14 C-3.94516856 10.48975328 -4.10093606 8.90331877 -3 5 C-2.67 4.01 -2.34 3.02 -2 2 C-1.34 2 -0.68 2 0 2 C0 1.34 0 0.68 0 0 Z " fill="#64C267" transform="translate(814,561)"/>
<path d="M0 0 C0.33 0 0.66 0 1 0 C1.33 4.29 1.66 8.58 2 13 C1.01 13 0.02 13 -1 13 C-1.07654536 8.48382401 -1.10228696 4.40914783 0 0 Z " fill="#CDEBC9" transform="translate(793,475)"/>
<path d="M0 0 C0.66 0.33 1.32 0.66 2 1 C1.67 2.32 1.34 3.64 1 5 C-0.32 5.33 -1.64 5.66 -3 6 C-3 6.66 -3 7.32 -3 8 C-3.66 8 -4.32 8 -5 8 C-3.8141763 4.62496331 -2.72426311 2.35277269 0 0 Z " fill="#50B855" transform="translate(196,230)"/>
<path d="M0 0 C2.97 0.495 2.97 0.495 6 1 C5.01 1.33 4.02 1.66 3 2 C3 2.66 3 3.32 3 4 C-1.29 3.67 -5.58 3.34 -10 3 C-10 2.67 -10 2.34 -10 2 C-6.7 2 -3.4 2 0 2 C0 1.34 0 0.68 0 0 Z " fill="#76C877" transform="translate(216,224)"/>
<path d="M0 0 C0.33 0.66 0.66 1.32 1 2 C0.22265625 4.1640625 0.22265625 4.1640625 -0.9375 6.625 C-1.31777344 7.44226563 -1.69804688 8.25953125 -2.08984375 9.1015625 C-2.39019531 9.72804688 -2.69054687 10.35453125 -3 11 C-3.33 11 -3.66 11 -4 11 C-3.54177532 7.53058454 -3.10868317 4.32604951 -2 1 C-1.34 0.67 -0.68 0.34 0 0 Z " fill="#55B859" transform="translate(801,601)"/>
<path d="M0 0 C0.33 0.66 0.66 1.32 1 2 C-0.41543415 2.19658808 -1.83244031 2.38187546 -3.25 2.5625 C-4.03890625 2.66691406 -4.8278125 2.77132812 -5.640625 2.87890625 C-8.00532874 3.00027349 -9.7511037 2.69633257 -12 2 C-7.82262526 0.40861915 -4.46839215 -0.21278058 0 0 Z " fill="#E5F5E2" transform="translate(328,243)"/>
<path d="M0 0 C-3.42346555 3.14958831 -6.44262737 3.56179109 -11 4 C-10.3125 2.0625 -10.3125 2.0625 -9 0 C-5.6813976 -1.13531135 -3.31010574 -1.10336858 0 0 Z " fill="#28A832" transform="translate(207,229)"/>
<path d="M0 0 C1.65 0 3.3 0 5 0 C5 0.66 5 1.32 5 2 C7.97 2.99 10.94 3.98 14 5 C10.33529384 6.22156872 9.36762312 5.62833432 5.875 4.1875 C4.98554687 3.83042969 4.09609375 3.47335938 3.1796875 3.10546875 C1 2 1 2 0 0 Z " fill="#159C1D" transform="translate(575,202)"/>
<path d="M0 0 C4.31392226 0.4793247 6.16569547 1.7457985 9 5 C6.36 4.67 3.72 4.34 1 4 C0.67 2.68 0.34 1.36 0 0 Z " fill="#5ABB5D" transform="translate(819,227)"/>
<path d="M0 0 C-0.33 0.99 -0.66 1.98 -1 3 C-7.0546875 3.1953125 -7.0546875 3.1953125 -9 3 C-9.66 2.34 -10.32 1.68 -11 1 C-7.27569643 0.30710631 -3.78916254 -0.11144596 0 0 Z " fill="#65C369" transform="translate(266,219)"/>
<path d="M0 0 C-1.90401138 1.90401138 -3.33425686 2.93520439 -6.046875 3.19921875 C-8.03233273 3.1886578 -10.0169914 3.09915043 -12 3 C-8.52582963 0.68388642 -4.04642977 -2.02321489 0 0 Z " fill="#5EBE62" transform="translate(384,190)"/>
<path d="M0 0 C4.60853797 0.72008406 8.67237409 2.31295939 13 4 C9.52176885 5.15941038 7.54104422 4.70820884 4 4 C4 3.34 4 2.68 4 2 C2.68 1.34 1.36 0.68 0 0 Z " fill="#74C977" transform="translate(597,173)"/>
<path d="M0 0 C0 3 0 3 -1.75 5.25 C-2.86375 6.11625 -2.86375 6.11625 -4 7 C-5.32 6.67 -6.64 6.34 -8 6 C-5.36 4.02 -2.72 2.04 0 0 Z " fill="#1EA027" transform="translate(568,814)"/>
<path d="M0 0 C3.16115776 1.36983503 3.9927092 1.9890638 6 5 C5.625 7.1875 5.625 7.1875 5 9 C4.38125 8.05125 3.7625 7.1025 3.125 6.125 C1.18029031 3.05554891 1.18029031 3.05554891 -1 1 C-0.67 0.67 -0.34 0.34 0 0 Z " fill="#55BC57" transform="translate(253,662)"/>
<path d="M0 0 C0.33 0.66 0.66 1.32 1 2 C1.66 2 2.32 2 3 2 C4.125 4.8125 4.125 4.8125 5 8 C4.01 9.485 4.01 9.485 3 11 C2.49384702 9.73160474 1.99530901 8.46016898 1.5 7.1875 C1.2215625 6.47980469 0.943125 5.77210938 0.65625 5.04296875 C0 3 0 3 0 0 Z " fill="#60BF63" transform="translate(215,583)"/>
<path d="M0 0 C2.97 0 5.94 0 9 0 C9.33 0.66 9.66 1.32 10 2 C7.36 2.33 4.72 2.66 2 3 C2 2.34 2 1.68 2 1 C1.34 0.67 0.68 0.34 0 0 Z " fill="#4AB44F" transform="translate(248,221)"/>
<path d="M0 0 C1.32 0.33 2.64 0.66 4 1 C2.71475739 1.86380259 1.42157581 2.71580369 0.125 3.5625 C-0.59429688 4.03816406 -1.31359375 4.51382813 -2.0546875 5.00390625 C-2.69664062 5.33261719 -3.33859375 5.66132812 -4 6 C-4.66 5.67 -5.32 5.34 -6 5 C-5.34 4.01 -4.68 3.02 -4 2 C-2.68 2 -1.36 2 0 2 C0 1.34 0 0.68 0 0 Z " fill="#66C468" transform="translate(543,869)"/>
<path d="M0 0 C0.99 0 1.98 0 3 0 C4.42944945 2.35438733 5.08661261 3.48032433 4.625 6.25 C4.41875 6.8275 4.2125 7.405 4 8 C0 2.25 0 2.25 0 0 Z " fill="#57BC59" transform="translate(241,642)"/>
<path d="M0 0 C5.75 1.75 5.75 1.75 8 4 C7.34 4 6.68 4 6 4 C6 4.66 6 5.32 6 6 C5.34 6 4.68 6 4 6 C4 5.34 4 4.68 4 4 C3.34 4 2.68 4 2 4 C1.34 2.68 0.68 1.36 0 0 Z " fill="#5FC164" transform="translate(546,151)"/>
<path d="M0 0 C-5.2734375 3.22265625 -5.2734375 3.22265625 -7 4 C-7.66 3.67 -8.32 3.34 -9 3 C-5.83583464 -0.30799106 -4.50236011 -1.35070803 0 0 Z " fill="#55BC5A" transform="translate(534,878)"/>
<path d="M0 0 C2.22189824 2.22189824 2.92598892 4.08482708 4 7 C3.34 7.66 2.68 8.32 2 9 C0.4375 6.1875 0.4375 6.1875 -1 3 C-0.67 2.01 -0.34 1.02 0 0 Z " fill="#4EB753" transform="translate(234,625)"/>
<path d="M0 0 C0.99 0.33 1.98 0.66 3 1 C4.1875 4.0625 4.1875 4.0625 5 7 C4.01 7.495 4.01 7.495 3 8 C0 2.25 0 2.25 0 0 Z " fill="#52B554" transform="translate(228,616)"/>
<path d="M0 0 C0.33 0 0.66 0 1 0 C1.25 6.625 1.25 6.625 -1 10 C-2.46726798 6.18510326 -1.43336419 3.70988378 0 0 Z " fill="#46B14C" transform="translate(807,580)"/>
<path d="M0 0 C0.33 0 0.66 0 1 0 C1.33 3.96 1.66 7.92 2 12 C1.34 11.67 0.68 11.34 0 11 C0 7.37 0 3.74 0 0 Z " fill="#65BE63" transform="translate(192,488)"/>
<path d="M0 0 C0.33 0 0.66 0 1 0 C1 1.65 1 3.3 1 5 C0.01 5.495 0.01 5.495 -1 6 C-1.042721 4.33388095 -1.04063832 2.66617115 -1 1 C-0.67 0.67 -0.34 0.34 0 0 Z " fill="#64BE62" transform="translate(201,540)"/>
<path d="M0 0 C2.475 0.495 2.475 0.495 5 1 C4.67 1.99 4.34 2.98 4 4 C2.68 2.68 1.36 1.36 0 0 Z " fill="#61BD5F" transform="translate(352,780)"/>
<path d="M0 0 C0.66 0.66 1.32 1.32 2 2 C1.01 2 0.02 2 -1 2 C-0.67 1.34 -0.34 0.68 0 0 Z " fill="#62BB5F" transform="translate(401,818)"/>
<path d="M0 0 C0.33 0 0.66 0 1 0 C1 1.65 1 3.3 1 5 C0.67 5 0.34 5 0 5 C0 3.35 0 1.7 0 0 Z " fill="#66C066" transform="translate(187,427)"/>
<path d="M0 0 C0.33 0 0.66 0 1 0 C1 1.65 1 3.3 1 5 C0.67 5 0.34 5 0 5 C0 3.35 0 1.7 0 0 Z " fill="#67C465" transform="translate(186,348)"/>
<path d="M0 0 C0.33 0 0.66 0 1 0 C1 1.65 1 3.3 1 5 C0.67 5 0.34 5 0 5 C0 3.35 0 1.7 0 0 Z " fill="#65C266" transform="translate(186,320)"/>
<path d="M0 0 C0.66 0.66 1.32 1.32 2 2 C1.01 1.67 0.02 1.34 -1 1 C-0.67 0.67 -0.34 0.34 0 0 Z " fill="#61BB5D" transform="translate(457,858)"/>
<path d="M0 0 C0.99 0.33 1.98 0.66 3 1 C2.01 1 1.02 1 0 1 C0 0.67 0 0.34 0 0 Z " fill="#60BC5E" transform="translate(394,813)"/>
<path d="M0 0 C0 3 0 3 0 3 Z " fill="#62BD5D" transform="translate(241,645)"/>
<path d="M0 0 C0.66 0.66 1.32 1.32 2 2 C1.01 2.495 1.01 2.495 0 3 C0 2.01 0 1.02 0 0 Z " fill="#66C165" transform="translate(400,177)"/>
<path d="M0 0 C0.33 0.66 0.66 1.32 1 2 C0.01 1.67 -0.98 1.34 -2 1 C-1.34 0.67 -0.68 0.34 0 0 Z " fill="#68C267" transform="translate(482,146)"/>
<path d="M0 0 C0.99 0.495 0.99 0.495 2 1 C1.01 1.495 1.01 1.495 0 2 C0 1.34 0 0.68 0 0 Z " fill="#67BE64" transform="translate(485,878)"/>
<path d="M0 0 C3 1 3 1 3 1 Z " fill="#62BD61" transform="translate(472,869)"/>
<path d="M0 0 C0.33 0.66 0.66 1.32 1 2 C0.34 1.67 -0.32 1.34 -1 1 C-0.67 0.67 -0.34 0.34 0 0 Z " fill="#66BE62" transform="translate(564,859)"/>
<path d="M0 0 C3 1 3 1 3 1 Z " fill="#60BE5E" transform="translate(345,773)"/>
<path d="M0 0 C0.66 0.66 1.32 1.32 2 2 C1.34 2 0.68 2 0 2 C0 1.34 0 0.68 0 0 Z " fill="#64BB61" transform="translate(272,693)"/>
<path d="M0 0 C0.33 0.66 0.66 1.32 1 2 C0.34 1.67 -0.32 1.34 -1 1 C-0.67 0.67 -0.34 0.34 0 0 Z " fill="#62BE60" transform="translate(265,684)"/>
<path d="M0 0 C0.33 0.66 0.66 1.32 1 2 C0.34 1.67 -0.32 1.34 -1 1 C-0.67 0.67 -0.34 0.34 0 0 Z " fill="#63BF61" transform="translate(218,598)"/>
<path d="M0 0 C0.66 0 1.32 0 2 0 C1.67 0.66 1.34 1.32 1 2 C0.67 1.34 0.34 0.68 0 0 Z " fill="#67C065" transform="translate(211,582)"/>
<path d="" fill="#65BE61" transform="translate(0,0)"/>
<path d="" fill="#68BB68" transform="translate(0,0)"/>
<path d="M0 0 C0.66 0.66 1.32 1.32 2 2 C1.34 2 0.68 2 0 2 C0 1.34 0 0.68 0 0 Z " fill="#62BF62" transform="translate(192,512)"/>
<path d="M0 0 C0.33 0.66 0.66 1.32 1 2 C0.34 1.67 -0.32 1.34 -1 1 C-0.67 0.67 -0.34 0.34 0 0 Z " fill="#64BF63" transform="translate(195,509)"/>
<path d="" fill="#65BF62" transform="translate(0,0)"/>
<path d="M0 0 C0.66 0 1.32 0 2 0 C1.67 0.66 1.34 1.32 1 2 C0.67 1.34 0.34 0.68 0 0 Z " fill="#65BD64" transform="translate(193,504)"/>
<path d="" fill="#60BB5E" transform="translate(0,0)"/>
<path d="M0 0 C0.99 0.495 0.99 0.495 2 1 C1.01 1.495 1.01 1.495 0 2 C0 1.34 0 0.68 0 0 Z " fill="#65C064" transform="translate(407,176)"/>
<path d="M0 0 C3 1 3 1 3 1 Z " fill="#6ABD67" transform="translate(432,168)"/>
<path d="M0 0 C2 1 2 1 2 1 Z " fill="#63BC62" transform="translate(480,874)"/>
<path d="" fill="#6CC169" transform="translate(0,0)"/>
<path d="M0 0 C2 1 2 1 2 1 Z " fill="#64C061" transform="translate(457,861)"/>
<path d="M0 0 C2 1 2 1 2 1 Z " fill="#61BC61" transform="translate(565,858)"/>
<path d="M0 0 C2 1 2 1 2 1 Z " fill="#62BE5E" transform="translate(432,843)"/>
<path d="" fill="#64BD61" transform="translate(0,0)"/>
<path d="" fill="#63BD62" transform="translate(0,0)"/>
<path d="M0 0 C2 1 2 1 2 1 Z " fill="#5FBB5D" transform="translate(362,787)"/>
<path d="" fill="#63BD5F" transform="translate(0,0)"/>
<path d="M0 0 C2 1 2 1 2 1 Z " fill="#5EBE5C" transform="translate(339,766)"/>
<path d="M0 0 C2 1 2 1 2 1 Z " fill="#64BD62" transform="translate(701,751)"/>
<path d="" fill="#63BE60" transform="translate(0,0)"/>
<path d="M0 0 C2 1 2 1 2 1 Z " fill="#5BBB5C" transform="translate(716,733)"/>
<path d="" fill="#62BC5F" transform="translate(0,0)"/>
<path d="" fill="#66BA65" transform="translate(0,0)"/>
<path d="" fill="#66BF64" transform="translate(0,0)"/>
<path d="" fill="#65BE64" transform="translate(0,0)"/>
<path d="" fill="#63BA65" transform="translate(0,0)"/>
<path d="" fill="#64C162" transform="translate(0,0)"/>
<path d="" fill="#65C062" transform="translate(0,0)"/>
<path d="" fill="#60BC63" transform="translate(0,0)"/>
<path d="" fill="#66BB61" transform="translate(0,0)"/>
<path d="" fill="#65C061" transform="translate(0,0)"/>
<path d="" fill="#66BE65" transform="translate(0,0)"/>
<path d="M0 0 C2 1 2 1 2 1 Z " fill="#63BB63" transform="translate(830,488)"/>
<path d="" fill="#62BE61" transform="translate(0,0)"/>
<path d="M0 0 C2 1 2 1 2 1 Z " fill="#66BF63" transform="translate(185,416)"/>
<path d="" fill="#68C265" transform="translate(0,0)"/>
<path d="" fill="#64C462" transform="translate(0,0)"/>
<path d="" fill="#65C163" transform="translate(0,0)"/>
<path d="" fill="#66C463" transform="translate(0,0)"/>
<path d="" fill="#67C164" transform="translate(0,0)"/>
<path d="" fill="#64C264" transform="translate(0,0)"/>
<path d="" fill="#66C464" transform="translate(0,0)"/>
<path d="" fill="#66C165" transform="translate(0,0)"/>
<path d="" fill="#66BF64" transform="translate(0,0)"/>
<path d="" fill="#68BF65" transform="translate(0,0)"/>
<path d="" fill="#6BBE67" transform="translate(0,0)"/>
<path d="M0 0 C2 1 2 1 2 1 Z " fill="#66BE65" transform="translate(210,224)"/>
<path d="M0 0 C2 1 2 1 2 1 Z " fill="#67C064" transform="translate(269,216)"/>
<path d="M0 0 C2 1 2 1 2 1 Z " fill="#5EBD5A" transform="translate(309,208)"/>
<path d="M0 0 C2 1 2 1 2 1 Z " fill="#65BE65" transform="translate(667,195)"/>
<path d="M0 0 C2 1 2 1 2 1 Z " fill="#65C266" transform="translate(352,193)"/>
<path d="M0 0 C2 1 2 1 2 1 Z " fill="#64BE61" transform="translate(657,192)"/>
<path d="M0 0 C2 1 2 1 2 1 Z " fill="#66BF64" transform="translate(401,180)"/>
<path d="M0 0 C2 1 2 1 2 1 Z " fill="#6BC167" transform="translate(594,170)"/>
<path d="" fill="#69C365" transform="translate(0,0)"/>
<path d="M0 0 C2 1 2 1 2 1 Z " fill="#66BF65" transform="translate(590,168)"/>
<path d="M0 0 C2 1 2 1 2 1 Z " fill="#69C065" transform="translate(470,152)"/>
<path d="M0 0 C2 1 2 1 2 1 Z " fill="#64C266" transform="translate(541,147)"/>
<path d="M0 0 C2 1 2 1 2 1 Z " fill="#6ABE67" transform="translate(488,144)"/>
<path d="" fill="#7A9768" transform="translate(0,0)"/>
<path d="" fill="#7D956B" transform="translate(0,0)"/>
<path d="" fill="#7A9668" transform="translate(0,0)"/>
<path d="" fill="#7FA26E" transform="translate(0,0)"/>
<path d="" fill="#7B9D6B" transform="translate(0,0)"/>
<path d="" fill="#7C966A" transform="translate(0,0)"/>
<path d="" fill="#71C06D" transform="translate(0,0)"/>
<path d="" fill="#65BD67" transform="translate(0,0)"/>
<path d="" fill="#68C166" transform="translate(0,0)"/>
<path d="" fill="#6BBE68" transform="translate(0,0)"/>
<path d="" fill="#68BE65" transform="translate(0,0)"/>
<path d="" fill="#69C068" transform="translate(0,0)"/>
<path d="" fill="#68C166" transform="translate(0,0)"/>
<path d="" fill="#68C264" transform="translate(0,0)"/>
<path d="" fill="#64C063" transform="translate(0,0)"/>
<path d="" fill="#60BE5E" transform="translate(0,0)"/>
<path d="" fill="#68C462" transform="translate(0,0)"/>
<path d="" fill="#64BE65" transform="translate(0,0)"/>
<path d="" fill="#66BC60" transform="translate(0,0)"/>
<path d="" fill="#63BF61" transform="translate(0,0)"/>
<path d="" fill="#63BD62" transform="translate(0,0)"/>
<path d="" fill="#64BD63" transform="translate(0,0)"/>
<path d="" fill="#65BD66" transform="translate(0,0)"/>
<path d="" fill="#62BA5F" transform="translate(0,0)"/>
<path d="" fill="#63BE63" transform="translate(0,0)"/>
<path d="" fill="#64BE61" transform="translate(0,0)"/>
<path d="" fill="#62BE62" transform="translate(0,0)"/>
<path d="" fill="#64BE61" transform="translate(0,0)"/>
<path d="" fill="#68BD62" transform="translate(0,0)"/>
<path d="" fill="#62C165" transform="translate(0,0)"/>
<path d="" fill="#63C066" transform="translate(0,0)"/>
<path d="" fill="#66B964" transform="translate(0,0)"/>
<path d="" fill="#62C05F" transform="translate(0,0)"/>
<path d="" fill="#63C261" transform="translate(0,0)"/>
<path d="" fill="#65BE63" transform="translate(0,0)"/>
<path d="" fill="#67BD63" transform="translate(0,0)"/>
<path d="" fill="#5FBC5C" transform="translate(0,0)"/>
<path d="" fill="#67BD64" transform="translate(0,0)"/>
<path d="" fill="#65BF63" transform="translate(0,0)"/>
<path d="" fill="#62C060" transform="translate(0,0)"/>
<path d="" fill="#64BD63" transform="translate(0,0)"/>
<path d="" fill="#64BD5F" transform="translate(0,0)"/>
<path d="" fill="#65BC63" transform="translate(0,0)"/>
<path d="" fill="#63BB5E" transform="translate(0,0)"/>
<path d="" fill="#66C164" transform="translate(0,0)"/>
<path d="" fill="#65BA63" transform="translate(0,0)"/>
<path d="" fill="#63BE62" transform="translate(0,0)"/>
<path d="" fill="#62BC60" transform="translate(0,0)"/>
<path d="" fill="#64BE63" transform="translate(0,0)"/>
<path d="" fill="#64BF63" transform="translate(0,0)"/>
<path d="" fill="#63BF64" transform="translate(0,0)"/>
<path d="" fill="#64BF62" transform="translate(0,0)"/>
<path d="" fill="#62B75F" transform="translate(0,0)"/>
<path d="" fill="#66BD63" transform="translate(0,0)"/>
<path d="" fill="#5FBA5E" transform="translate(0,0)"/>
<path d="" fill="#64BD61" transform="translate(0,0)"/>
<path d="" fill="#62BE61" transform="translate(0,0)"/>
<path d="" fill="#7F976E" transform="translate(0,0)"/>
<path d="" fill="#68BC64" transform="translate(0,0)"/>
<path d="" fill="#64BE60" transform="translate(0,0)"/>
<path d="" fill="#63BC61" transform="translate(0,0)"/>
<path d="" fill="#66C067" transform="translate(0,0)"/>
<path d="" fill="#63BB61" transform="translate(0,0)"/>
<path d="" fill="#62BD62" transform="translate(0,0)"/>
<path d="" fill="#63BF65" transform="translate(0,0)"/>
<path d="" fill="#63BB61" transform="translate(0,0)"/>
<path d="" fill="#67BF60" transform="translate(0,0)"/>
<path d="" fill="#63BC60" transform="translate(0,0)"/>
<path d="" fill="#65C065" transform="translate(0,0)"/>
<path d="" fill="#62BD63" transform="translate(0,0)"/>
<path d="" fill="#64BD61" transform="translate(0,0)"/>
<path d="" fill="#68C064" transform="translate(0,0)"/>
<path d="" fill="#5FBE5F" transform="translate(0,0)"/>
<path d="" fill="#5FBA60" transform="translate(0,0)"/>
<path d="" fill="#62BF60" transform="translate(0,0)"/>
<path d="" fill="#62C35E" transform="translate(0,0)"/>
<path d="" fill="#62BF60" transform="translate(0,0)"/>
<path d="" fill="#61BF60" transform="translate(0,0)"/>
<path d="" fill="#63BD62" transform="translate(0,0)"/>
<path d="" fill="#61BF5E" transform="translate(0,0)"/>
<path d="" fill="#5BBE59" transform="translate(0,0)"/>
<path d="" fill="#62C060" transform="translate(0,0)"/>
<path d="" fill="#5AC05B" transform="translate(0,0)"/>
<path d="" fill="#62BC61" transform="translate(0,0)"/>
<path d="" fill="#5EBD5C" transform="translate(0,0)"/>
<path d="" fill="#60C158" transform="translate(0,0)"/>
<path d="" fill="#62BF62" transform="translate(0,0)"/>
<path d="" fill="#5DB85C" transform="translate(0,0)"/>
<path d="" fill="#61BE5F" transform="translate(0,0)"/>
<path d="" fill="#66BF5F" transform="translate(0,0)"/>
<path d="" fill="#61BB5F" transform="translate(0,0)"/>
<path d="" fill="#5FB95E" transform="translate(0,0)"/>
<path d="" fill="#61BC5E" transform="translate(0,0)"/>
<path d="" fill="#5FBE5E" transform="translate(0,0)"/>
<path d="" fill="#63BB5F" transform="translate(0,0)"/>
<path d="" fill="#59B856" transform="translate(0,0)"/>
<path d="" fill="#61BD5F" transform="translate(0,0)"/>
<path d="" fill="#60BF61" transform="translate(0,0)"/>
<path d="" fill="#62BC60" transform="translate(0,0)"/>
<path d="" fill="#61BD60" transform="translate(0,0)"/>
<path d="" fill="#61BE63" transform="translate(0,0)"/>
<path d="" fill="#65BD60" transform="translate(0,0)"/>
<path d="" fill="#5EBA5D" transform="translate(0,0)"/>
<path d="" fill="#61B85D" transform="translate(0,0)"/>
<path d="" fill="#62BE61" transform="translate(0,0)"/>
<path d="" fill="#62BD5E" transform="translate(0,0)"/>
<path d="" fill="#64C061" transform="translate(0,0)"/>
<path d="" fill="#61B960" transform="translate(0,0)"/>
<path d="" fill="#66C065" transform="translate(0,0)"/>
<path d="" fill="#67B561" transform="translate(0,0)"/>
<path d="" fill="#66BD62" transform="translate(0,0)"/>
<path d="" fill="#68B965" transform="translate(0,0)"/>
<path d="" fill="#7F9A6F" transform="translate(0,0)"/>
<path d="" fill="#65C264" transform="translate(0,0)"/>
<path d="" fill="#63BE61" transform="translate(0,0)"/>
<path d="" fill="#63C162" transform="translate(0,0)"/>
<path d="" fill="#5FBD62" transform="translate(0,0)"/>
<path d="" fill="#65BD65" transform="translate(0,0)"/>
<path d="" fill="#63BF64" transform="translate(0,0)"/>
<path d="" fill="#64C063" transform="translate(0,0)"/>
<path d="" fill="#65BF63" transform="translate(0,0)"/>
<path d="" fill="#66C162" transform="translate(0,0)"/>
<path d="" fill="#62BF64" transform="translate(0,0)"/>
<path d="" fill="#60BF61" transform="translate(0,0)"/>
<path d="" fill="#62BD60" transform="translate(0,0)"/>
<path d="" fill="#62BF61" transform="translate(0,0)"/>
<path d="" fill="#64BF65" transform="translate(0,0)"/>
<path d="" fill="#63BE60" transform="translate(0,0)"/>
<path d="" fill="#66BC63" transform="translate(0,0)"/>
<path d="" fill="#66BE63" transform="translate(0,0)"/>
<path d="" fill="#64C263" transform="translate(0,0)"/>
<path d="" fill="#65BD5E" transform="translate(0,0)"/>
<path d="" fill="#67C364" transform="translate(0,0)"/>
<path d="" fill="#65C061" transform="translate(0,0)"/>
<path d="" fill="#61BE63" transform="translate(0,0)"/>
<path d="" fill="#64BE62" transform="translate(0,0)"/>
<path d="" fill="#62BC60" transform="translate(0,0)"/>
<path d="" fill="#66BA61" transform="translate(0,0)"/>
<path d="" fill="#829E72" transform="translate(0,0)"/>
<path d="" fill="#64BF62" transform="translate(0,0)"/>
<path d="" fill="#63BD61" transform="translate(0,0)"/>
<path d="" fill="#67BD64" transform="translate(0,0)"/>
<path d="" fill="#6CBF66" transform="translate(0,0)"/>
<path d="" fill="#63BC60" transform="translate(0,0)"/>
<path d="" fill="#61BD5D" transform="translate(0,0)"/>
<path d="" fill="#62BF60" transform="translate(0,0)"/>
<path d="" fill="#61C061" transform="translate(0,0)"/>
<path d="" fill="#61BE5D" transform="translate(0,0)"/>
<path d="" fill="#64BD60" transform="translate(0,0)"/>
<path d="" fill="#5FBC5D" transform="translate(0,0)"/>
<path d="" fill="#67C066" transform="translate(0,0)"/>
<path d="" fill="#65BF63" transform="translate(0,0)"/>
<path d="" fill="#67C061" transform="translate(0,0)"/>
<path d="" fill="#68C265" transform="translate(0,0)"/>
<path d="" fill="#64C063" transform="translate(0,0)"/>
<path d="" fill="#65C064" transform="translate(0,0)"/>
<path d="" fill="#60B95D" transform="translate(0,0)"/>
<path d="" fill="#67C164" transform="translate(0,0)"/>
<path d="" fill="#67BE66" transform="translate(0,0)"/>
<path d="" fill="#64BC61" transform="translate(0,0)"/>
<path d="" fill="#68BF65" transform="translate(0,0)"/>
<path d="" fill="#65BF64" transform="translate(0,0)"/>
<path d="" fill="#66C162" transform="translate(0,0)"/>
<path d="" fill="#66C066" transform="translate(0,0)"/>
<path d="" fill="#67C263" transform="translate(0,0)"/>
<path d="" fill="#64B866" transform="translate(0,0)"/>
<path d="" fill="#67BD63" transform="translate(0,0)"/>
<path d="" fill="#65BF63" transform="translate(0,0)"/>
<path d="" fill="#65BE62" transform="translate(0,0)"/>
<path d="" fill="#65C165" transform="translate(0,0)"/>
<path d="" fill="#5CBB5B" transform="translate(0,0)"/>
<path d="" fill="#63C164" transform="translate(0,0)"/>
<path d="" fill="#69C065" transform="translate(0,0)"/>
<path d="" fill="#65C062" transform="translate(0,0)"/>
<path d="" fill="#67C065" transform="translate(0,0)"/>
<path d="" fill="#63C262" transform="translate(0,0)"/>
<path d="" fill="#65C165" transform="translate(0,0)"/>
<path d="" fill="#68C166" transform="translate(0,0)"/>
<path d="" fill="#67C467" transform="translate(0,0)"/>
<path d="" fill="#65C365" transform="translate(0,0)"/>
<path d="" fill="#68C265" transform="translate(0,0)"/>
<path d="" fill="#69C167" transform="translate(0,0)"/>
<path d="" fill="#69C666" transform="translate(0,0)"/>
<path d="" fill="#63C262" transform="translate(0,0)"/>
<path d="" fill="#64C363" transform="translate(0,0)"/>
<path d="" fill="#67C467" transform="translate(0,0)"/>
<path d="" fill="#67C366" transform="translate(0,0)"/>
<path d="" fill="#67C366" transform="translate(0,0)"/>
<path d="" fill="#7FA16F" transform="translate(0,0)"/>
<path d="" fill="#64C562" transform="translate(0,0)"/>
<path d="" fill="#66BF63" transform="translate(0,0)"/>
<path d="" fill="#66C666" transform="translate(0,0)"/>
<path d="" fill="#67C167" transform="translate(0,0)"/>
<path d="" fill="#67BE62" transform="translate(0,0)"/>
<path d="" fill="#67C063" transform="translate(0,0)"/>
<path d="" fill="#6AC168" transform="translate(0,0)"/>
<path d="" fill="#66C364" transform="translate(0,0)"/>
<path d="" fill="#65C266" transform="translate(0,0)"/>
<path d="" fill="#6ABF67" transform="translate(0,0)"/>
<path d="" fill="#69C168" transform="translate(0,0)"/>
<path d="" fill="#69BF68" transform="translate(0,0)"/>
<path d="" fill="#6BBF6A" transform="translate(0,0)"/>
<path d="" fill="#6BBF68" transform="translate(0,0)"/>
<path d="" fill="#72BD71" transform="translate(0,0)"/>
<path d="" fill="#69BE64" transform="translate(0,0)"/>
<path d="" fill="#68C065" transform="translate(0,0)"/>
<path d="" fill="#6DBD69" transform="translate(0,0)"/>
<path d="" fill="#6BC168" transform="translate(0,0)"/>
<path d="" fill="#6CBE6A" transform="translate(0,0)"/>
<path d="" fill="#6ABF66" transform="translate(0,0)"/>
<path d="" fill="#62BC5C" transform="translate(0,0)"/>
<path d="" fill="#6BBF66" transform="translate(0,0)"/>
<path d="" fill="#6CC16A" transform="translate(0,0)"/>
<path d="" fill="#68C068" transform="translate(0,0)"/>
<path d="" fill="#68BC66" transform="translate(0,0)"/>
<path d="" fill="#5EBC5E" transform="translate(0,0)"/>
<path d="" fill="#67C266" transform="translate(0,0)"/>
<path d="" fill="#66C567" transform="translate(0,0)"/>
<path d="" fill="#69C267" transform="translate(0,0)"/>
<path d="" fill="#66BF64" transform="translate(0,0)"/>
<path d="" fill="#65C167" transform="translate(0,0)"/>
<path d="" fill="#66C265" transform="translate(0,0)"/>
<path d="" fill="#6ABF68" transform="translate(0,0)"/>
<path d="" fill="#69BF66" transform="translate(0,0)"/>
<path d="" fill="#6AC266" transform="translate(0,0)"/>
<path d="" fill="#6BC46A" transform="translate(0,0)"/>
<path d="" fill="#66C068" transform="translate(0,0)"/>
<path d="" fill="#68C569" transform="translate(0,0)"/>
<path d="" fill="#6BC266" transform="translate(0,0)"/>
<path d="" fill="#66C266" transform="translate(0,0)"/>
<path d="" fill="#65BF64" transform="translate(0,0)"/>
<path d="" fill="#69C468" transform="translate(0,0)"/>
<path d="" fill="#69BD64" transform="translate(0,0)"/>
<path d="" fill="#66BE63" transform="translate(0,0)"/>
<path d="" fill="#64C064" transform="translate(0,0)"/>
<path d="" fill="#68C065" transform="translate(0,0)"/>
<path d="" fill="#65C066" transform="translate(0,0)"/>
<path d="" fill="#66C064" transform="translate(0,0)"/>
<path d="" fill="#67BF63" transform="translate(0,0)"/>
<path d="" fill="#67C065" transform="translate(0,0)"/>
<path d="" fill="#69C165" transform="translate(0,0)"/>
<path d="" fill="#63C065" transform="translate(0,0)"/>
<path d="" fill="#6CC36A" transform="translate(0,0)"/>
<path d="" fill="#6AC267" transform="translate(0,0)"/>
<path d="" fill="#68C467" transform="translate(0,0)"/>
<path d="" fill="#6AC066" transform="translate(0,0)"/>
<path d="" fill="#66C163" transform="translate(0,0)"/>
<path d="" fill="#68C267" transform="translate(0,0)"/>
<path d="" fill="#6DC169" transform="translate(0,0)"/>
<path d="" fill="#65BE64" transform="translate(0,0)"/>
<path d="" fill="#61BD60" transform="translate(0,0)"/>
<path d="" fill="#67BE67" transform="translate(0,0)"/>
<path d="" fill="#68BF64" transform="translate(0,0)"/>
<path d="" fill="#66BF64" transform="translate(0,0)"/>
<path d="" fill="#6DC568" transform="translate(0,0)"/>
<path d="" fill="#68C266" transform="translate(0,0)"/>
<path d="" fill="#68C267" transform="translate(0,0)"/>
<path d="" fill="#66C467" transform="translate(0,0)"/>
<path d="" fill="#69C066" transform="translate(0,0)"/>
<path d="" fill="#66BF62" transform="translate(0,0)"/>
<path d="" fill="#63C264" transform="translate(0,0)"/>
<path d="" fill="#6AC267" transform="translate(0,0)"/>
<path d="" fill="#6DBA6B" transform="translate(0,0)"/>
<path d="" fill="#6DC16A" transform="translate(0,0)"/>
<path d="" fill="#7BAD70" transform="translate(0,0)"/>
<path d="" fill="#6BC167" transform="translate(0,0)"/>
<path d="" fill="#6CC26A" transform="translate(0,0)"/>
<path d="" fill="#6DC369" transform="translate(0,0)"/>
<path d="" fill="#6AC46B" transform="translate(0,0)"/>
<path d="" fill="#71C170" transform="translate(0,0)"/>
<path d="" fill="#6BC06B" transform="translate(0,0)"/>
<path d="" fill="#70C56F" transform="translate(0,0)"/>
<path d="" fill="#6BC26C" transform="translate(0,0)"/>
<path d="" fill="#7F996E" transform="translate(0,0)"/>
<path d="" fill="#81A472" transform="translate(0,0)"/>
<path d="" fill="#84A474" transform="translate(0,0)"/>
</svg>
